%TF.GenerationSoftware,KiCad,Pcbnew,10.0.4*%
%TF.CreationDate,2026-09-20T20:20:18-05:00*%
%TF.ProjectId,papaya-pcb,70617061-7961-42d7-9063-622e6b696361,rev?*%
%TF.SameCoordinates,Original*%
%TF.FileFunction,Copper,L2,Bot*%
%TF.FilePolarity,Positive*%
%FSLAX46Y46*%
G04 Gerber Fmt 4.6, Leading zero omitted, Abs format (unit mm)*
G04 Created by KiCad (PCBNEW 10.0.4) date 2026-09-20 20:20:18*
%MOMM*%
%LPD*%
G01*
G04 APERTURE LIST*
G04 Aperture macros list*
%AMRoundRect*
0 Rectangle with rounded corners*
0 $1 Rounding radius*
0 $2 $3 $4 $5 $6 $7 $8 $9 X,Y pos of 4 corners*
0 Add a 4 corners polygon primitive as box body*
4,1,4,$2,$3,$4,$5,$6,$7,$8,$9,$2,$3,0*
0 Add four circle primitives for the rounded corners*
1,1,$1+$1,$2,$3*
1,1,$1+$1,$4,$5*
1,1,$1+$1,$6,$7*
1,1,$1+$1,$8,$9*
0 Add four rect primitives between the rounded corners*
20,1,$1+$1,$2,$3,$4,$5,0*
20,1,$1+$1,$4,$5,$6,$7,0*
20,1,$1+$1,$6,$7,$8,$9,0*
20,1,$1+$1,$8,$9,$2,$3,0*%
G04 Aperture macros list end*
%TA.AperFunction,ComponentPad*%
%ADD10C,2.800000*%
%TD*%
%TA.AperFunction,ComponentPad*%
%ADD11RoundRect,0.250001X-1.149999X1.149999X-1.149999X-1.149999X1.149999X-1.149999X1.149999X1.149999X0*%
%TD*%
%TA.AperFunction,ComponentPad*%
%ADD12R,1.700000X1.700000*%
%TD*%
%TA.AperFunction,ComponentPad*%
%ADD13C,1.700000*%
%TD*%
%TA.AperFunction,ComponentPad*%
%ADD14RoundRect,0.250001X-1.149999X-1.149999X1.149999X-1.149999X1.149999X1.149999X-1.149999X1.149999X0*%
%TD*%
%TA.AperFunction,ComponentPad*%
%ADD15O,2.000000X2.000000*%
%TD*%
%TA.AperFunction,ComponentPad*%
%ADD16R,2.000000X2.000000*%
%TD*%
%TA.AperFunction,ComponentPad*%
%ADD17C,1.800000*%
%TD*%
%TA.AperFunction,ComponentPad*%
%ADD18RoundRect,0.180000X-0.720000X0.720000X-0.720000X-0.720000X0.720000X-0.720000X0.720000X0.720000X0*%
%TD*%
%TA.AperFunction,Conductor*%
%ADD19C,0.200000*%
%TD*%
G04 APERTURE END LIST*
D10*
%TO.P,J7,2*%
%TO.N,N/C*%
X104000000Y-75500000D03*
D11*
%TO.P,J7,1,Master_GND_OUT(to_B14)_1*%
%TO.N,/NET_B_BUS*%
X104000000Y-70500000D03*
%TD*%
D12*
%TO.P,J9,GND,S1_pin1-GND(black)_GND*%
%TO.N,/NET_B_BUS*%
X131500000Y-67000000D03*
D13*
%TO.P,J9,PWR,S1_pin2-PWR(red)_PWR*%
%TO.N,/NET_BUS_6V*%
X134040000Y-67000000D03*
%TO.P,J9,SIG,S1_pin3-SIG(white)_SIG*%
%TO.N,/NET_S1_SIG*%
X136580000Y-67000000D03*
%TD*%
%TO.P,J6,GND,ELRS_GND_GND*%
%TO.N,/NET_B_BUS*%
X153500000Y-124540000D03*
%TO.P,J6,RX,ELRS_RX(white)_RX*%
%TO.N,/NET_ELRS_RX*%
X153500000Y-129620000D03*
%TO.P,J6,TX,ELRS_TX(green)_TX*%
%TO.N,/NET_ELRS_TX*%
X153500000Y-127080000D03*
D12*
%TO.P,J6,VCC,ELRS_VCC(5V)_VCC*%
%TO.N,/NET_BUS_5V*%
X153500000Y-122000000D03*
%TD*%
%TO.P,J11,GND,S3_pin1-GND(black)_GND*%
%TO.N,/NET_B_BUS*%
X146500000Y-75000000D03*
D13*
%TO.P,J11,PWR,S3_pin2-PWR(red)_PWR*%
%TO.N,/NET_BUS_6V*%
X149040000Y-75000000D03*
%TO.P,J11,SIG,S3_pin3-SIG(white)_SIG*%
%TO.N,/NET_S3_SIG*%
X151580000Y-75000000D03*
%TD*%
D12*
%TO.P,J10,GND,S2_pin1-GND(black)_GND*%
%TO.N,/NET_B_BUS*%
X131500000Y-75000000D03*
D13*
%TO.P,J10,PWR,S2_pin2-PWR(red)_PWR*%
%TO.N,/NET_BUS_6V*%
X134040000Y-75000000D03*
%TO.P,J10,SIG,S2_pin3-SIG(white)_SIG*%
%TO.N,/NET_S2_SIG*%
X136580000Y-75000000D03*
%TD*%
D14*
%TO.P,J1,1,Main_power_IN(feeds_U2)_1*%
%TO.N,/NET_A_BUS*%
X98000000Y-85000000D03*
D10*
%TO.P,J1,2,J1.2_2*%
%TO.N,/NET_B_BUS*%
X103000000Y-85000000D03*
%TD*%
D12*
%TO.P,J5,1,BTS2_pin1-R-PWM_1*%
%TO.N,/NET_BTS2_PIN1_RPWM*%
X109000000Y-111500000D03*
D13*
%TO.P,J5,2,BTS2_pin2-L-PWM_2*%
%TO.N,/NET_BTS2_PIN2_LPWM*%
X109000000Y-114040000D03*
%TO.P,J5,3,BTS2_pin3-R-EN(5V)_3*%
%TO.N,/NET_BUS_5V*%
X109000000Y-116580000D03*
%TO.P,J5,4,BTS2_pin4-L-EN(5V)_4*%
X109000000Y-119120000D03*
%TO.P,J5,7,BTS2_pin7-VCC(5V)_7*%
X109000000Y-121660000D03*
%TO.P,J5,8,BTS2_pin8-GND_8*%
%TO.N,/NET_B_BUS*%
X109000000Y-124200000D03*
%TD*%
D12*
%TO.P,J12,GND,S4_pin1-GND(black)_GND*%
%TO.N,/NET_B_BUS*%
X146460000Y-69500000D03*
D13*
%TO.P,J12,PWR,S4_pin2-PWR(red)_PWR*%
%TO.N,/NET_BUS_6V*%
X149000000Y-69500000D03*
%TO.P,J12,SIG,S4_pin3-SIG(white)_SIG*%
%TO.N,/NET_S4_SIG*%
X151540000Y-69500000D03*
%TD*%
D10*
%TO.P,J8,OUTN,U1_6V_OUT(servo_GND)_OUTN*%
%TO.N,/NET_B_BUS*%
X117500000Y-73500000D03*
D11*
%TO.P,J8,OUTP,U1_6V_OUT(servo_+)_OUTP*%
%TO.N,/NET_BUS_6V*%
X117500000Y-68500000D03*
%TD*%
D12*
%TO.P,J4,1,BTS1_pin1-R-PWM_1*%
%TO.N,/NET_BTS1_PIN1_RPWM*%
X109000000Y-131000000D03*
D13*
%TO.P,J4,2,BTS1_pin2-L-PWM_2*%
%TO.N,/NET_BTS1_PIN2_LPWM*%
X109000000Y-133540000D03*
%TO.P,J4,3,BTS1_pin3-R-EN(5V)_3*%
%TO.N,/NET_BUS_5V*%
X109000000Y-136080000D03*
%TO.P,J4,4,BTS1_pin4-L-EN(5V)_4*%
X109000000Y-138620000D03*
%TO.P,J4,7,BTS1_pin7-VCC(5V)_7*%
X109000000Y-141160000D03*
%TO.P,J4,8,BTS1_pin8-GND_8*%
%TO.N,/NET_B_BUS*%
X109000000Y-143700000D03*
%TD*%
D15*
%TO.P,J2,5V,ESP32_5V_IN_(socket_pin)_5V*%
%TO.N,/NET_BUS_5V*%
X119600000Y-137300000D03*
%TO.P,J2,7,ESP32_GPIO7-S2-LF-signal(socket)_7*%
%TO.N,/NET_S2_SIG*%
X119600000Y-101740000D03*
%TO.P,J2,10,ESP32_GPIO10-BTS2_pin1_R-PWM(socket)_10*%
%TO.N,/NET_BTS2_PIN1_RPWM*%
X119600000Y-124600000D03*
%TO.P,J2,11,ESP32_GPIO11-BTS2_pin2_L-PWM(socket)_11*%
%TO.N,/NET_BTS2_PIN2_LPWM*%
X119600000Y-127140000D03*
%TO.P,J2,12,ESP32_GPIO12-BTS1_pin1_R-PWM(socket)_12*%
%TO.N,/NET_BTS1_PIN1_RPWM*%
X119600000Y-129680000D03*
%TO.P,J2,13,ESP32_GPIO13-BTS1_pin2_L-PWM(socket)_13*%
%TO.N,/NET_BTS1_PIN2_LPWM*%
X119600000Y-132220000D03*
%TO.P,J2,21,ESP32_GPIO21-ELRS_RX_white(socket)_21*%
%TO.N,/NET_ELRS_RX*%
X145000000Y-129680000D03*
%TO.P,J2,38,ESP32_GPIO38-S4-LR_signal(socket)_38*%
%TO.N,/NET_S4_SIG*%
X145000000Y-109360000D03*
%TO.P,J2,41,ESP32_GPIO41-S3-RR_signal(socket)_41*%
%TO.N,/NET_S3_SIG*%
X145000000Y-101740000D03*
%TO.P,J2,42,ESP32_GPIO42-S1-RF_signal(socket)_42*%
%TO.N,/NET_S1_SIG*%
X145000000Y-99200000D03*
%TO.P,J2,47,ESP32_GPIO47-ELRS_TX_green(socket)_47*%
%TO.N,/NET_ELRS_TX*%
X145000000Y-127140000D03*
%TO.P,J2,GND_1,ESP32_ground\u002C_near_5V_IN_(socket_pin)_GND_1*%
%TO.N,/NET_B_BUS*%
X119600000Y-139840000D03*
%TO.P,J2,GND_2,ESP32_ground_near_TX(socket_pin)_GND_2*%
X145000000Y-86500000D03*
D16*
%TO.P,J2,NC_J1_1*%
%TO.N,N/C*%
X119600000Y-86500000D03*
D15*
%TO.P,J2,NC_J1_2*%
X119600000Y-89040000D03*
%TO.P,J2,NC_J1_3*%
X119600000Y-91580000D03*
%TO.P,J2,NC_J1_4*%
X119600000Y-94120000D03*
%TO.P,J2,NC_J1_5*%
X119600000Y-96660000D03*
%TO.P,J2,NC_J1_6*%
X119600000Y-99200000D03*
%TO.P,J2,NC_J1_8*%
X119600000Y-104280000D03*
%TO.P,J2,NC_J1_9*%
X119600000Y-106820000D03*
%TO.P,J2,NC_J1_10*%
X119600000Y-109360000D03*
%TO.P,J2,NC_J1_11*%
X119600000Y-111900000D03*
%TO.P,J2,NC_J1_12*%
X119600000Y-114440000D03*
%TO.P,J2,NC_J1_13*%
X119600000Y-116980000D03*
%TO.P,J2,NC_J1_14*%
X119600000Y-119520000D03*
%TO.P,J2,NC_J1_15*%
X119600000Y-122060000D03*
%TO.P,J2,NC_J1_20*%
X119600000Y-134760000D03*
%TO.P,J2,NC_J3_2*%
X145000000Y-89040000D03*
%TO.P,J2,NC_J3_3*%
X145000000Y-91580000D03*
%TO.P,J2,NC_J3_4*%
X145000000Y-94120000D03*
%TO.P,J2,NC_J3_5*%
X145000000Y-96660000D03*
%TO.P,J2,NC_J3_8*%
X145000000Y-104280000D03*
%TO.P,J2,NC_J3_9*%
X145000000Y-106820000D03*
%TO.P,J2,NC_J3_11*%
X145000000Y-111900000D03*
%TO.P,J2,NC_J3_12*%
X145000000Y-114440000D03*
%TO.P,J2,NC_J3_13*%
X145000000Y-116980000D03*
%TO.P,J2,NC_J3_14*%
X145000000Y-119520000D03*
%TO.P,J2,NC_J3_15*%
X145000000Y-122060000D03*
%TO.P,J2,NC_J3_16*%
X145000000Y-124600000D03*
%TO.P,J2,NC_J3_19*%
X145000000Y-132220000D03*
%TO.P,J2,NC_J3_20*%
X145000000Y-134760000D03*
%TO.P,J2,NC_J3_21*%
X145000000Y-137300000D03*
%TO.P,J2,NC_J3_22*%
X145000000Y-139840000D03*
%TD*%
D17*
%TO.P,J3,INN,U2_5V_IN-NEG_INN*%
%TO.N,/NET_B_BUS*%
X105000000Y-92500000D03*
D18*
%TO.P,J3,INP,U2_5V_IN-POS_INP*%
%TO.N,/NET_A_BUS*%
X98000000Y-92500000D03*
D17*
%TO.P,J3,OUTN,U2_5V_OUT-NEG_OUTN*%
%TO.N,/NET_B_BUS*%
X105000000Y-105500000D03*
%TO.P,J3,OUTP,U2_5V_OUT_POS_OUTP*%
%TO.N,/NET_BUS_5V*%
X98000000Y-105500000D03*
%TD*%
%TO.N,/NET_B_BUS*%
D19*
X157500000Y-124500000D02*
X157460000Y-124540000D01*
X105000000Y-105500000D02*
X105000000Y-101500000D01*
X109000000Y-124200000D02*
X94200000Y-124200000D01*
X117500000Y-73500000D02*
X108000000Y-73500000D01*
X153500000Y-124540000D02*
X157460000Y-124540000D01*
%TD*%
%TA.AperFunction,Conductor*%
%TO.N,/NET_BUS_5V*%
G36*
X97258448Y-104518907D02*
G01*
X97294412Y-104568407D01*
X97294412Y-104607195D01*
X97297977Y-104607476D01*
X97294396Y-104652974D01*
X97723632Y-105082210D01*
X97692993Y-105099901D01*
X97599901Y-105192993D01*
X97582210Y-105223632D01*
X97152975Y-104794397D01*
X97059192Y-104923481D01*
X96980588Y-105077751D01*
X96927084Y-105242420D01*
X96900000Y-105413424D01*
X96900000Y-105586575D01*
X96927084Y-105757579D01*
X96980588Y-105922248D01*
X97059195Y-106076523D01*
X97152974Y-106205602D01*
X97582210Y-105776365D01*
X97599901Y-105807007D01*
X97692993Y-105900099D01*
X97723631Y-105917788D01*
X97294396Y-106347024D01*
X97423471Y-106440801D01*
X97423475Y-106440804D01*
X97577751Y-106519411D01*
X97742420Y-106572915D01*
X97913425Y-106600000D01*
X98086575Y-106600000D01*
X98257579Y-106572915D01*
X98422248Y-106519411D01*
X98576524Y-106440804D01*
X98576528Y-106440802D01*
X98705602Y-106347024D01*
X98276367Y-105917789D01*
X98307007Y-105900099D01*
X98400099Y-105807007D01*
X98417789Y-105776367D01*
X98847024Y-106205602D01*
X98940802Y-106076528D01*
X98940804Y-106076524D01*
X99019411Y-105922248D01*
X99072915Y-105757579D01*
X99100000Y-105586575D01*
X99100000Y-105413424D01*
X99072915Y-105242420D01*
X99019411Y-105077751D01*
X98940804Y-104923475D01*
X98940801Y-104923471D01*
X98847024Y-104794396D01*
X98417788Y-105223631D01*
X98400099Y-105192993D01*
X98307007Y-105099901D01*
X98276365Y-105082210D01*
X98705602Y-104652974D01*
X98702022Y-104607476D01*
X98705589Y-104607195D01*
X98705580Y-104568431D01*
X98741531Y-104518922D01*
X98799717Y-104500000D01*
X104204651Y-104500000D01*
X104262842Y-104518907D01*
X104298806Y-104568407D01*
X104298806Y-104629593D01*
X104274656Y-104669001D01*
X104202826Y-104740832D01*
X104160585Y-104783073D01*
X104058766Y-104923214D01*
X103980125Y-105077558D01*
X103980123Y-105077561D01*
X103926598Y-105242293D01*
X103926597Y-105242297D01*
X103899500Y-105413385D01*
X103899500Y-105586614D01*
X103926597Y-105757702D01*
X103926598Y-105757706D01*
X103980123Y-105922438D01*
X103980125Y-105922441D01*
X104058635Y-106076528D01*
X104058768Y-106076788D01*
X104160586Y-106216928D01*
X104283072Y-106339414D01*
X104423212Y-106441232D01*
X104577555Y-106519873D01*
X104577557Y-106519873D01*
X104577558Y-106519874D01*
X104577561Y-106519876D01*
X104742293Y-106573401D01*
X104742297Y-106573402D01*
X104913386Y-106600500D01*
X104913389Y-106600500D01*
X105086614Y-106600500D01*
X105257702Y-106573402D01*
X105257706Y-106573401D01*
X105422438Y-106519876D01*
X105422440Y-106519874D01*
X105422445Y-106519873D01*
X105576788Y-106441232D01*
X105716928Y-106339414D01*
X105839414Y-106216928D01*
X105941232Y-106076788D01*
X106019873Y-105922445D01*
X106019874Y-105922440D01*
X106019876Y-105922438D01*
X106073401Y-105757706D01*
X106073402Y-105757702D01*
X106100500Y-105586614D01*
X106100500Y-105413385D01*
X106073402Y-105242297D01*
X106073401Y-105242293D01*
X106019876Y-105077561D01*
X106019874Y-105077558D01*
X106019873Y-105077557D01*
X106019873Y-105077555D01*
X105941232Y-104923212D01*
X105839414Y-104783072D01*
X105725343Y-104669001D01*
X105697568Y-104614487D01*
X105707139Y-104554055D01*
X105750404Y-104510790D01*
X105795349Y-104500000D01*
X118337274Y-104500000D01*
X118395465Y-104518907D01*
X118431427Y-104568405D01*
X118464115Y-104669004D01*
X118487453Y-104740832D01*
X118514745Y-104794397D01*
X118573240Y-104909199D01*
X118684310Y-105062073D01*
X118817927Y-105195690D01*
X118970801Y-105306760D01*
X119139168Y-105392547D01*
X119318882Y-105450940D01*
X119318883Y-105450940D01*
X119318886Y-105450941D01*
X119326954Y-105452219D01*
X119381471Y-105479996D01*
X119409248Y-105534513D01*
X119399677Y-105594945D01*
X119356412Y-105638210D01*
X119326954Y-105647781D01*
X119318886Y-105649058D01*
X119139167Y-105707453D01*
X118970803Y-105793238D01*
X118817928Y-105904309D01*
X118684309Y-106037928D01*
X118573238Y-106190803D01*
X118487453Y-106359167D01*
X118429058Y-106538886D01*
X118399500Y-106725515D01*
X118399500Y-106914484D01*
X118429058Y-107101113D01*
X118429060Y-107101118D01*
X118487453Y-107280832D01*
X118573240Y-107449199D01*
X118684310Y-107602073D01*
X118817927Y-107735690D01*
X118970801Y-107846760D01*
X119139168Y-107932547D01*
X119318882Y-107990940D01*
X119318883Y-107990940D01*
X119318886Y-107990941D01*
X119326954Y-107992219D01*
X119381471Y-108019996D01*
X119409248Y-108074513D01*
X119399677Y-108134945D01*
X119356412Y-108178210D01*
X119326954Y-108187781D01*
X119318886Y-108189058D01*
X119139167Y-108247453D01*
X118970803Y-108333238D01*
X118817928Y-108444309D01*
X118684309Y-108577928D01*
X118573238Y-108730803D01*
X118487453Y-108899167D01*
X118429058Y-109078886D01*
X118399500Y-109265515D01*
X118399500Y-109454484D01*
X118429058Y-109641113D01*
X118429060Y-109641118D01*
X118487453Y-109820832D01*
X118573240Y-109989199D01*
X118684310Y-110142073D01*
X118817927Y-110275690D01*
X118970801Y-110386760D01*
X119139168Y-110472547D01*
X119318882Y-110530940D01*
X119318883Y-110530940D01*
X119318886Y-110530941D01*
X119326954Y-110532219D01*
X119381471Y-110559996D01*
X119409248Y-110614513D01*
X119399677Y-110674945D01*
X119356412Y-110718210D01*
X119326954Y-110727781D01*
X119318886Y-110729058D01*
X119139167Y-110787453D01*
X118970803Y-110873238D01*
X118817928Y-110984309D01*
X118684309Y-111117928D01*
X118573238Y-111270803D01*
X118487453Y-111439167D01*
X118429058Y-111618886D01*
X118399500Y-111805515D01*
X118399500Y-111994484D01*
X118429058Y-112181113D01*
X118487453Y-112360832D01*
X118555587Y-112494554D01*
X118573240Y-112529199D01*
X118684310Y-112682073D01*
X118817927Y-112815690D01*
X118970801Y-112926760D01*
X119139168Y-113012547D01*
X119318882Y-113070940D01*
X119318883Y-113070940D01*
X119318886Y-113070941D01*
X119326954Y-113072219D01*
X119381471Y-113099996D01*
X119409248Y-113154513D01*
X119399677Y-113214945D01*
X119356412Y-113258210D01*
X119326954Y-113267781D01*
X119318886Y-113269058D01*
X119139167Y-113327453D01*
X118970803Y-113413238D01*
X118817928Y-113524309D01*
X118684309Y-113657928D01*
X118573238Y-113810803D01*
X118487453Y-113979167D01*
X118429058Y-114158886D01*
X118399500Y-114345515D01*
X118399500Y-114534484D01*
X118429058Y-114721113D01*
X118487453Y-114900832D01*
X118563523Y-115050130D01*
X118573240Y-115069199D01*
X118684310Y-115222073D01*
X118817927Y-115355690D01*
X118970801Y-115466760D01*
X119139168Y-115552547D01*
X119318882Y-115610940D01*
X119318883Y-115610940D01*
X119318886Y-115610941D01*
X119326954Y-115612219D01*
X119381471Y-115639996D01*
X119409248Y-115694513D01*
X119399677Y-115754945D01*
X119356412Y-115798210D01*
X119326954Y-115807781D01*
X119318886Y-115809058D01*
X119139167Y-115867453D01*
X118970803Y-115953238D01*
X118817928Y-116064309D01*
X118684309Y-116197928D01*
X118573238Y-116350803D01*
X118487453Y-116519167D01*
X118429058Y-116698886D01*
X118399500Y-116885515D01*
X118399500Y-117074484D01*
X118429058Y-117261113D01*
X118472753Y-117395591D01*
X118487453Y-117440832D01*
X118573240Y-117609199D01*
X118684310Y-117762073D01*
X118817927Y-117895690D01*
X118970801Y-118006760D01*
X119139168Y-118092547D01*
X119318882Y-118150940D01*
X119318883Y-118150940D01*
X119318886Y-118150941D01*
X119326954Y-118152219D01*
X119381471Y-118179996D01*
X119409248Y-118234513D01*
X119399677Y-118294945D01*
X119356412Y-118338210D01*
X119326954Y-118347781D01*
X119318886Y-118349058D01*
X119139167Y-118407453D01*
X118970803Y-118493238D01*
X118817928Y-118604309D01*
X118684309Y-118737928D01*
X118573238Y-118890803D01*
X118487453Y-119059167D01*
X118429058Y-119238886D01*
X118399500Y-119425515D01*
X118399500Y-119614484D01*
X118429058Y-119801113D01*
X118472753Y-119935591D01*
X118487453Y-119980832D01*
X118573240Y-120149199D01*
X118684310Y-120302073D01*
X118817927Y-120435690D01*
X118970801Y-120546760D01*
X119139168Y-120632547D01*
X119318882Y-120690940D01*
X119318883Y-120690940D01*
X119318886Y-120690941D01*
X119326954Y-120692219D01*
X119381471Y-120719996D01*
X119409248Y-120774513D01*
X119399677Y-120834945D01*
X119356412Y-120878210D01*
X119326954Y-120887781D01*
X119318886Y-120889058D01*
X119139167Y-120947453D01*
X118970803Y-121033238D01*
X118817928Y-121144309D01*
X118684309Y-121277928D01*
X118573238Y-121430803D01*
X118487453Y-121599167D01*
X118429058Y-121778886D01*
X118399500Y-121965515D01*
X118399500Y-122154484D01*
X118429058Y-122341113D01*
X118472753Y-122475591D01*
X118487453Y-122520832D01*
X118573240Y-122689199D01*
X118684310Y-122842073D01*
X118817927Y-122975690D01*
X118970801Y-123086760D01*
X119139168Y-123172547D01*
X119318882Y-123230940D01*
X119318883Y-123230940D01*
X119318886Y-123230941D01*
X119326954Y-123232219D01*
X119381471Y-123259996D01*
X119409248Y-123314513D01*
X119399677Y-123374945D01*
X119356412Y-123418210D01*
X119326954Y-123427781D01*
X119318886Y-123429058D01*
X119139167Y-123487453D01*
X118970803Y-123573238D01*
X118817928Y-123684309D01*
X118684309Y-123817928D01*
X118573238Y-123970803D01*
X118487453Y-124139167D01*
X118429058Y-124318886D01*
X118399500Y-124505515D01*
X118399500Y-124694484D01*
X118429058Y-124881113D01*
X118487453Y-125060832D01*
X118563523Y-125210130D01*
X118573240Y-125229199D01*
X118684310Y-125382073D01*
X118817927Y-125515690D01*
X118970801Y-125626760D01*
X119139168Y-125712547D01*
X119318882Y-125770940D01*
X119318883Y-125770940D01*
X119318886Y-125770941D01*
X119326954Y-125772219D01*
X119381471Y-125799996D01*
X119409248Y-125854513D01*
X119399677Y-125914945D01*
X119356412Y-125958210D01*
X119326954Y-125967781D01*
X119318886Y-125969058D01*
X119139167Y-126027453D01*
X118970803Y-126113238D01*
X118817928Y-126224309D01*
X118684309Y-126357928D01*
X118573238Y-126510803D01*
X118487453Y-126679167D01*
X118429058Y-126858886D01*
X118399500Y-127045515D01*
X118399500Y-127234484D01*
X118429058Y-127421113D01*
X118487453Y-127600832D01*
X118563281Y-127749655D01*
X118573240Y-127769199D01*
X118684310Y-127922073D01*
X118817927Y-128055690D01*
X118970801Y-128166760D01*
X119139168Y-128252547D01*
X119318882Y-128310940D01*
X119318883Y-128310940D01*
X119318886Y-128310941D01*
X119326954Y-128312219D01*
X119381471Y-128339996D01*
X119409248Y-128394513D01*
X119399677Y-128454945D01*
X119356412Y-128498210D01*
X119326954Y-128507781D01*
X119318886Y-128509058D01*
X119139167Y-128567453D01*
X118970803Y-128653238D01*
X118817928Y-128764309D01*
X118684309Y-128897928D01*
X118573238Y-129050803D01*
X118487453Y-129219167D01*
X118429058Y-129398886D01*
X118399500Y-129585515D01*
X118399500Y-129774484D01*
X118429058Y-129961113D01*
X118487453Y-130140832D01*
X118563281Y-130289655D01*
X118573240Y-130309199D01*
X118684310Y-130462073D01*
X118817927Y-130595690D01*
X118970801Y-130706760D01*
X119139168Y-130792547D01*
X119318882Y-130850940D01*
X119318883Y-130850940D01*
X119318886Y-130850941D01*
X119326954Y-130852219D01*
X119381471Y-130879996D01*
X119409248Y-130934513D01*
X119399677Y-130994945D01*
X119356412Y-131038210D01*
X119326954Y-131047781D01*
X119318886Y-131049058D01*
X119139167Y-131107453D01*
X118970803Y-131193238D01*
X118817928Y-131304309D01*
X118684309Y-131437928D01*
X118573238Y-131590803D01*
X118487453Y-131759167D01*
X118429058Y-131938886D01*
X118399500Y-132125515D01*
X118399500Y-132314484D01*
X118429058Y-132501113D01*
X118429060Y-132501118D01*
X118487453Y-132680832D01*
X118573240Y-132849199D01*
X118684310Y-133002073D01*
X118817927Y-133135690D01*
X118970801Y-133246760D01*
X119139168Y-133332547D01*
X119318882Y-133390940D01*
X119318883Y-133390940D01*
X119318886Y-133390941D01*
X119326954Y-133392219D01*
X119381471Y-133419996D01*
X119409248Y-133474513D01*
X119399677Y-133534945D01*
X119356412Y-133578210D01*
X119326954Y-133587781D01*
X119318886Y-133589058D01*
X119139167Y-133647453D01*
X118970803Y-133733238D01*
X118817928Y-133844309D01*
X118684309Y-133977928D01*
X118573238Y-134130803D01*
X118487453Y-134299167D01*
X118429058Y-134478886D01*
X118399500Y-134665515D01*
X118399500Y-134854484D01*
X118429058Y-135041113D01*
X118487453Y-135220832D01*
X118510887Y-135266825D01*
X118573240Y-135389199D01*
X118684310Y-135542073D01*
X118817927Y-135675690D01*
X118970801Y-135786760D01*
X119139168Y-135872547D01*
X119318882Y-135930940D01*
X119318885Y-135930940D01*
X119318887Y-135930941D01*
X119328551Y-135932472D01*
X119383068Y-135960248D01*
X119410847Y-136014764D01*
X119401276Y-136075196D01*
X119358013Y-136118462D01*
X119328555Y-136128034D01*
X119319001Y-136129547D01*
X119139364Y-136187914D01*
X118971063Y-136273667D01*
X118971059Y-136273669D01*
X118818257Y-136384686D01*
X118684686Y-136518257D01*
X118573669Y-136671059D01*
X118573667Y-136671063D01*
X118487914Y-136839364D01*
X118429546Y-137019003D01*
X118400880Y-137200000D01*
X119057393Y-137200000D01*
X119050000Y-137227591D01*
X119050000Y-137372409D01*
X119057393Y-137400000D01*
X118400880Y-137400000D01*
X118429546Y-137580996D01*
X118487914Y-137760635D01*
X118573667Y-137928936D01*
X118573669Y-137928940D01*
X118684686Y-138081742D01*
X118818257Y-138215313D01*
X118971059Y-138326330D01*
X118971063Y-138326332D01*
X119139364Y-138412085D01*
X119319000Y-138470452D01*
X119328548Y-138471964D01*
X119383066Y-138499739D01*
X119410846Y-138554254D01*
X119401278Y-138614686D01*
X119358016Y-138657953D01*
X119328558Y-138667526D01*
X119318888Y-138669057D01*
X119139167Y-138727453D01*
X118970803Y-138813238D01*
X118817928Y-138924309D01*
X118684309Y-139057928D01*
X118573238Y-139210803D01*
X118487453Y-139379167D01*
X118429058Y-139558886D01*
X118399500Y-139745515D01*
X118399500Y-139934484D01*
X118429058Y-140121113D01*
X118487453Y-140300832D01*
X118510887Y-140346825D01*
X118573240Y-140469199D01*
X118684310Y-140622073D01*
X118817927Y-140755690D01*
X118970801Y-140866760D01*
X119139168Y-140952547D01*
X119318882Y-141010940D01*
X119318883Y-141010940D01*
X119318886Y-141010941D01*
X119505516Y-141040500D01*
X119505519Y-141040500D01*
X119694484Y-141040500D01*
X119881113Y-141010941D01*
X119881114Y-141010940D01*
X119881118Y-141010940D01*
X120060832Y-140952547D01*
X120229199Y-140866760D01*
X120382073Y-140755690D01*
X120515690Y-140622073D01*
X120626760Y-140469199D01*
X120712547Y-140300832D01*
X120770940Y-140121118D01*
X120800500Y-139934481D01*
X120800500Y-139745519D01*
X120800500Y-139745515D01*
X120770941Y-139558886D01*
X120768215Y-139550495D01*
X120712547Y-139379168D01*
X120626760Y-139210801D01*
X120515690Y-139057927D01*
X120382073Y-138924310D01*
X120229199Y-138813240D01*
X120229198Y-138813239D01*
X120229196Y-138813238D01*
X120060832Y-138727453D01*
X119881110Y-138669057D01*
X119871442Y-138667526D01*
X119816926Y-138639747D01*
X119789151Y-138585229D01*
X119798725Y-138524797D01*
X119841992Y-138481534D01*
X119871452Y-138471964D01*
X119880998Y-138470452D01*
X120060635Y-138412085D01*
X120228936Y-138326332D01*
X120228940Y-138326330D01*
X120381742Y-138215313D01*
X120515313Y-138081742D01*
X120626330Y-137928940D01*
X120626332Y-137928936D01*
X120712085Y-137760635D01*
X120770453Y-137580996D01*
X120799120Y-137400000D01*
X120142607Y-137400000D01*
X120150000Y-137372409D01*
X120150000Y-137227591D01*
X120142607Y-137200000D01*
X120799120Y-137200000D01*
X120770453Y-137019003D01*
X120712085Y-136839364D01*
X120626332Y-136671063D01*
X120626330Y-136671059D01*
X120515313Y-136518257D01*
X120381742Y-136384686D01*
X120228940Y-136273669D01*
X120228936Y-136273667D01*
X120060635Y-136187914D01*
X119880997Y-136129547D01*
X119871445Y-136128034D01*
X119816929Y-136100256D01*
X119789152Y-136045739D01*
X119798724Y-135985307D01*
X119841989Y-135942043D01*
X119871446Y-135932471D01*
X119881118Y-135930940D01*
X120060832Y-135872547D01*
X120229199Y-135786760D01*
X120382073Y-135675690D01*
X120515690Y-135542073D01*
X120626760Y-135389199D01*
X120712547Y-135220832D01*
X120770940Y-135041118D01*
X120800500Y-134854481D01*
X120800500Y-134665519D01*
X120800500Y-134665515D01*
X120770941Y-134478886D01*
X120770940Y-134478882D01*
X120712547Y-134299168D01*
X120626760Y-134130801D01*
X120515690Y-133977927D01*
X120382073Y-133844310D01*
X120229199Y-133733240D01*
X120229198Y-133733239D01*
X120229196Y-133733238D01*
X120060832Y-133647453D01*
X119881113Y-133589058D01*
X119873046Y-133587781D01*
X119818529Y-133560004D01*
X119790751Y-133505488D01*
X119800322Y-133445056D01*
X119843586Y-133401791D01*
X119873046Y-133392219D01*
X119881113Y-133390941D01*
X119881114Y-133390940D01*
X119881118Y-133390940D01*
X120060832Y-133332547D01*
X120229199Y-133246760D01*
X120382073Y-133135690D01*
X120515690Y-133002073D01*
X120626760Y-132849199D01*
X120712547Y-132680832D01*
X120770940Y-132501118D01*
X120800500Y-132314481D01*
X120800500Y-132125519D01*
X120800500Y-132125515D01*
X120770941Y-131938886D01*
X120748480Y-131869758D01*
X120712547Y-131759168D01*
X120626760Y-131590801D01*
X120515690Y-131437927D01*
X120382073Y-131304310D01*
X120229199Y-131193240D01*
X120229198Y-131193239D01*
X120229196Y-131193238D01*
X120060832Y-131107453D01*
X119881113Y-131049058D01*
X119873046Y-131047781D01*
X119818529Y-131020004D01*
X119790751Y-130965488D01*
X119800322Y-130905056D01*
X119843586Y-130861791D01*
X119873046Y-130852219D01*
X119881113Y-130850941D01*
X119881114Y-130850940D01*
X119881118Y-130850940D01*
X120060832Y-130792547D01*
X120229199Y-130706760D01*
X120382073Y-130595690D01*
X120515690Y-130462073D01*
X120626760Y-130309199D01*
X120712547Y-130140832D01*
X120770940Y-129961118D01*
X120800500Y-129774481D01*
X120800500Y-129585519D01*
X120800500Y-129585515D01*
X120770941Y-129398886D01*
X120770940Y-129398882D01*
X120712547Y-129219168D01*
X120626760Y-129050801D01*
X120515690Y-128897927D01*
X120382073Y-128764310D01*
X120229199Y-128653240D01*
X120229198Y-128653239D01*
X120229196Y-128653238D01*
X120060832Y-128567453D01*
X119881113Y-128509058D01*
X119873046Y-128507781D01*
X119818529Y-128480004D01*
X119790751Y-128425488D01*
X119800322Y-128365056D01*
X119843586Y-128321791D01*
X119873046Y-128312219D01*
X119881113Y-128310941D01*
X119881114Y-128310940D01*
X119881118Y-128310940D01*
X120060832Y-128252547D01*
X120229199Y-128166760D01*
X120382073Y-128055690D01*
X120515690Y-127922073D01*
X120626760Y-127769199D01*
X120712547Y-127600832D01*
X120770940Y-127421118D01*
X120800500Y-127234481D01*
X120800500Y-127045519D01*
X120800500Y-127045515D01*
X120770941Y-126858886D01*
X120770940Y-126858882D01*
X120712547Y-126679168D01*
X120626760Y-126510801D01*
X120515690Y-126357927D01*
X120382073Y-126224310D01*
X120229199Y-126113240D01*
X120229198Y-126113239D01*
X120229196Y-126113238D01*
X120060832Y-126027453D01*
X119881113Y-125969058D01*
X119873046Y-125967781D01*
X119818529Y-125940004D01*
X119790751Y-125885488D01*
X119800322Y-125825056D01*
X119843586Y-125781791D01*
X119873046Y-125772219D01*
X119881113Y-125770941D01*
X119881114Y-125770940D01*
X119881118Y-125770940D01*
X120060832Y-125712547D01*
X120229199Y-125626760D01*
X120382073Y-125515690D01*
X120515690Y-125382073D01*
X120626760Y-125229199D01*
X120712547Y-125060832D01*
X120770940Y-124881118D01*
X120780617Y-124820021D01*
X120800500Y-124694484D01*
X120800500Y-124505515D01*
X120770941Y-124318886D01*
X120770000Y-124315989D01*
X120712547Y-124139168D01*
X120626760Y-123970801D01*
X120515690Y-123817927D01*
X120382073Y-123684310D01*
X120229199Y-123573240D01*
X120229198Y-123573239D01*
X120229196Y-123573238D01*
X120060832Y-123487453D01*
X119881113Y-123429058D01*
X119873046Y-123427781D01*
X119818529Y-123400004D01*
X119790751Y-123345488D01*
X119800322Y-123285056D01*
X119843586Y-123241791D01*
X119873046Y-123232219D01*
X119881113Y-123230941D01*
X119881114Y-123230940D01*
X119881118Y-123230940D01*
X120060832Y-123172547D01*
X120229199Y-123086760D01*
X120382073Y-122975690D01*
X120515690Y-122842073D01*
X120626760Y-122689199D01*
X120712547Y-122520832D01*
X120770940Y-122341118D01*
X120776343Y-122307007D01*
X120800500Y-122154484D01*
X120800500Y-121965515D01*
X120770941Y-121778886D01*
X120765915Y-121763418D01*
X120712547Y-121599168D01*
X120626760Y-121430801D01*
X120515690Y-121277927D01*
X120382073Y-121144310D01*
X120229199Y-121033240D01*
X120229198Y-121033239D01*
X120229196Y-121033238D01*
X120060832Y-120947453D01*
X119881113Y-120889058D01*
X119873046Y-120887781D01*
X119818529Y-120860004D01*
X119790751Y-120805488D01*
X119800322Y-120745056D01*
X119843586Y-120701791D01*
X119873046Y-120692219D01*
X119881113Y-120690941D01*
X119881114Y-120690940D01*
X119881118Y-120690940D01*
X120060832Y-120632547D01*
X120229199Y-120546760D01*
X120382073Y-120435690D01*
X120515690Y-120302073D01*
X120626760Y-120149199D01*
X120712547Y-119980832D01*
X120770940Y-119801118D01*
X120800042Y-119617374D01*
X120800500Y-119614484D01*
X120800500Y-119425515D01*
X120770941Y-119238886D01*
X120765915Y-119223418D01*
X120712547Y-119059168D01*
X120626760Y-118890801D01*
X120515690Y-118737927D01*
X120382073Y-118604310D01*
X120229199Y-118493240D01*
X120229198Y-118493239D01*
X120229196Y-118493238D01*
X120060832Y-118407453D01*
X119881113Y-118349058D01*
X119873046Y-118347781D01*
X119818529Y-118320004D01*
X119790751Y-118265488D01*
X119800322Y-118205056D01*
X119843586Y-118161791D01*
X119873046Y-118152219D01*
X119881113Y-118150941D01*
X119881114Y-118150940D01*
X119881118Y-118150940D01*
X120060832Y-118092547D01*
X120229199Y-118006760D01*
X120382073Y-117895690D01*
X120515690Y-117762073D01*
X120626760Y-117609199D01*
X120712547Y-117440832D01*
X120770940Y-117261118D01*
X120800042Y-117077374D01*
X120800500Y-117074484D01*
X120800500Y-116885515D01*
X120770941Y-116698886D01*
X120765915Y-116683418D01*
X120712547Y-116519168D01*
X120626760Y-116350801D01*
X120515690Y-116197927D01*
X120382073Y-116064310D01*
X120229199Y-115953240D01*
X120229198Y-115953239D01*
X120229196Y-115953238D01*
X120060832Y-115867453D01*
X119881113Y-115809058D01*
X119873046Y-115807781D01*
X119818529Y-115780004D01*
X119790751Y-115725488D01*
X119800322Y-115665056D01*
X119843586Y-115621791D01*
X119873046Y-115612219D01*
X119881113Y-115610941D01*
X119881114Y-115610940D01*
X119881118Y-115610940D01*
X120060832Y-115552547D01*
X120229199Y-115466760D01*
X120382073Y-115355690D01*
X120515690Y-115222073D01*
X120626760Y-115069199D01*
X120712547Y-114900832D01*
X120770940Y-114721118D01*
X120772756Y-114709651D01*
X120800500Y-114534484D01*
X120800500Y-114345515D01*
X120770941Y-114158886D01*
X120765931Y-114143467D01*
X120712547Y-113979168D01*
X120626760Y-113810801D01*
X120515690Y-113657927D01*
X120382073Y-113524310D01*
X120229199Y-113413240D01*
X120229198Y-113413239D01*
X120229196Y-113413238D01*
X120060832Y-113327453D01*
X119881113Y-113269058D01*
X119873046Y-113267781D01*
X119818529Y-113240004D01*
X119790751Y-113185488D01*
X119800322Y-113125056D01*
X119843586Y-113081791D01*
X119873046Y-113072219D01*
X119881113Y-113070941D01*
X119881114Y-113070940D01*
X119881118Y-113070940D01*
X120060832Y-113012547D01*
X120229199Y-112926760D01*
X120382073Y-112815690D01*
X120515690Y-112682073D01*
X120626760Y-112529199D01*
X120712547Y-112360832D01*
X120770940Y-112181118D01*
X120800500Y-111994481D01*
X120800500Y-111805519D01*
X120800500Y-111805515D01*
X120770941Y-111618886D01*
X120770940Y-111618882D01*
X120712547Y-111439168D01*
X120626760Y-111270801D01*
X120515690Y-111117927D01*
X120382073Y-110984310D01*
X120229199Y-110873240D01*
X120229198Y-110873239D01*
X120229196Y-110873238D01*
X120060832Y-110787453D01*
X119881113Y-110729058D01*
X119873046Y-110727781D01*
X119818529Y-110700004D01*
X119790751Y-110645488D01*
X119800322Y-110585056D01*
X119843586Y-110541791D01*
X119873046Y-110532219D01*
X119881113Y-110530941D01*
X119881114Y-110530940D01*
X119881118Y-110530940D01*
X120060832Y-110472547D01*
X120229199Y-110386760D01*
X120382073Y-110275690D01*
X120515690Y-110142073D01*
X120626760Y-109989199D01*
X120712547Y-109820832D01*
X120770940Y-109641118D01*
X120800500Y-109454481D01*
X120800500Y-109265519D01*
X120800500Y-109265515D01*
X120770941Y-109078886D01*
X120770940Y-109078882D01*
X120712547Y-108899168D01*
X120626760Y-108730801D01*
X120515690Y-108577927D01*
X120382073Y-108444310D01*
X120229199Y-108333240D01*
X120229198Y-108333239D01*
X120229196Y-108333238D01*
X120060832Y-108247453D01*
X119881113Y-108189058D01*
X119873046Y-108187781D01*
X119818529Y-108160004D01*
X119790751Y-108105488D01*
X119800322Y-108045056D01*
X119843586Y-108001791D01*
X119873046Y-107992219D01*
X119881113Y-107990941D01*
X119881114Y-107990940D01*
X119881118Y-107990940D01*
X120060832Y-107932547D01*
X120229199Y-107846760D01*
X120382073Y-107735690D01*
X120515690Y-107602073D01*
X120626760Y-107449199D01*
X120712547Y-107280832D01*
X120770940Y-107101118D01*
X120800500Y-106914481D01*
X120800500Y-106725519D01*
X120800500Y-106725515D01*
X120770941Y-106538886D01*
X120770940Y-106538882D01*
X120712547Y-106359168D01*
X120626760Y-106190801D01*
X120515690Y-106037927D01*
X120382073Y-105904310D01*
X120229199Y-105793240D01*
X120229198Y-105793239D01*
X120229196Y-105793238D01*
X120060832Y-105707453D01*
X119881113Y-105649058D01*
X119873046Y-105647781D01*
X119818529Y-105620004D01*
X119790751Y-105565488D01*
X119800322Y-105505056D01*
X119843586Y-105461791D01*
X119873046Y-105452219D01*
X119881113Y-105450941D01*
X119881114Y-105450940D01*
X119881118Y-105450940D01*
X120060832Y-105392547D01*
X120229199Y-105306760D01*
X120382073Y-105195690D01*
X120515690Y-105062073D01*
X120626760Y-104909199D01*
X120712547Y-104740832D01*
X120768572Y-104568405D01*
X120804535Y-104518907D01*
X120862726Y-104500000D01*
X143737274Y-104500000D01*
X143795465Y-104518907D01*
X143831427Y-104568405D01*
X143864115Y-104669004D01*
X143887453Y-104740832D01*
X143914745Y-104794397D01*
X143973240Y-104909199D01*
X144084310Y-105062073D01*
X144217927Y-105195690D01*
X144370801Y-105306760D01*
X144539168Y-105392547D01*
X144718882Y-105450940D01*
X144718883Y-105450940D01*
X144718886Y-105450941D01*
X144726954Y-105452219D01*
X144781471Y-105479996D01*
X144809248Y-105534513D01*
X144799677Y-105594945D01*
X144756412Y-105638210D01*
X144726954Y-105647781D01*
X144718886Y-105649058D01*
X144539167Y-105707453D01*
X144370803Y-105793238D01*
X144217928Y-105904309D01*
X144084309Y-106037928D01*
X143973238Y-106190803D01*
X143887453Y-106359167D01*
X143829058Y-106538886D01*
X143799500Y-106725515D01*
X143799500Y-106914484D01*
X143829058Y-107101113D01*
X143829060Y-107101118D01*
X143887453Y-107280832D01*
X143973240Y-107449199D01*
X144084310Y-107602073D01*
X144217927Y-107735690D01*
X144370801Y-107846760D01*
X144539168Y-107932547D01*
X144718882Y-107990940D01*
X144718883Y-107990940D01*
X144718886Y-107990941D01*
X144726954Y-107992219D01*
X144781471Y-108019996D01*
X144809248Y-108074513D01*
X144799677Y-108134945D01*
X144756412Y-108178210D01*
X144726954Y-108187781D01*
X144718886Y-108189058D01*
X144539167Y-108247453D01*
X144370803Y-108333238D01*
X144217928Y-108444309D01*
X144084309Y-108577928D01*
X143973238Y-108730803D01*
X143887453Y-108899167D01*
X143829058Y-109078886D01*
X143799500Y-109265515D01*
X143799500Y-109454484D01*
X143829058Y-109641113D01*
X143829060Y-109641118D01*
X143887453Y-109820832D01*
X143973240Y-109989199D01*
X144084310Y-110142073D01*
X144217927Y-110275690D01*
X144370801Y-110386760D01*
X144539168Y-110472547D01*
X144718882Y-110530940D01*
X144718883Y-110530940D01*
X144718886Y-110530941D01*
X144726954Y-110532219D01*
X144781471Y-110559996D01*
X144809248Y-110614513D01*
X144799677Y-110674945D01*
X144756412Y-110718210D01*
X144726954Y-110727781D01*
X144718886Y-110729058D01*
X144539167Y-110787453D01*
X144370803Y-110873238D01*
X144217928Y-110984309D01*
X144084309Y-111117928D01*
X143973238Y-111270803D01*
X143887453Y-111439167D01*
X143829058Y-111618886D01*
X143799500Y-111805515D01*
X143799500Y-111994484D01*
X143829058Y-112181113D01*
X143887453Y-112360832D01*
X143955587Y-112494554D01*
X143973240Y-112529199D01*
X144084310Y-112682073D01*
X144217927Y-112815690D01*
X144370801Y-112926760D01*
X144539168Y-113012547D01*
X144718882Y-113070940D01*
X144718883Y-113070940D01*
X144718886Y-113070941D01*
X144726954Y-113072219D01*
X144781471Y-113099996D01*
X144809248Y-113154513D01*
X144799677Y-113214945D01*
X144756412Y-113258210D01*
X144726954Y-113267781D01*
X144718886Y-113269058D01*
X144539167Y-113327453D01*
X144370803Y-113413238D01*
X144217928Y-113524309D01*
X144084309Y-113657928D01*
X143973238Y-113810803D01*
X143887453Y-113979167D01*
X143829058Y-114158886D01*
X143799500Y-114345515D01*
X143799500Y-114534484D01*
X143829058Y-114721113D01*
X143887453Y-114900832D01*
X143963523Y-115050130D01*
X143973240Y-115069199D01*
X144084310Y-115222073D01*
X144217927Y-115355690D01*
X144370801Y-115466760D01*
X144539168Y-115552547D01*
X144718882Y-115610940D01*
X144718883Y-115610940D01*
X144718886Y-115610941D01*
X144726954Y-115612219D01*
X144781471Y-115639996D01*
X144809248Y-115694513D01*
X144799677Y-115754945D01*
X144756412Y-115798210D01*
X144726954Y-115807781D01*
X144718886Y-115809058D01*
X144539167Y-115867453D01*
X144370803Y-115953238D01*
X144217928Y-116064309D01*
X144084309Y-116197928D01*
X143973238Y-116350803D01*
X143887453Y-116519167D01*
X143829058Y-116698886D01*
X143799500Y-116885515D01*
X143799500Y-117074484D01*
X143829058Y-117261113D01*
X143872753Y-117395591D01*
X143887453Y-117440832D01*
X143973240Y-117609199D01*
X144084310Y-117762073D01*
X144217927Y-117895690D01*
X144370801Y-118006760D01*
X144539168Y-118092547D01*
X144718882Y-118150940D01*
X144718883Y-118150940D01*
X144718886Y-118150941D01*
X144726954Y-118152219D01*
X144781471Y-118179996D01*
X144809248Y-118234513D01*
X144799677Y-118294945D01*
X144756412Y-118338210D01*
X144726954Y-118347781D01*
X144718886Y-118349058D01*
X144539167Y-118407453D01*
X144370803Y-118493238D01*
X144217928Y-118604309D01*
X144084309Y-118737928D01*
X143973238Y-118890803D01*
X143887453Y-119059167D01*
X143829058Y-119238886D01*
X143799500Y-119425515D01*
X143799500Y-119614484D01*
X143829058Y-119801113D01*
X143872753Y-119935591D01*
X143887453Y-119980832D01*
X143973240Y-120149199D01*
X144084310Y-120302073D01*
X144217927Y-120435690D01*
X144370801Y-120546760D01*
X144539168Y-120632547D01*
X144718882Y-120690940D01*
X144718883Y-120690940D01*
X144718886Y-120690941D01*
X144726954Y-120692219D01*
X144781471Y-120719996D01*
X144809248Y-120774513D01*
X144799677Y-120834945D01*
X144756412Y-120878210D01*
X144726954Y-120887781D01*
X144718886Y-120889058D01*
X144539167Y-120947453D01*
X144370803Y-121033238D01*
X144217928Y-121144309D01*
X144084309Y-121277928D01*
X143973238Y-121430803D01*
X143887453Y-121599167D01*
X143829058Y-121778886D01*
X143799500Y-121965515D01*
X143799500Y-122154484D01*
X143829058Y-122341113D01*
X143872753Y-122475591D01*
X143887453Y-122520832D01*
X143973240Y-122689199D01*
X144084310Y-122842073D01*
X144217927Y-122975690D01*
X144370801Y-123086760D01*
X144539168Y-123172547D01*
X144718882Y-123230940D01*
X144718883Y-123230940D01*
X144718886Y-123230941D01*
X144726954Y-123232219D01*
X144781471Y-123259996D01*
X144809248Y-123314513D01*
X144799677Y-123374945D01*
X144756412Y-123418210D01*
X144726954Y-123427781D01*
X144718886Y-123429058D01*
X144539167Y-123487453D01*
X144370803Y-123573238D01*
X144217928Y-123684309D01*
X144084309Y-123817928D01*
X143973238Y-123970803D01*
X143887453Y-124139167D01*
X143829058Y-124318886D01*
X143799500Y-124505515D01*
X143799500Y-124694484D01*
X143829058Y-124881113D01*
X143887453Y-125060832D01*
X143963523Y-125210130D01*
X143973240Y-125229199D01*
X144084310Y-125382073D01*
X144217927Y-125515690D01*
X144370801Y-125626760D01*
X144539168Y-125712547D01*
X144718882Y-125770940D01*
X144718883Y-125770940D01*
X144718886Y-125770941D01*
X144726954Y-125772219D01*
X144781471Y-125799996D01*
X144809248Y-125854513D01*
X144799677Y-125914945D01*
X144756412Y-125958210D01*
X144726954Y-125967781D01*
X144718886Y-125969058D01*
X144539167Y-126027453D01*
X144370803Y-126113238D01*
X144217928Y-126224309D01*
X144084309Y-126357928D01*
X143973238Y-126510803D01*
X143887453Y-126679167D01*
X143829058Y-126858886D01*
X143799500Y-127045515D01*
X143799500Y-127234484D01*
X143829058Y-127421113D01*
X143887453Y-127600832D01*
X143963281Y-127749655D01*
X143973240Y-127769199D01*
X144084310Y-127922073D01*
X144217927Y-128055690D01*
X144370801Y-128166760D01*
X144539168Y-128252547D01*
X144718882Y-128310940D01*
X144718883Y-128310940D01*
X144718886Y-128310941D01*
X144726954Y-128312219D01*
X144781471Y-128339996D01*
X144809248Y-128394513D01*
X144799677Y-128454945D01*
X144756412Y-128498210D01*
X144726954Y-128507781D01*
X144718886Y-128509058D01*
X144539167Y-128567453D01*
X144370803Y-128653238D01*
X144217928Y-128764309D01*
X144084309Y-128897928D01*
X143973238Y-129050803D01*
X143887453Y-129219167D01*
X143829058Y-129398886D01*
X143799500Y-129585515D01*
X143799500Y-129774484D01*
X143829058Y-129961113D01*
X143887453Y-130140832D01*
X143963281Y-130289655D01*
X143973240Y-130309199D01*
X144084310Y-130462073D01*
X144217927Y-130595690D01*
X144370801Y-130706760D01*
X144539168Y-130792547D01*
X144718882Y-130850940D01*
X144718883Y-130850940D01*
X144718886Y-130850941D01*
X144726954Y-130852219D01*
X144781471Y-130879996D01*
X144809248Y-130934513D01*
X144799677Y-130994945D01*
X144756412Y-131038210D01*
X144726954Y-131047781D01*
X144718886Y-131049058D01*
X144539167Y-131107453D01*
X144370803Y-131193238D01*
X144217928Y-131304309D01*
X144084309Y-131437928D01*
X143973238Y-131590803D01*
X143887453Y-131759167D01*
X143829058Y-131938886D01*
X143799500Y-132125515D01*
X143799500Y-132314484D01*
X143829058Y-132501113D01*
X143829060Y-132501118D01*
X143887453Y-132680832D01*
X143973240Y-132849199D01*
X144084310Y-133002073D01*
X144217927Y-133135690D01*
X144370801Y-133246760D01*
X144539168Y-133332547D01*
X144718882Y-133390940D01*
X144718883Y-133390940D01*
X144718886Y-133390941D01*
X144726954Y-133392219D01*
X144781471Y-133419996D01*
X144809248Y-133474513D01*
X144799677Y-133534945D01*
X144756412Y-133578210D01*
X144726954Y-133587781D01*
X144718886Y-133589058D01*
X144539167Y-133647453D01*
X144370803Y-133733238D01*
X144217928Y-133844309D01*
X144084309Y-133977928D01*
X143973238Y-134130803D01*
X143887453Y-134299167D01*
X143829058Y-134478886D01*
X143799500Y-134665515D01*
X143799500Y-134854484D01*
X143829058Y-135041113D01*
X143887453Y-135220832D01*
X143910887Y-135266825D01*
X143973240Y-135389199D01*
X144084310Y-135542073D01*
X144217927Y-135675690D01*
X144370801Y-135786760D01*
X144539168Y-135872547D01*
X144718882Y-135930940D01*
X144718883Y-135930940D01*
X144718886Y-135930941D01*
X144726954Y-135932219D01*
X144781471Y-135959996D01*
X144809248Y-136014513D01*
X144799677Y-136074945D01*
X144756412Y-136118210D01*
X144726954Y-136127781D01*
X144718886Y-136129058D01*
X144539167Y-136187453D01*
X144370803Y-136273238D01*
X144217928Y-136384309D01*
X144084309Y-136517928D01*
X143973238Y-136670803D01*
X143887453Y-136839167D01*
X143829058Y-137018886D01*
X143799500Y-137205515D01*
X143799500Y-137394484D01*
X143829058Y-137581113D01*
X143887453Y-137760832D01*
X143910887Y-137806825D01*
X143973240Y-137929199D01*
X144084310Y-138082073D01*
X144217927Y-138215690D01*
X144370801Y-138326760D01*
X144539168Y-138412547D01*
X144718882Y-138470940D01*
X144718883Y-138470940D01*
X144718886Y-138470941D01*
X144726954Y-138472219D01*
X144781471Y-138499996D01*
X144809248Y-138554513D01*
X144799677Y-138614945D01*
X144756412Y-138658210D01*
X144726954Y-138667781D01*
X144718886Y-138669058D01*
X144539167Y-138727453D01*
X144370803Y-138813238D01*
X144217928Y-138924309D01*
X144084309Y-139057928D01*
X143973238Y-139210803D01*
X143887453Y-139379167D01*
X143829058Y-139558886D01*
X143799500Y-139745515D01*
X143799500Y-139934484D01*
X143829058Y-140121113D01*
X143887453Y-140300832D01*
X143910887Y-140346825D01*
X143973240Y-140469199D01*
X144084310Y-140622073D01*
X144217927Y-140755690D01*
X144370801Y-140866760D01*
X144539168Y-140952547D01*
X144718882Y-141010940D01*
X144718883Y-141010940D01*
X144718886Y-141010941D01*
X144905516Y-141040500D01*
X144905519Y-141040500D01*
X145094484Y-141040500D01*
X145281113Y-141010941D01*
X145281114Y-141010940D01*
X145281118Y-141010940D01*
X145460832Y-140952547D01*
X145629199Y-140866760D01*
X145782073Y-140755690D01*
X145915690Y-140622073D01*
X146026760Y-140469199D01*
X146112547Y-140300832D01*
X146170940Y-140121118D01*
X146200500Y-139934481D01*
X146200500Y-139745519D01*
X146200500Y-139745515D01*
X146170941Y-139558886D01*
X146168215Y-139550495D01*
X146112547Y-139379168D01*
X146026760Y-139210801D01*
X145915690Y-139057927D01*
X145782073Y-138924310D01*
X145629199Y-138813240D01*
X145629198Y-138813239D01*
X145629196Y-138813238D01*
X145460832Y-138727453D01*
X145281113Y-138669058D01*
X145273046Y-138667781D01*
X145218529Y-138640004D01*
X145190751Y-138585488D01*
X145200322Y-138525056D01*
X145243586Y-138481791D01*
X145273046Y-138472219D01*
X145281113Y-138470941D01*
X145281114Y-138470940D01*
X145281118Y-138470940D01*
X145460832Y-138412547D01*
X145629199Y-138326760D01*
X145782073Y-138215690D01*
X145915690Y-138082073D01*
X146026760Y-137929199D01*
X146112547Y-137760832D01*
X146170940Y-137581118D01*
X146170941Y-137581113D01*
X146200500Y-137394484D01*
X146200500Y-137205515D01*
X146170941Y-137018886D01*
X146168215Y-137010495D01*
X146112547Y-136839168D01*
X146026760Y-136670801D01*
X145915690Y-136517927D01*
X145782073Y-136384310D01*
X145629199Y-136273240D01*
X145629198Y-136273239D01*
X145629196Y-136273238D01*
X145460832Y-136187453D01*
X145281113Y-136129058D01*
X145273046Y-136127781D01*
X145218529Y-136100004D01*
X145190751Y-136045488D01*
X145200322Y-135985056D01*
X145243586Y-135941791D01*
X145273046Y-135932219D01*
X145281113Y-135930941D01*
X145281114Y-135930940D01*
X145281118Y-135930940D01*
X145460832Y-135872547D01*
X145629199Y-135786760D01*
X145782073Y-135675690D01*
X145915690Y-135542073D01*
X146026760Y-135389199D01*
X146112547Y-135220832D01*
X146170940Y-135041118D01*
X146200500Y-134854481D01*
X146200500Y-134665519D01*
X146200500Y-134665515D01*
X146170941Y-134478886D01*
X146170940Y-134478882D01*
X146112547Y-134299168D01*
X146026760Y-134130801D01*
X145915690Y-133977927D01*
X145782073Y-133844310D01*
X145629199Y-133733240D01*
X145629198Y-133733239D01*
X145629196Y-133733238D01*
X145460832Y-133647453D01*
X145281113Y-133589058D01*
X145273046Y-133587781D01*
X145218529Y-133560004D01*
X145190751Y-133505488D01*
X145200322Y-133445056D01*
X145243586Y-133401791D01*
X145273046Y-133392219D01*
X145281113Y-133390941D01*
X145281114Y-133390940D01*
X145281118Y-133390940D01*
X145460832Y-133332547D01*
X145629199Y-133246760D01*
X145782073Y-133135690D01*
X145915690Y-133002073D01*
X146026760Y-132849199D01*
X146112547Y-132680832D01*
X146170940Y-132501118D01*
X146200500Y-132314481D01*
X146200500Y-132125519D01*
X146200500Y-132125515D01*
X146170941Y-131938886D01*
X146148480Y-131869758D01*
X146112547Y-131759168D01*
X146026760Y-131590801D01*
X145915690Y-131437927D01*
X145782073Y-131304310D01*
X145629199Y-131193240D01*
X145629198Y-131193239D01*
X145629196Y-131193238D01*
X145460832Y-131107453D01*
X145281113Y-131049058D01*
X145273046Y-131047781D01*
X145218529Y-131020004D01*
X145190751Y-130965488D01*
X145200322Y-130905056D01*
X145243586Y-130861791D01*
X145273046Y-130852219D01*
X145281113Y-130850941D01*
X145281114Y-130850940D01*
X145281118Y-130850940D01*
X145460832Y-130792547D01*
X145629199Y-130706760D01*
X145782073Y-130595690D01*
X145915690Y-130462073D01*
X146026760Y-130309199D01*
X146112547Y-130140832D01*
X146170940Y-129961118D01*
X146200500Y-129774481D01*
X146200500Y-129585519D01*
X146200500Y-129585515D01*
X146191257Y-129527158D01*
X146189574Y-129516532D01*
X152449500Y-129516532D01*
X152449500Y-129723467D01*
X152489869Y-129926418D01*
X152569058Y-130117597D01*
X152584583Y-130140832D01*
X152684023Y-130289655D01*
X152830345Y-130435977D01*
X153002402Y-130550941D01*
X153193580Y-130630130D01*
X153396535Y-130670500D01*
X153396536Y-130670500D01*
X153603464Y-130670500D01*
X153603465Y-130670500D01*
X153806420Y-130630130D01*
X153997598Y-130550941D01*
X154169655Y-130435977D01*
X154315977Y-130289655D01*
X154430941Y-130117598D01*
X154510130Y-129926420D01*
X154550500Y-129723465D01*
X154550500Y-129516535D01*
X154510130Y-129313580D01*
X154430941Y-129122402D01*
X154315977Y-128950345D01*
X154169655Y-128804023D01*
X154110220Y-128764310D01*
X153997597Y-128689058D01*
X153806418Y-128609869D01*
X153603467Y-128569500D01*
X153603465Y-128569500D01*
X153396535Y-128569500D01*
X153396532Y-128569500D01*
X153193581Y-128609869D01*
X153002402Y-128689058D01*
X152830348Y-128804020D01*
X152684020Y-128950348D01*
X152569058Y-129122402D01*
X152489869Y-129313581D01*
X152449500Y-129516532D01*
X146189574Y-129516532D01*
X146170941Y-129398886D01*
X146170940Y-129398882D01*
X146112547Y-129219168D01*
X146026760Y-129050801D01*
X145915690Y-128897927D01*
X145782073Y-128764310D01*
X145629199Y-128653240D01*
X145629198Y-128653239D01*
X145629196Y-128653238D01*
X145460832Y-128567453D01*
X145281113Y-128509058D01*
X145273046Y-128507781D01*
X145218529Y-128480004D01*
X145190751Y-128425488D01*
X145200322Y-128365056D01*
X145243586Y-128321791D01*
X145273046Y-128312219D01*
X145281113Y-128310941D01*
X145281114Y-128310940D01*
X145281118Y-128310940D01*
X145460832Y-128252547D01*
X145629199Y-128166760D01*
X145782073Y-128055690D01*
X145915690Y-127922073D01*
X146026760Y-127769199D01*
X146112547Y-127600832D01*
X146170940Y-127421118D01*
X146200500Y-127234481D01*
X146200500Y-127045519D01*
X146200500Y-127045515D01*
X146191257Y-126987158D01*
X146189574Y-126976532D01*
X152449500Y-126976532D01*
X152449500Y-127183467D01*
X152489869Y-127386418D01*
X152569058Y-127577597D01*
X152569059Y-127577598D01*
X152684023Y-127749655D01*
X152830345Y-127895977D01*
X153002402Y-128010941D01*
X153193580Y-128090130D01*
X153396535Y-128130500D01*
X153396536Y-128130500D01*
X153603464Y-128130500D01*
X153603465Y-128130500D01*
X153806420Y-128090130D01*
X153997598Y-128010941D01*
X154169655Y-127895977D01*
X154315977Y-127749655D01*
X154430941Y-127577598D01*
X154510130Y-127386420D01*
X154550500Y-127183465D01*
X154550500Y-126976535D01*
X154510130Y-126773580D01*
X154430941Y-126582402D01*
X154315977Y-126410345D01*
X154169655Y-126264023D01*
X154110220Y-126224310D01*
X153997597Y-126149058D01*
X153806418Y-126069869D01*
X153603467Y-126029500D01*
X153603465Y-126029500D01*
X153396535Y-126029500D01*
X153396532Y-126029500D01*
X153193581Y-126069869D01*
X153002402Y-126149058D01*
X152830348Y-126264020D01*
X152684020Y-126410348D01*
X152569058Y-126582402D01*
X152489869Y-126773581D01*
X152449500Y-126976532D01*
X146189574Y-126976532D01*
X146170941Y-126858886D01*
X146170940Y-126858882D01*
X146112547Y-126679168D01*
X146026760Y-126510801D01*
X145915690Y-126357927D01*
X145782073Y-126224310D01*
X145629199Y-126113240D01*
X145629198Y-126113239D01*
X145629196Y-126113238D01*
X145460832Y-126027453D01*
X145281113Y-125969058D01*
X145273046Y-125967781D01*
X145218529Y-125940004D01*
X145190751Y-125885488D01*
X145200322Y-125825056D01*
X145243586Y-125781791D01*
X145273046Y-125772219D01*
X145281113Y-125770941D01*
X145281114Y-125770940D01*
X145281118Y-125770940D01*
X145460832Y-125712547D01*
X145629199Y-125626760D01*
X145782073Y-125515690D01*
X145915690Y-125382073D01*
X146026760Y-125229199D01*
X146112547Y-125060832D01*
X146170940Y-124881118D01*
X146180617Y-124820021D01*
X146200500Y-124694484D01*
X146200500Y-124505515D01*
X146170941Y-124318886D01*
X146170000Y-124315989D01*
X146112547Y-124139168D01*
X146026760Y-123970801D01*
X145915690Y-123817927D01*
X145782073Y-123684310D01*
X145629199Y-123573240D01*
X145629198Y-123573239D01*
X145629196Y-123573238D01*
X145460832Y-123487453D01*
X145281113Y-123429058D01*
X145273046Y-123427781D01*
X145218529Y-123400004D01*
X145190751Y-123345488D01*
X145200322Y-123285056D01*
X145243586Y-123241791D01*
X145273046Y-123232219D01*
X145281113Y-123230941D01*
X145281114Y-123230940D01*
X145281118Y-123230940D01*
X145460832Y-123172547D01*
X145629199Y-123086760D01*
X145782073Y-122975690D01*
X145915690Y-122842073D01*
X146026760Y-122689199D01*
X146112547Y-122520832D01*
X146170940Y-122341118D01*
X146176343Y-122307007D01*
X146200500Y-122154484D01*
X146200500Y-121965515D01*
X146170941Y-121778886D01*
X146165915Y-121763418D01*
X146112547Y-121599168D01*
X146026760Y-121430801D01*
X145915690Y-121277927D01*
X145782073Y-121144310D01*
X145762789Y-121130299D01*
X152450000Y-121130299D01*
X152450000Y-121899999D01*
X152450001Y-121900000D01*
X153009157Y-121900000D01*
X153000000Y-121934174D01*
X153000000Y-122065826D01*
X153009157Y-122100000D01*
X152450001Y-122100000D01*
X152450000Y-122100001D01*
X152450000Y-122869700D01*
X152461603Y-122928036D01*
X152505806Y-122994189D01*
X152505810Y-122994193D01*
X152571963Y-123038396D01*
X152630299Y-123049999D01*
X152630303Y-123050000D01*
X153399999Y-123050000D01*
X153400000Y-123049999D01*
X153400000Y-122490842D01*
X153434174Y-122500000D01*
X153565826Y-122500000D01*
X153600000Y-122490842D01*
X153600000Y-123049999D01*
X153600001Y-123050000D01*
X154369697Y-123050000D01*
X154369700Y-123049999D01*
X154428036Y-123038396D01*
X154494189Y-122994193D01*
X154494193Y-122994189D01*
X154538396Y-122928036D01*
X154549999Y-122869700D01*
X154550000Y-122869697D01*
X154550000Y-122100001D01*
X154549999Y-122100000D01*
X153990843Y-122100000D01*
X154000000Y-122065826D01*
X154000000Y-121934174D01*
X153990843Y-121900000D01*
X154549999Y-121900000D01*
X154550000Y-121899999D01*
X154550000Y-121130302D01*
X154549999Y-121130299D01*
X154538396Y-121071963D01*
X154494193Y-121005810D01*
X154494189Y-121005806D01*
X154428036Y-120961603D01*
X154369700Y-120950000D01*
X153600001Y-120950000D01*
X153600000Y-120950001D01*
X153600000Y-121509157D01*
X153565826Y-121500000D01*
X153434174Y-121500000D01*
X153400000Y-121509157D01*
X153400000Y-120950001D01*
X153399999Y-120950000D01*
X152630299Y-120950000D01*
X152571963Y-120961603D01*
X152505810Y-121005806D01*
X152505806Y-121005810D01*
X152461603Y-121071963D01*
X152450000Y-121130299D01*
X145762789Y-121130299D01*
X145629199Y-121033240D01*
X145629198Y-121033239D01*
X145629196Y-121033238D01*
X145460832Y-120947453D01*
X145281113Y-120889058D01*
X145273046Y-120887781D01*
X145218529Y-120860004D01*
X145190751Y-120805488D01*
X145200322Y-120745056D01*
X145243586Y-120701791D01*
X145273046Y-120692219D01*
X145281113Y-120690941D01*
X145281114Y-120690940D01*
X145281118Y-120690940D01*
X145460832Y-120632547D01*
X145629199Y-120546760D01*
X145782073Y-120435690D01*
X145915690Y-120302073D01*
X146026760Y-120149199D01*
X146112547Y-119980832D01*
X146170940Y-119801118D01*
X146200042Y-119617374D01*
X146200500Y-119614484D01*
X146200500Y-119425515D01*
X146170941Y-119238886D01*
X146165915Y-119223418D01*
X146112547Y-119059168D01*
X146026760Y-118890801D01*
X145915690Y-118737927D01*
X145782073Y-118604310D01*
X145629199Y-118493240D01*
X145629198Y-118493239D01*
X145629196Y-118493238D01*
X145460832Y-118407453D01*
X145281113Y-118349058D01*
X145273046Y-118347781D01*
X145218529Y-118320004D01*
X145190751Y-118265488D01*
X145200322Y-118205056D01*
X145243586Y-118161791D01*
X145273046Y-118152219D01*
X145281113Y-118150941D01*
X145281114Y-118150940D01*
X145281118Y-118150940D01*
X145460832Y-118092547D01*
X145629199Y-118006760D01*
X145782073Y-117895690D01*
X145915690Y-117762073D01*
X146026760Y-117609199D01*
X146112547Y-117440832D01*
X146170940Y-117261118D01*
X146200042Y-117077374D01*
X146200500Y-117074484D01*
X146200500Y-116885515D01*
X146170941Y-116698886D01*
X146165915Y-116683418D01*
X146112547Y-116519168D01*
X146026760Y-116350801D01*
X145915690Y-116197927D01*
X145782073Y-116064310D01*
X145629199Y-115953240D01*
X145629198Y-115953239D01*
X145629196Y-115953238D01*
X145460832Y-115867453D01*
X145281113Y-115809058D01*
X145273046Y-115807781D01*
X145218529Y-115780004D01*
X145190751Y-115725488D01*
X145200322Y-115665056D01*
X145243586Y-115621791D01*
X145273046Y-115612219D01*
X145281113Y-115610941D01*
X145281114Y-115610940D01*
X145281118Y-115610940D01*
X145460832Y-115552547D01*
X145629199Y-115466760D01*
X145782073Y-115355690D01*
X145915690Y-115222073D01*
X146026760Y-115069199D01*
X146112547Y-114900832D01*
X146170940Y-114721118D01*
X146172756Y-114709651D01*
X146200500Y-114534484D01*
X146200500Y-114345515D01*
X146170941Y-114158886D01*
X146165931Y-114143467D01*
X146112547Y-113979168D01*
X146026760Y-113810801D01*
X145915690Y-113657927D01*
X145782073Y-113524310D01*
X145629199Y-113413240D01*
X145629198Y-113413239D01*
X145629196Y-113413238D01*
X145460832Y-113327453D01*
X145281113Y-113269058D01*
X145273046Y-113267781D01*
X145218529Y-113240004D01*
X145190751Y-113185488D01*
X145200322Y-113125056D01*
X145243586Y-113081791D01*
X145273046Y-113072219D01*
X145281113Y-113070941D01*
X145281114Y-113070940D01*
X145281118Y-113070940D01*
X145460832Y-113012547D01*
X145629199Y-112926760D01*
X145782073Y-112815690D01*
X145915690Y-112682073D01*
X146026760Y-112529199D01*
X146112547Y-112360832D01*
X146170940Y-112181118D01*
X146200500Y-111994481D01*
X146200500Y-111805519D01*
X146200500Y-111805515D01*
X146170941Y-111618886D01*
X146170940Y-111618882D01*
X146112547Y-111439168D01*
X146026760Y-111270801D01*
X145915690Y-111117927D01*
X145782073Y-110984310D01*
X145629199Y-110873240D01*
X145629198Y-110873239D01*
X145629196Y-110873238D01*
X145460832Y-110787453D01*
X145281113Y-110729058D01*
X145273046Y-110727781D01*
X145218529Y-110700004D01*
X145190751Y-110645488D01*
X145200322Y-110585056D01*
X145243586Y-110541791D01*
X145273046Y-110532219D01*
X145281113Y-110530941D01*
X145281114Y-110530940D01*
X145281118Y-110530940D01*
X145460832Y-110472547D01*
X145629199Y-110386760D01*
X145782073Y-110275690D01*
X145915690Y-110142073D01*
X146026760Y-109989199D01*
X146112547Y-109820832D01*
X146170940Y-109641118D01*
X146200500Y-109454481D01*
X146200500Y-109265519D01*
X146200500Y-109265515D01*
X146170941Y-109078886D01*
X146170940Y-109078882D01*
X146112547Y-108899168D01*
X146026760Y-108730801D01*
X145915690Y-108577927D01*
X145782073Y-108444310D01*
X145629199Y-108333240D01*
X145629198Y-108333239D01*
X145629196Y-108333238D01*
X145460832Y-108247453D01*
X145281113Y-108189058D01*
X145273046Y-108187781D01*
X145218529Y-108160004D01*
X145190751Y-108105488D01*
X145200322Y-108045056D01*
X145243586Y-108001791D01*
X145273046Y-107992219D01*
X145281113Y-107990941D01*
X145281114Y-107990940D01*
X145281118Y-107990940D01*
X145460832Y-107932547D01*
X145629199Y-107846760D01*
X145782073Y-107735690D01*
X145915690Y-107602073D01*
X146026760Y-107449199D01*
X146112547Y-107280832D01*
X146170940Y-107101118D01*
X146200500Y-106914481D01*
X146200500Y-106725519D01*
X146200500Y-106725515D01*
X146170941Y-106538886D01*
X146170940Y-106538882D01*
X146112547Y-106359168D01*
X146026760Y-106190801D01*
X145915690Y-106037927D01*
X145782073Y-105904310D01*
X145629199Y-105793240D01*
X145629198Y-105793239D01*
X145629196Y-105793238D01*
X145460832Y-105707453D01*
X145281113Y-105649058D01*
X145273046Y-105647781D01*
X145218529Y-105620004D01*
X145190751Y-105565488D01*
X145200322Y-105505056D01*
X145243586Y-105461791D01*
X145273046Y-105452219D01*
X145281113Y-105450941D01*
X145281114Y-105450940D01*
X145281118Y-105450940D01*
X145460832Y-105392547D01*
X145629199Y-105306760D01*
X145782073Y-105195690D01*
X145915690Y-105062073D01*
X146026760Y-104909199D01*
X146112547Y-104740832D01*
X146168572Y-104568405D01*
X146204535Y-104518907D01*
X146262726Y-104500000D01*
X156401000Y-104500000D01*
X156459191Y-104518907D01*
X156495155Y-104568407D01*
X156500000Y-104599000D01*
X156500000Y-124140500D01*
X156481093Y-124198691D01*
X156431593Y-124234655D01*
X156401000Y-124239500D01*
X154578732Y-124239500D01*
X154520541Y-124220593D01*
X154487268Y-124178386D01*
X154430941Y-124042402D01*
X154315979Y-123870348D01*
X154315977Y-123870345D01*
X154169655Y-123724023D01*
X154110220Y-123684310D01*
X153997597Y-123609058D01*
X153806418Y-123529869D01*
X153603467Y-123489500D01*
X153603465Y-123489500D01*
X153396535Y-123489500D01*
X153396532Y-123489500D01*
X153193581Y-123529869D01*
X153002402Y-123609058D01*
X152830348Y-123724020D01*
X152684020Y-123870348D01*
X152569058Y-124042402D01*
X152489869Y-124233581D01*
X152449500Y-124436532D01*
X152449500Y-124643467D01*
X152489869Y-124846418D01*
X152569058Y-125037597D01*
X152569059Y-125037598D01*
X152684023Y-125209655D01*
X152830345Y-125355977D01*
X153002402Y-125470941D01*
X153193580Y-125550130D01*
X153396535Y-125590500D01*
X153396536Y-125590500D01*
X153603464Y-125590500D01*
X153603465Y-125590500D01*
X153806420Y-125550130D01*
X153997598Y-125470941D01*
X154169655Y-125355977D01*
X154315977Y-125209655D01*
X154430941Y-125037598D01*
X154487268Y-124901614D01*
X154527005Y-124855088D01*
X154578732Y-124840500D01*
X156401000Y-124840500D01*
X156459191Y-124859407D01*
X156495155Y-124908907D01*
X156500000Y-124939500D01*
X156500000Y-141769103D01*
X156481093Y-141827294D01*
X156431593Y-141863258D01*
X156370407Y-141863258D01*
X156351501Y-141854840D01*
X156329699Y-141842253D01*
X156320212Y-141836776D01*
X156320210Y-141836775D01*
X156320208Y-141836774D01*
X156320208Y-141836773D01*
X156096105Y-141743948D01*
X156096104Y-141743947D01*
X156096100Y-141743946D01*
X155861789Y-141681162D01*
X155861786Y-141681161D01*
X155861784Y-141681161D01*
X155621289Y-141649500D01*
X155621288Y-141649500D01*
X155378712Y-141649500D01*
X155378710Y-141649500D01*
X155138218Y-141681161D01*
X155138213Y-141681161D01*
X154903907Y-141743944D01*
X154903894Y-141743948D01*
X154679795Y-141836772D01*
X154469707Y-141958066D01*
X154277268Y-142105729D01*
X154105729Y-142277268D01*
X153964543Y-142461267D01*
X153914119Y-142495923D01*
X153886001Y-142500000D01*
X97113999Y-142500000D01*
X97055808Y-142481093D01*
X97035457Y-142461267D01*
X96894270Y-142277268D01*
X96894268Y-142277266D01*
X96894265Y-142277262D01*
X96722738Y-142105735D01*
X96722733Y-142105731D01*
X96722731Y-142105729D01*
X96598897Y-142010708D01*
X96530292Y-141958066D01*
X96530289Y-141958064D01*
X96320212Y-141836776D01*
X96320208Y-141836774D01*
X96320204Y-141836772D01*
X96096099Y-141743945D01*
X96096097Y-141743944D01*
X96073375Y-141737856D01*
X96022062Y-141704531D01*
X96000136Y-141647410D01*
X96000000Y-141642230D01*
X96000000Y-141056581D01*
X107950000Y-141056581D01*
X107950000Y-141263418D01*
X107990349Y-141466272D01*
X108069501Y-141657360D01*
X108069508Y-141657374D01*
X108184405Y-141829329D01*
X108186826Y-141831750D01*
X108582210Y-141436365D01*
X108599901Y-141467007D01*
X108692993Y-141560099D01*
X108723632Y-141577788D01*
X108328249Y-141973173D01*
X108330670Y-141975594D01*
X108502625Y-142090491D01*
X108502639Y-142090498D01*
X108693727Y-142169650D01*
X108896581Y-142209999D01*
X108896586Y-142210000D01*
X109103414Y-142210000D01*
X109103418Y-142209999D01*
X109306272Y-142169650D01*
X109497360Y-142090498D01*
X109497366Y-142090495D01*
X109669333Y-141975591D01*
X109671750Y-141973173D01*
X109276366Y-141577789D01*
X109307007Y-141560099D01*
X109400099Y-141467007D01*
X109417789Y-141436366D01*
X109813173Y-141831750D01*
X109815591Y-141829333D01*
X109930495Y-141657366D01*
X109930498Y-141657360D01*
X110009650Y-141466272D01*
X110049999Y-141263418D01*
X110050000Y-141263413D01*
X110050000Y-141056586D01*
X110049999Y-141056581D01*
X110009650Y-140853727D01*
X109930498Y-140662639D01*
X109930491Y-140662625D01*
X109815594Y-140490670D01*
X109813173Y-140488249D01*
X109417788Y-140883632D01*
X109400099Y-140852993D01*
X109307007Y-140759901D01*
X109276365Y-140742210D01*
X109671750Y-140346826D01*
X109669329Y-140344405D01*
X109497374Y-140229508D01*
X109497360Y-140229501D01*
X109306272Y-140150349D01*
X109103418Y-140110000D01*
X108896581Y-140110000D01*
X108693727Y-140150349D01*
X108502639Y-140229501D01*
X108502630Y-140229505D01*
X108330665Y-140344410D01*
X108328248Y-140346825D01*
X108723633Y-140742210D01*
X108692993Y-140759901D01*
X108599901Y-140852993D01*
X108582210Y-140883633D01*
X108186825Y-140488248D01*
X108184410Y-140490665D01*
X108069505Y-140662630D01*
X108069501Y-140662639D01*
X107990349Y-140853727D01*
X107950000Y-141056581D01*
X96000000Y-141056581D01*
X96000000Y-138516581D01*
X107950000Y-138516581D01*
X107950000Y-138723418D01*
X107990349Y-138926272D01*
X108069501Y-139117360D01*
X108069508Y-139117374D01*
X108184405Y-139289329D01*
X108186826Y-139291750D01*
X108582210Y-138896365D01*
X108599901Y-138927007D01*
X108692993Y-139020099D01*
X108723632Y-139037788D01*
X108328249Y-139433173D01*
X108330670Y-139435594D01*
X108502625Y-139550491D01*
X108502639Y-139550498D01*
X108693727Y-139629650D01*
X108896581Y-139669999D01*
X108896586Y-139670000D01*
X109103414Y-139670000D01*
X109103418Y-139669999D01*
X109306272Y-139629650D01*
X109497360Y-139550498D01*
X109497366Y-139550495D01*
X109669333Y-139435591D01*
X109671750Y-139433173D01*
X109276366Y-139037789D01*
X109307007Y-139020099D01*
X109400099Y-138927007D01*
X109417789Y-138896366D01*
X109813173Y-139291750D01*
X109815591Y-139289333D01*
X109930495Y-139117366D01*
X109930498Y-139117360D01*
X110009650Y-138926272D01*
X110049999Y-138723418D01*
X110050000Y-138723413D01*
X110050000Y-138516586D01*
X110049999Y-138516581D01*
X110009650Y-138313727D01*
X109930498Y-138122639D01*
X109930491Y-138122625D01*
X109815594Y-137950670D01*
X109813173Y-137948249D01*
X109417788Y-138343632D01*
X109400099Y-138312993D01*
X109307007Y-138219901D01*
X109276365Y-138202210D01*
X109671750Y-137806826D01*
X109669329Y-137804405D01*
X109497374Y-137689508D01*
X109497360Y-137689501D01*
X109306272Y-137610349D01*
X109103418Y-137570000D01*
X108896581Y-137570000D01*
X108693727Y-137610349D01*
X108502639Y-137689501D01*
X108502630Y-137689505D01*
X108330665Y-137804410D01*
X108328248Y-137806825D01*
X108723633Y-138202210D01*
X108692993Y-138219901D01*
X108599901Y-138312993D01*
X108582210Y-138343633D01*
X108186825Y-137948248D01*
X108184410Y-137950665D01*
X108069505Y-138122630D01*
X108069501Y-138122639D01*
X107990349Y-138313727D01*
X107950000Y-138516581D01*
X96000000Y-138516581D01*
X96000000Y-135976581D01*
X107950000Y-135976581D01*
X107950000Y-136183418D01*
X107990349Y-136386272D01*
X108069501Y-136577360D01*
X108069508Y-136577374D01*
X108184405Y-136749329D01*
X108186826Y-136751750D01*
X108582210Y-136356365D01*
X108599901Y-136387007D01*
X108692993Y-136480099D01*
X108723632Y-136497788D01*
X108328249Y-136893173D01*
X108330670Y-136895594D01*
X108502625Y-137010491D01*
X108502639Y-137010498D01*
X108693727Y-137089650D01*
X108896581Y-137129999D01*
X108896586Y-137130000D01*
X109103414Y-137130000D01*
X109103418Y-137129999D01*
X109306272Y-137089650D01*
X109497360Y-137010498D01*
X109497366Y-137010495D01*
X109669333Y-136895591D01*
X109671750Y-136893173D01*
X109276366Y-136497789D01*
X109307007Y-136480099D01*
X109400099Y-136387007D01*
X109417789Y-136356366D01*
X109813173Y-136751750D01*
X109815591Y-136749333D01*
X109930495Y-136577366D01*
X109930498Y-136577360D01*
X110009650Y-136386272D01*
X110049999Y-136183418D01*
X110050000Y-136183413D01*
X110050000Y-135976586D01*
X110049999Y-135976581D01*
X110009650Y-135773727D01*
X109930498Y-135582639D01*
X109930491Y-135582625D01*
X109815594Y-135410670D01*
X109813173Y-135408249D01*
X109417788Y-135803632D01*
X109400099Y-135772993D01*
X109307007Y-135679901D01*
X109276365Y-135662210D01*
X109671750Y-135266826D01*
X109669329Y-135264405D01*
X109497374Y-135149508D01*
X109497360Y-135149501D01*
X109306272Y-135070349D01*
X109103418Y-135030000D01*
X108896581Y-135030000D01*
X108693727Y-135070349D01*
X108502639Y-135149501D01*
X108502630Y-135149505D01*
X108330665Y-135264410D01*
X108328248Y-135266825D01*
X108723633Y-135662210D01*
X108692993Y-135679901D01*
X108599901Y-135772993D01*
X108582210Y-135803633D01*
X108186825Y-135408248D01*
X108184410Y-135410665D01*
X108069505Y-135582630D01*
X108069501Y-135582639D01*
X107990349Y-135773727D01*
X107950000Y-135976581D01*
X96000000Y-135976581D01*
X96000000Y-133436532D01*
X107949500Y-133436532D01*
X107949500Y-133643467D01*
X107989869Y-133846418D01*
X108069058Y-134037597D01*
X108131336Y-134130803D01*
X108184023Y-134209655D01*
X108330345Y-134355977D01*
X108502402Y-134470941D01*
X108693580Y-134550130D01*
X108896535Y-134590500D01*
X108896536Y-134590500D01*
X109103464Y-134590500D01*
X109103465Y-134590500D01*
X109306420Y-134550130D01*
X109497598Y-134470941D01*
X109669655Y-134355977D01*
X109815977Y-134209655D01*
X109930941Y-134037598D01*
X110010130Y-133846420D01*
X110050500Y-133643465D01*
X110050500Y-133436535D01*
X110010130Y-133233580D01*
X109930941Y-133042402D01*
X109815977Y-132870345D01*
X109669655Y-132724023D01*
X109497598Y-132609059D01*
X109497599Y-132609059D01*
X109497597Y-132609058D01*
X109306418Y-132529869D01*
X109103467Y-132489500D01*
X109103465Y-132489500D01*
X108896535Y-132489500D01*
X108896532Y-132489500D01*
X108693581Y-132529869D01*
X108502402Y-132609058D01*
X108330348Y-132724020D01*
X108184020Y-132870348D01*
X108069058Y-133042402D01*
X107989869Y-133233581D01*
X107949500Y-133436532D01*
X96000000Y-133436532D01*
X96000000Y-130130253D01*
X107949500Y-130130253D01*
X107949500Y-131869746D01*
X107949501Y-131869758D01*
X107961132Y-131928227D01*
X107961134Y-131928233D01*
X108005445Y-131994548D01*
X108005448Y-131994552D01*
X108071769Y-132038867D01*
X108116231Y-132047711D01*
X108130241Y-132050498D01*
X108130246Y-132050498D01*
X108130252Y-132050500D01*
X108130253Y-132050500D01*
X109869747Y-132050500D01*
X109869748Y-132050500D01*
X109928231Y-132038867D01*
X109994552Y-131994552D01*
X110038867Y-131928231D01*
X110050500Y-131869748D01*
X110050500Y-130130252D01*
X110038867Y-130071769D01*
X109994552Y-130005448D01*
X109994548Y-130005445D01*
X109928233Y-129961134D01*
X109928231Y-129961133D01*
X109928228Y-129961132D01*
X109928227Y-129961132D01*
X109869758Y-129949501D01*
X109869748Y-129949500D01*
X108130252Y-129949500D01*
X108130251Y-129949500D01*
X108130241Y-129949501D01*
X108071772Y-129961132D01*
X108071766Y-129961134D01*
X108005451Y-130005445D01*
X108005445Y-130005451D01*
X107961134Y-130071766D01*
X107961132Y-130071772D01*
X107949501Y-130130241D01*
X107949500Y-130130253D01*
X96000000Y-130130253D01*
X96000000Y-124599500D01*
X96018907Y-124541309D01*
X96068407Y-124505345D01*
X96099000Y-124500500D01*
X107921268Y-124500500D01*
X107979459Y-124519407D01*
X108012732Y-124561614D01*
X108069058Y-124697597D01*
X108184020Y-124869651D01*
X108184023Y-124869655D01*
X108330345Y-125015977D01*
X108502402Y-125130941D01*
X108693580Y-125210130D01*
X108896535Y-125250500D01*
X108896536Y-125250500D01*
X109103464Y-125250500D01*
X109103465Y-125250500D01*
X109306420Y-125210130D01*
X109497598Y-125130941D01*
X109669655Y-125015977D01*
X109815977Y-124869655D01*
X109930941Y-124697598D01*
X110010130Y-124506420D01*
X110050500Y-124303465D01*
X110050500Y-124096535D01*
X110010130Y-123893580D01*
X109930941Y-123702402D01*
X109815977Y-123530345D01*
X109669655Y-123384023D01*
X109611983Y-123345488D01*
X109497597Y-123269058D01*
X109306418Y-123189869D01*
X109103467Y-123149500D01*
X109103465Y-123149500D01*
X108896535Y-123149500D01*
X108896532Y-123149500D01*
X108693581Y-123189869D01*
X108502402Y-123269058D01*
X108330348Y-123384020D01*
X108184020Y-123530348D01*
X108069058Y-123702402D01*
X108012732Y-123838386D01*
X107972995Y-123884912D01*
X107921268Y-123899500D01*
X96099000Y-123899500D01*
X96040809Y-123880593D01*
X96004845Y-123831093D01*
X96000000Y-123800500D01*
X96000000Y-121556581D01*
X107950000Y-121556581D01*
X107950000Y-121763418D01*
X107990349Y-121966272D01*
X108069501Y-122157360D01*
X108069508Y-122157374D01*
X108184405Y-122329329D01*
X108186826Y-122331750D01*
X108582210Y-121936365D01*
X108599901Y-121967007D01*
X108692993Y-122060099D01*
X108723632Y-122077788D01*
X108328249Y-122473173D01*
X108330670Y-122475594D01*
X108502625Y-122590491D01*
X108502639Y-122590498D01*
X108693727Y-122669650D01*
X108896581Y-122709999D01*
X108896586Y-122710000D01*
X109103414Y-122710000D01*
X109103418Y-122709999D01*
X109306272Y-122669650D01*
X109497360Y-122590498D01*
X109497366Y-122590495D01*
X109669333Y-122475591D01*
X109671750Y-122473173D01*
X109276366Y-122077789D01*
X109307007Y-122060099D01*
X109400099Y-121967007D01*
X109417789Y-121936366D01*
X109813173Y-122331750D01*
X109815591Y-122329333D01*
X109930495Y-122157366D01*
X109930498Y-122157360D01*
X110009650Y-121966272D01*
X110049999Y-121763418D01*
X110050000Y-121763413D01*
X110050000Y-121556586D01*
X110049999Y-121556581D01*
X110009650Y-121353727D01*
X109930498Y-121162639D01*
X109930491Y-121162625D01*
X109815594Y-120990670D01*
X109813173Y-120988249D01*
X109417788Y-121383632D01*
X109400099Y-121352993D01*
X109307007Y-121259901D01*
X109276365Y-121242210D01*
X109671750Y-120846826D01*
X109669329Y-120844405D01*
X109497374Y-120729508D01*
X109497360Y-120729501D01*
X109306272Y-120650349D01*
X109103418Y-120610000D01*
X108896581Y-120610000D01*
X108693727Y-120650349D01*
X108502639Y-120729501D01*
X108502630Y-120729505D01*
X108330665Y-120844410D01*
X108328248Y-120846825D01*
X108723633Y-121242210D01*
X108692993Y-121259901D01*
X108599901Y-121352993D01*
X108582210Y-121383633D01*
X108186825Y-120988248D01*
X108184410Y-120990665D01*
X108069505Y-121162630D01*
X108069501Y-121162639D01*
X107990349Y-121353727D01*
X107950000Y-121556581D01*
X96000000Y-121556581D01*
X96000000Y-119016581D01*
X107950000Y-119016581D01*
X107950000Y-119223418D01*
X107990349Y-119426272D01*
X108069501Y-119617360D01*
X108069508Y-119617374D01*
X108184405Y-119789329D01*
X108186826Y-119791750D01*
X108582210Y-119396365D01*
X108599901Y-119427007D01*
X108692993Y-119520099D01*
X108723632Y-119537788D01*
X108328249Y-119933173D01*
X108330670Y-119935594D01*
X108502625Y-120050491D01*
X108502639Y-120050498D01*
X108693727Y-120129650D01*
X108896581Y-120169999D01*
X108896586Y-120170000D01*
X109103414Y-120170000D01*
X109103418Y-120169999D01*
X109306272Y-120129650D01*
X109497360Y-120050498D01*
X109497366Y-120050495D01*
X109669333Y-119935591D01*
X109671750Y-119933173D01*
X109276366Y-119537789D01*
X109307007Y-119520099D01*
X109400099Y-119427007D01*
X109417789Y-119396366D01*
X109813173Y-119791750D01*
X109815591Y-119789333D01*
X109930495Y-119617366D01*
X109930498Y-119617360D01*
X110009650Y-119426272D01*
X110049999Y-119223418D01*
X110050000Y-119223413D01*
X110050000Y-119016586D01*
X110049999Y-119016581D01*
X110009650Y-118813727D01*
X109930498Y-118622639D01*
X109930491Y-118622625D01*
X109815594Y-118450670D01*
X109813173Y-118448249D01*
X109417788Y-118843632D01*
X109400099Y-118812993D01*
X109307007Y-118719901D01*
X109276365Y-118702210D01*
X109671750Y-118306826D01*
X109669329Y-118304405D01*
X109497374Y-118189508D01*
X109497360Y-118189501D01*
X109306272Y-118110349D01*
X109103418Y-118070000D01*
X108896581Y-118070000D01*
X108693727Y-118110349D01*
X108502639Y-118189501D01*
X108502630Y-118189505D01*
X108330665Y-118304410D01*
X108328248Y-118306825D01*
X108723633Y-118702210D01*
X108692993Y-118719901D01*
X108599901Y-118812993D01*
X108582210Y-118843633D01*
X108186825Y-118448248D01*
X108184410Y-118450665D01*
X108069505Y-118622630D01*
X108069501Y-118622639D01*
X107990349Y-118813727D01*
X107950000Y-119016581D01*
X96000000Y-119016581D01*
X96000000Y-116476581D01*
X107950000Y-116476581D01*
X107950000Y-116683418D01*
X107990349Y-116886272D01*
X108069501Y-117077360D01*
X108069508Y-117077374D01*
X108184405Y-117249329D01*
X108186826Y-117251750D01*
X108582210Y-116856365D01*
X108599901Y-116887007D01*
X108692993Y-116980099D01*
X108723632Y-116997788D01*
X108328249Y-117393173D01*
X108330670Y-117395594D01*
X108502625Y-117510491D01*
X108502639Y-117510498D01*
X108693727Y-117589650D01*
X108896581Y-117629999D01*
X108896586Y-117630000D01*
X109103414Y-117630000D01*
X109103418Y-117629999D01*
X109306272Y-117589650D01*
X109497360Y-117510498D01*
X109497366Y-117510495D01*
X109669333Y-117395591D01*
X109671750Y-117393173D01*
X109276366Y-116997789D01*
X109307007Y-116980099D01*
X109400099Y-116887007D01*
X109417789Y-116856366D01*
X109813173Y-117251750D01*
X109815591Y-117249333D01*
X109930495Y-117077366D01*
X109930498Y-117077360D01*
X110009650Y-116886272D01*
X110049999Y-116683418D01*
X110050000Y-116683413D01*
X110050000Y-116476586D01*
X110049999Y-116476581D01*
X110009650Y-116273727D01*
X109930498Y-116082639D01*
X109930491Y-116082625D01*
X109815594Y-115910670D01*
X109813173Y-115908249D01*
X109417788Y-116303632D01*
X109400099Y-116272993D01*
X109307007Y-116179901D01*
X109276365Y-116162210D01*
X109671750Y-115766826D01*
X109669329Y-115764405D01*
X109497374Y-115649508D01*
X109497360Y-115649501D01*
X109306272Y-115570349D01*
X109103418Y-115530000D01*
X108896581Y-115530000D01*
X108693727Y-115570349D01*
X108502639Y-115649501D01*
X108502630Y-115649505D01*
X108330665Y-115764410D01*
X108328248Y-115766825D01*
X108723633Y-116162210D01*
X108692993Y-116179901D01*
X108599901Y-116272993D01*
X108582210Y-116303633D01*
X108186825Y-115908248D01*
X108184410Y-115910665D01*
X108069505Y-116082630D01*
X108069501Y-116082639D01*
X107990349Y-116273727D01*
X107950000Y-116476581D01*
X96000000Y-116476581D01*
X96000000Y-113936532D01*
X107949500Y-113936532D01*
X107949500Y-114143467D01*
X107989869Y-114346418D01*
X108069058Y-114537597D01*
X108069059Y-114537598D01*
X108184023Y-114709655D01*
X108330345Y-114855977D01*
X108502402Y-114970941D01*
X108693580Y-115050130D01*
X108896535Y-115090500D01*
X108896536Y-115090500D01*
X109103464Y-115090500D01*
X109103465Y-115090500D01*
X109306420Y-115050130D01*
X109497598Y-114970941D01*
X109669655Y-114855977D01*
X109815977Y-114709655D01*
X109930941Y-114537598D01*
X110010130Y-114346420D01*
X110050500Y-114143465D01*
X110050500Y-113936535D01*
X110010130Y-113733580D01*
X109930941Y-113542402D01*
X109815977Y-113370345D01*
X109669655Y-113224023D01*
X109611983Y-113185488D01*
X109497597Y-113109058D01*
X109306418Y-113029869D01*
X109103467Y-112989500D01*
X109103465Y-112989500D01*
X108896535Y-112989500D01*
X108896532Y-112989500D01*
X108693581Y-113029869D01*
X108502402Y-113109058D01*
X108330348Y-113224020D01*
X108184020Y-113370348D01*
X108069058Y-113542402D01*
X107989869Y-113733581D01*
X107949500Y-113936532D01*
X96000000Y-113936532D01*
X96000000Y-110630253D01*
X107949500Y-110630253D01*
X107949500Y-112369746D01*
X107949501Y-112369758D01*
X107961132Y-112428227D01*
X107961133Y-112428231D01*
X108005448Y-112494552D01*
X108071769Y-112538867D01*
X108116231Y-112547711D01*
X108130241Y-112550498D01*
X108130246Y-112550498D01*
X108130252Y-112550500D01*
X108130253Y-112550500D01*
X109869747Y-112550500D01*
X109869748Y-112550500D01*
X109928231Y-112538867D01*
X109994552Y-112494552D01*
X110038867Y-112428231D01*
X110050500Y-112369748D01*
X110050500Y-110630252D01*
X110038867Y-110571769D01*
X109994552Y-110505448D01*
X109945313Y-110472547D01*
X109928233Y-110461134D01*
X109928231Y-110461133D01*
X109928228Y-110461132D01*
X109928227Y-110461132D01*
X109869758Y-110449501D01*
X109869748Y-110449500D01*
X108130252Y-110449500D01*
X108130251Y-110449500D01*
X108130241Y-110449501D01*
X108071772Y-110461132D01*
X108071766Y-110461134D01*
X108005451Y-110505445D01*
X108005445Y-110505451D01*
X107961134Y-110571766D01*
X107961132Y-110571772D01*
X107949501Y-110630241D01*
X107949500Y-110630253D01*
X96000000Y-110630253D01*
X96000000Y-104599000D01*
X96018907Y-104540809D01*
X96068407Y-104504845D01*
X96099000Y-104500000D01*
X97200257Y-104500000D01*
X97258448Y-104518907D01*
G37*
%TD.AperFunction*%
%TD*%
%TA.AperFunction,Conductor*%
%TO.N,/NET_B_BUS*%
G36*
X119618641Y-138755483D02*
G01*
X119643845Y-138759473D01*
X119651151Y-138764295D01*
X119653067Y-138764815D01*
X119657910Y-138767980D01*
X119723626Y-138822847D01*
X119778142Y-138850626D01*
X119790519Y-138854647D01*
X119793715Y-138856736D01*
X119817606Y-138864498D01*
X119817606Y-138864499D01*
X119974548Y-138915493D01*
X119988886Y-138921432D01*
X120114554Y-138985462D01*
X120127791Y-138993575D01*
X120241893Y-139076475D01*
X120253706Y-139086563D01*
X120353431Y-139186288D01*
X120363520Y-139198101D01*
X120446420Y-139312203D01*
X120454536Y-139325449D01*
X120518564Y-139451110D01*
X120524510Y-139465462D01*
X120568093Y-139599597D01*
X120571719Y-139614702D01*
X120593781Y-139753990D01*
X120595000Y-139769478D01*
X120595000Y-139910517D01*
X120593781Y-139926003D01*
X120589063Y-139955788D01*
X120571718Y-140065298D01*
X120568092Y-140080402D01*
X120524510Y-140214535D01*
X120518564Y-140228888D01*
X120454536Y-140354549D01*
X120446420Y-140367795D01*
X120363520Y-140481897D01*
X120353431Y-140493710D01*
X120253710Y-140593431D01*
X120241897Y-140603520D01*
X120127795Y-140686420D01*
X120114549Y-140694536D01*
X119988888Y-140758564D01*
X119974536Y-140764510D01*
X119840401Y-140808093D01*
X119825296Y-140811719D01*
X119714241Y-140829309D01*
X119686006Y-140833781D01*
X119670520Y-140835000D01*
X119529480Y-140835000D01*
X119513993Y-140833781D01*
X119374703Y-140811719D01*
X119359597Y-140808093D01*
X119225462Y-140764510D01*
X119211110Y-140758564D01*
X119085449Y-140694536D01*
X119072203Y-140686420D01*
X118958101Y-140603520D01*
X118946288Y-140593431D01*
X118846567Y-140493710D01*
X118836478Y-140481897D01*
X118753578Y-140367795D01*
X118745462Y-140354550D01*
X118745029Y-140353702D01*
X118727819Y-140319925D01*
X118693989Y-140253530D01*
X118681429Y-140228881D01*
X118675492Y-140214549D01*
X118631903Y-140080393D01*
X118628277Y-140065287D01*
X118606219Y-139926008D01*
X118605000Y-139910522D01*
X118605000Y-139769475D01*
X118606219Y-139753989D01*
X118628278Y-139614704D01*
X118628279Y-139614702D01*
X118628278Y-139614700D01*
X118631900Y-139599612D01*
X118675497Y-139465436D01*
X118681428Y-139451119D01*
X118745465Y-139325437D01*
X118753562Y-139312223D01*
X118836484Y-139198092D01*
X118846556Y-139186299D01*
X118946299Y-139086556D01*
X118958092Y-139076484D01*
X119072223Y-138993562D01*
X119085437Y-138985465D01*
X119211119Y-138921428D01*
X119225436Y-138915497D01*
X119369411Y-138868716D01*
X119376853Y-138866617D01*
X119392070Y-138862965D01*
X119421528Y-138853392D01*
X119425900Y-138851917D01*
X119503335Y-138803255D01*
X119528901Y-138777685D01*
X119533811Y-138775183D01*
X119536828Y-138770568D01*
X119560674Y-138761493D01*
X119583412Y-138749906D01*
X119588858Y-138750768D01*
X119594013Y-138748807D01*
X119618641Y-138755483D01*
G37*
%TD.AperFunction*%
%TA.AperFunction,Conductor*%
G36*
X153592791Y-123696902D02*
G01*
X153736915Y-123725569D01*
X153755483Y-123731202D01*
X153891251Y-123787439D01*
X153908361Y-123796584D01*
X153996051Y-123855177D01*
X154030542Y-123878223D01*
X154030547Y-123878226D01*
X154045550Y-123890538D01*
X154149460Y-123994448D01*
X154161772Y-124009451D01*
X154243411Y-124131633D01*
X154252559Y-124148748D01*
X154280286Y-124215685D01*
X154297411Y-124257028D01*
X154325885Y-124305609D01*
X154352171Y-124338954D01*
X154359161Y-124347820D01*
X154378528Y-124369128D01*
X154429023Y-124399297D01*
X154457039Y-124416036D01*
X154515230Y-124434943D01*
X154515232Y-124434943D01*
X154515232Y-124434944D01*
X154559915Y-124442020D01*
X154614432Y-124469796D01*
X154642211Y-124524312D01*
X154632641Y-124584744D01*
X154589377Y-124628010D01*
X154557997Y-124637867D01*
X154522950Y-124642715D01*
X154471215Y-124657305D01*
X154444127Y-124667040D01*
X154444126Y-124667041D01*
X154370742Y-124721626D01*
X154331004Y-124768153D01*
X154331003Y-124768154D01*
X154297410Y-124822971D01*
X154297410Y-124822972D01*
X154252558Y-124931251D01*
X154243411Y-124948365D01*
X154161772Y-125070547D01*
X154149460Y-125085550D01*
X154045550Y-125189460D01*
X154030547Y-125201772D01*
X153908365Y-125283411D01*
X153891250Y-125292559D01*
X153755485Y-125348795D01*
X153736913Y-125354429D01*
X153592787Y-125383098D01*
X153573475Y-125385000D01*
X153426525Y-125385000D01*
X153407211Y-125383098D01*
X153263085Y-125354429D01*
X153244513Y-125348795D01*
X153108748Y-125292559D01*
X153091633Y-125283411D01*
X152969451Y-125201772D01*
X152954448Y-125189460D01*
X152850538Y-125085550D01*
X152838226Y-125070547D01*
X152819885Y-125043098D01*
X152756585Y-124948360D01*
X152747438Y-124931247D01*
X152724870Y-124876763D01*
X152691200Y-124795476D01*
X152685569Y-124776916D01*
X152657912Y-124637867D01*
X152656902Y-124632790D01*
X152655000Y-124613477D01*
X152655000Y-124466520D01*
X152656902Y-124447206D01*
X152657723Y-124443077D01*
X152685570Y-124303079D01*
X152691203Y-124284513D01*
X152691736Y-124283227D01*
X152747439Y-124148746D01*
X152756582Y-124131639D01*
X152838227Y-124009448D01*
X152850530Y-123994456D01*
X152954456Y-123890530D01*
X152969448Y-123878227D01*
X153091639Y-123796582D01*
X153108746Y-123787439D01*
X153244517Y-123731201D01*
X153263082Y-123725569D01*
X153335147Y-123711235D01*
X153407209Y-123696902D01*
X153426522Y-123695000D01*
X153573477Y-123695000D01*
X153592791Y-123696902D01*
G37*
%TD.AperFunction*%
%TA.AperFunction,Conductor*%
G36*
X109092791Y-123356902D02*
G01*
X109236915Y-123385569D01*
X109255483Y-123391202D01*
X109391251Y-123447439D01*
X109408361Y-123456584D01*
X109497814Y-123516355D01*
X109530542Y-123538223D01*
X109530547Y-123538226D01*
X109545550Y-123550538D01*
X109649460Y-123654448D01*
X109661772Y-123669451D01*
X109743411Y-123791633D01*
X109752559Y-123808748D01*
X109808795Y-123944513D01*
X109814429Y-123963085D01*
X109843098Y-124107210D01*
X109845000Y-124126524D01*
X109845000Y-124273474D01*
X109843098Y-124292788D01*
X109814429Y-124436913D01*
X109808795Y-124455485D01*
X109752559Y-124591250D01*
X109743411Y-124608365D01*
X109661772Y-124730547D01*
X109649460Y-124745550D01*
X109545550Y-124849460D01*
X109530547Y-124861772D01*
X109408365Y-124943411D01*
X109391250Y-124952559D01*
X109255485Y-125008795D01*
X109236913Y-125014429D01*
X109092787Y-125043098D01*
X109073475Y-125045000D01*
X108926525Y-125045000D01*
X108907211Y-125043098D01*
X108763085Y-125014429D01*
X108744513Y-125008795D01*
X108608748Y-124952559D01*
X108591633Y-124943411D01*
X108469451Y-124861772D01*
X108454448Y-124849460D01*
X108350537Y-124745549D01*
X108338225Y-124730546D01*
X108332265Y-124721626D01*
X108256584Y-124608360D01*
X108247437Y-124591246D01*
X108202589Y-124482973D01*
X108186478Y-124455485D01*
X108174115Y-124434391D01*
X108174113Y-124434388D01*
X108174110Y-124434383D01*
X108140845Y-124392188D01*
X108140842Y-124392184D01*
X108132871Y-124383414D01*
X108121471Y-124370871D01*
X108042965Y-124323966D01*
X108042957Y-124323962D01*
X107984767Y-124305056D01*
X107984770Y-124305056D01*
X107940082Y-124297979D01*
X107885566Y-124270202D01*
X107857788Y-124215685D01*
X107867359Y-124155253D01*
X107910624Y-124111989D01*
X107942005Y-124102132D01*
X107977047Y-124097285D01*
X107985351Y-124094943D01*
X108028774Y-124082697D01*
X108028776Y-124082696D01*
X108028784Y-124082694D01*
X108055872Y-124072959D01*
X108055872Y-124072958D01*
X108055877Y-124072957D01*
X108129258Y-124018374D01*
X108168995Y-123971848D01*
X108202589Y-123917027D01*
X108247442Y-123808739D01*
X108256579Y-123791644D01*
X108338227Y-123669448D01*
X108350530Y-123654456D01*
X108454456Y-123550530D01*
X108469448Y-123538227D01*
X108591639Y-123456582D01*
X108608746Y-123447439D01*
X108744517Y-123391201D01*
X108763082Y-123385569D01*
X108835147Y-123371235D01*
X108907209Y-123356902D01*
X108926522Y-123355000D01*
X109073477Y-123355000D01*
X109092791Y-123356902D01*
G37*
%TD.AperFunction*%
%TA.AperFunction,Conductor*%
G36*
X153784012Y-62504843D02*
G01*
X153794849Y-62508365D01*
X153844349Y-62544326D01*
X153863259Y-62602516D01*
X153863259Y-62607390D01*
X153849994Y-62656893D01*
X153839743Y-62674647D01*
X153839470Y-62675060D01*
X153836776Y-62679787D01*
X153836773Y-62679791D01*
X153836771Y-62679795D01*
X153836768Y-62679801D01*
X153743950Y-62903885D01*
X153743948Y-62903894D01*
X153743944Y-62903907D01*
X153681512Y-63136902D01*
X153681160Y-63138217D01*
X153680314Y-63144646D01*
X153680314Y-63144651D01*
X153679341Y-63152046D01*
X153649500Y-63378710D01*
X153649500Y-63621289D01*
X153657568Y-63682579D01*
X153646419Y-63742739D01*
X153602037Y-63784856D01*
X153559416Y-63794500D01*
X147099007Y-63794500D01*
X147099000Y-63794500D01*
X147066856Y-63797030D01*
X147036206Y-63801883D01*
X147031718Y-63802646D01*
X147031713Y-63802647D01*
X146947617Y-63838591D01*
X146898118Y-63874555D01*
X146870372Y-63898797D01*
X146823464Y-63977307D01*
X146823462Y-63977310D01*
X146804556Y-64035499D01*
X146794500Y-64098996D01*
X146794500Y-64099000D01*
X146794500Y-68350500D01*
X146797030Y-68382643D01*
X146801883Y-68413293D01*
X146802646Y-68417781D01*
X146802647Y-68417786D01*
X146838591Y-68501882D01*
X146838592Y-68501883D01*
X146874556Y-68551383D01*
X146898797Y-68579128D01*
X146977307Y-68626036D01*
X147035498Y-68644943D01*
X147047552Y-68646852D01*
X147098996Y-68655000D01*
X147099000Y-68655000D01*
X147206000Y-68655000D01*
X147264191Y-68673907D01*
X147300155Y-68723407D01*
X147305000Y-68754000D01*
X147305000Y-70246000D01*
X147286093Y-70304191D01*
X147236593Y-70340155D01*
X147206000Y-70345000D01*
X145714000Y-70345000D01*
X145655809Y-70326093D01*
X145619845Y-70276593D01*
X145615000Y-70246000D01*
X145615000Y-68754000D01*
X145633907Y-68695809D01*
X145683407Y-68659845D01*
X145714000Y-68655000D01*
X145900993Y-68655000D01*
X145901000Y-68655000D01*
X145933144Y-68652470D01*
X145963737Y-68647625D01*
X145963748Y-68647623D01*
X145963793Y-68647616D01*
X145968281Y-68646853D01*
X145968280Y-68646853D01*
X145968287Y-68646852D01*
X146052383Y-68610908D01*
X146101883Y-68574944D01*
X146129628Y-68550703D01*
X146176536Y-68472193D01*
X146195443Y-68414002D01*
X146205500Y-68350500D01*
X146205500Y-64099000D01*
X146202970Y-64066856D01*
X146198125Y-64036263D01*
X146198116Y-64036206D01*
X146197353Y-64031714D01*
X146197352Y-64031713D01*
X146161408Y-63947617D01*
X146125444Y-63898117D01*
X146101203Y-63870372D01*
X146022693Y-63823464D01*
X146022691Y-63823463D01*
X146022689Y-63823462D01*
X145964499Y-63804556D01*
X145964500Y-63804556D01*
X145901003Y-63794500D01*
X145901000Y-63794500D01*
X132099000Y-63794500D01*
X132066856Y-63797030D01*
X132036206Y-63801883D01*
X132031718Y-63802646D01*
X132031713Y-63802647D01*
X131947617Y-63838591D01*
X131898118Y-63874555D01*
X131870372Y-63898797D01*
X131823464Y-63977307D01*
X131823462Y-63977310D01*
X131804556Y-64035499D01*
X131794500Y-64098996D01*
X131794500Y-64099000D01*
X131794500Y-65850500D01*
X131797030Y-65882643D01*
X131801883Y-65913293D01*
X131802646Y-65917781D01*
X131802647Y-65917786D01*
X131838591Y-66001882D01*
X131838592Y-66001883D01*
X131874556Y-66051383D01*
X131898797Y-66079128D01*
X131977307Y-66126036D01*
X132035498Y-66144943D01*
X132047552Y-66146852D01*
X132098996Y-66155000D01*
X132099000Y-66155000D01*
X132246000Y-66155000D01*
X132304191Y-66173907D01*
X132340155Y-66223407D01*
X132345000Y-66254000D01*
X132345000Y-67746000D01*
X132326093Y-67804191D01*
X132276593Y-67840155D01*
X132246000Y-67845000D01*
X130754000Y-67845000D01*
X130695809Y-67826093D01*
X130659845Y-67776593D01*
X130655000Y-67746000D01*
X130655000Y-66254000D01*
X130673907Y-66195809D01*
X130723407Y-66159845D01*
X130754000Y-66155000D01*
X130900993Y-66155000D01*
X130901000Y-66155000D01*
X130933144Y-66152470D01*
X130963737Y-66147625D01*
X130963748Y-66147623D01*
X130963793Y-66147616D01*
X130968281Y-66146853D01*
X130968280Y-66146853D01*
X130968287Y-66146852D01*
X131052383Y-66110908D01*
X131101883Y-66074944D01*
X131129628Y-66050703D01*
X131176536Y-65972193D01*
X131195443Y-65914002D01*
X131205500Y-65850500D01*
X131205500Y-64099000D01*
X131202970Y-64066856D01*
X131198125Y-64036263D01*
X131198116Y-64036206D01*
X131197353Y-64031714D01*
X131197352Y-64031713D01*
X131161408Y-63947617D01*
X131125444Y-63898117D01*
X131101203Y-63870372D01*
X131022693Y-63823464D01*
X131022691Y-63823463D01*
X131022689Y-63823462D01*
X130964499Y-63804556D01*
X130964500Y-63804556D01*
X130901003Y-63794500D01*
X130901000Y-63794500D01*
X112599000Y-63794500D01*
X112566856Y-63797030D01*
X112536206Y-63801883D01*
X112531718Y-63802646D01*
X112531713Y-63802647D01*
X112447617Y-63838591D01*
X112398118Y-63874555D01*
X112370372Y-63898797D01*
X112323464Y-63977307D01*
X112323462Y-63977310D01*
X112304556Y-64035499D01*
X112294500Y-64098996D01*
X112294500Y-64099000D01*
X112294500Y-73100500D01*
X112297030Y-73132643D01*
X112301883Y-73163293D01*
X112302646Y-73167781D01*
X112302647Y-73167786D01*
X112338591Y-73251882D01*
X112338592Y-73251883D01*
X112374556Y-73301383D01*
X112398797Y-73329128D01*
X112477307Y-73376036D01*
X112535498Y-73394943D01*
X112547238Y-73396802D01*
X112574246Y-73401080D01*
X112628763Y-73428856D01*
X112656541Y-73483373D01*
X112646970Y-73543805D01*
X112603706Y-73587070D01*
X112568746Y-73596932D01*
X112568790Y-73597301D01*
X112566870Y-73597528D01*
X112566858Y-73597529D01*
X112566856Y-73597530D01*
X112561517Y-73598375D01*
X112536206Y-73602383D01*
X112531718Y-73603146D01*
X112531713Y-73603147D01*
X112447617Y-73639091D01*
X112398118Y-73675055D01*
X112370372Y-73699297D01*
X112323464Y-73777807D01*
X112323462Y-73777810D01*
X112304556Y-73835999D01*
X112294500Y-73899496D01*
X112294500Y-73899500D01*
X112294500Y-78401000D01*
X112297030Y-78433143D01*
X112301883Y-78463793D01*
X112302646Y-78468281D01*
X112302647Y-78468286D01*
X112338591Y-78552382D01*
X112338592Y-78552383D01*
X112374556Y-78601883D01*
X112398797Y-78629628D01*
X112477307Y-78676536D01*
X112535498Y-78695443D01*
X112547552Y-78697352D01*
X112598996Y-78705500D01*
X112599000Y-78705500D01*
X130900993Y-78705500D01*
X130901000Y-78705500D01*
X130933144Y-78702970D01*
X130963737Y-78698125D01*
X130963748Y-78698123D01*
X130963793Y-78698116D01*
X130968281Y-78697353D01*
X130968280Y-78697353D01*
X130968287Y-78697352D01*
X131052383Y-78661408D01*
X131101883Y-78625444D01*
X131129628Y-78601203D01*
X131176536Y-78522693D01*
X131195443Y-78464502D01*
X131205500Y-78401000D01*
X131205500Y-76149500D01*
X131202970Y-76117356D01*
X131198125Y-76086763D01*
X131198116Y-76086706D01*
X131197353Y-76082214D01*
X131197352Y-76082213D01*
X131161408Y-75998117D01*
X131125444Y-75948617D01*
X131101203Y-75920872D01*
X131022693Y-75873964D01*
X131022691Y-75873963D01*
X131022689Y-75873962D01*
X130964499Y-75855056D01*
X130964500Y-75855056D01*
X130901003Y-75845000D01*
X130901000Y-75845000D01*
X130754000Y-75845000D01*
X130695809Y-75826093D01*
X130659845Y-75776593D01*
X130655000Y-75746000D01*
X130655000Y-74254000D01*
X130673907Y-74195809D01*
X130723407Y-74159845D01*
X130754000Y-74155000D01*
X132246000Y-74155000D01*
X132304191Y-74173907D01*
X132340155Y-74223407D01*
X132345000Y-74254000D01*
X132345000Y-75746000D01*
X132326093Y-75804191D01*
X132276593Y-75840155D01*
X132246000Y-75845000D01*
X132099000Y-75845000D01*
X132066856Y-75847530D01*
X132036206Y-75852383D01*
X132031718Y-75853146D01*
X132031713Y-75853147D01*
X131947617Y-75889091D01*
X131898118Y-75925055D01*
X131870372Y-75949297D01*
X131823464Y-76027807D01*
X131823462Y-76027810D01*
X131804556Y-76085999D01*
X131794500Y-76149496D01*
X131794500Y-76149500D01*
X131794500Y-78401000D01*
X131797030Y-78433143D01*
X131801883Y-78463793D01*
X131802646Y-78468281D01*
X131802647Y-78468286D01*
X131838591Y-78552382D01*
X131838592Y-78552383D01*
X131874556Y-78601883D01*
X131898797Y-78629628D01*
X131977307Y-78676536D01*
X132035498Y-78695443D01*
X132047552Y-78697352D01*
X132098996Y-78705500D01*
X132099000Y-78705500D01*
X145900993Y-78705500D01*
X145901000Y-78705500D01*
X145933144Y-78702970D01*
X145963737Y-78698125D01*
X145963748Y-78698123D01*
X145963793Y-78698116D01*
X145968281Y-78697353D01*
X145968280Y-78697353D01*
X145968287Y-78697352D01*
X146052383Y-78661408D01*
X146101883Y-78625444D01*
X146129628Y-78601203D01*
X146176536Y-78522693D01*
X146195443Y-78464502D01*
X146205500Y-78401000D01*
X146205500Y-76149500D01*
X146202970Y-76117356D01*
X146198125Y-76086763D01*
X146198116Y-76086706D01*
X146197353Y-76082214D01*
X146197352Y-76082213D01*
X146161408Y-75998117D01*
X146125444Y-75948617D01*
X146101203Y-75920872D01*
X146022693Y-75873964D01*
X146022691Y-75873963D01*
X146022689Y-75873962D01*
X145964499Y-75855056D01*
X145964500Y-75855056D01*
X145901003Y-75845000D01*
X145901000Y-75845000D01*
X145754000Y-75845000D01*
X145695809Y-75826093D01*
X145659845Y-75776593D01*
X145655000Y-75746000D01*
X145655000Y-74254000D01*
X145673907Y-74195809D01*
X145723407Y-74159845D01*
X145754000Y-74155000D01*
X147246000Y-74155000D01*
X147304191Y-74173907D01*
X147340155Y-74223407D01*
X147345000Y-74254000D01*
X147345000Y-75746000D01*
X147326093Y-75804191D01*
X147276593Y-75840155D01*
X147246000Y-75845000D01*
X147099000Y-75845000D01*
X147066856Y-75847530D01*
X147036206Y-75852383D01*
X147031718Y-75853146D01*
X147031713Y-75853147D01*
X146947617Y-75889091D01*
X146898118Y-75925055D01*
X146870372Y-75949297D01*
X146823464Y-76027807D01*
X146823462Y-76027810D01*
X146804556Y-76085999D01*
X146794500Y-76149496D01*
X146794500Y-76149500D01*
X146794500Y-78401000D01*
X146797030Y-78433143D01*
X146801883Y-78463793D01*
X146802646Y-78468281D01*
X146802647Y-78468286D01*
X146838591Y-78552382D01*
X146838592Y-78552383D01*
X146874556Y-78601883D01*
X146898797Y-78629628D01*
X146977307Y-78676536D01*
X147035498Y-78695443D01*
X147047552Y-78697352D01*
X147098996Y-78705500D01*
X147099000Y-78705500D01*
X156400993Y-78705500D01*
X156401000Y-78705500D01*
X156433144Y-78702970D01*
X156463737Y-78698125D01*
X156463748Y-78698123D01*
X156463793Y-78698116D01*
X156468281Y-78697353D01*
X156468280Y-78697353D01*
X156468287Y-78697352D01*
X156552383Y-78661408D01*
X156601883Y-78625444D01*
X156629628Y-78601203D01*
X156676536Y-78522693D01*
X156695443Y-78464502D01*
X156705500Y-78401000D01*
X156705500Y-65230896D01*
X156704375Y-65209420D01*
X156702212Y-65188836D01*
X156675806Y-65107562D01*
X156648284Y-65059894D01*
X156635562Y-65000046D01*
X156660448Y-64944150D01*
X156673745Y-64931857D01*
X156722738Y-64894265D01*
X156894265Y-64722738D01*
X157041936Y-64530289D01*
X157163224Y-64320212D01*
X157256054Y-64096100D01*
X157309639Y-63896117D01*
X157321985Y-63868749D01*
X157322239Y-63867822D01*
X157326331Y-63861521D01*
X157326506Y-63861378D01*
X157326879Y-63860818D01*
X157343056Y-63847979D01*
X157373883Y-63823021D01*
X157374550Y-63822986D01*
X157374806Y-63822783D01*
X157394180Y-63821958D01*
X157434984Y-63819823D01*
X157435561Y-63820197D01*
X157435936Y-63820182D01*
X157454479Y-63832485D01*
X157486296Y-63853151D01*
X157486590Y-63853791D01*
X157486920Y-63854010D01*
X157487904Y-63856652D01*
X157506742Y-63897656D01*
X157506761Y-63897760D01*
X157507947Y-63910441D01*
X157508284Y-63911344D01*
X157508095Y-63912021D01*
X157508371Y-63914966D01*
X157999313Y-146883965D01*
X157994648Y-146914588D01*
X157990601Y-146927298D01*
X157968326Y-146958339D01*
X157962227Y-146970267D01*
X157958358Y-146972230D01*
X157954930Y-146977009D01*
X157950989Y-146979908D01*
X157907669Y-146997964D01*
X157907618Y-146997972D01*
X157891514Y-146999165D01*
X93114504Y-146500880D01*
X93083948Y-146495799D01*
X93071293Y-146491579D01*
X93022072Y-146455235D01*
X93022067Y-146455228D01*
X93019091Y-146451064D01*
X93000637Y-146392910D01*
X93007031Y-145318838D01*
X93018579Y-143378708D01*
X93649500Y-143378708D01*
X93649500Y-143621290D01*
X93680314Y-143855347D01*
X93680314Y-143855353D01*
X93681160Y-143861781D01*
X93681161Y-143861784D01*
X93681161Y-143861786D01*
X93743944Y-144096092D01*
X93743948Y-144096105D01*
X93743949Y-144096109D01*
X93743950Y-144096110D01*
X93836769Y-144320198D01*
X93836772Y-144320204D01*
X93836774Y-144320208D01*
X93836776Y-144320212D01*
X93958064Y-144530289D01*
X93958066Y-144530292D01*
X94105729Y-144722731D01*
X94105731Y-144722733D01*
X94105735Y-144722738D01*
X94277262Y-144894265D01*
X94277266Y-144894268D01*
X94277268Y-144894270D01*
X94277273Y-144894274D01*
X94277303Y-144894300D01*
X94277671Y-144894579D01*
X94469707Y-145041933D01*
X94469711Y-145041936D01*
X94679788Y-145163224D01*
X94903900Y-145256054D01*
X95138211Y-145318838D01*
X95378712Y-145350500D01*
X95378713Y-145350500D01*
X95621287Y-145350500D01*
X95621288Y-145350500D01*
X95861789Y-145318838D01*
X96096100Y-145256054D01*
X96320212Y-145163224D01*
X96530289Y-145041936D01*
X96722738Y-144894265D01*
X96894265Y-144722738D01*
X97041936Y-144530289D01*
X97163224Y-144320212D01*
X97256054Y-144096100D01*
X97318838Y-143861789D01*
X97350500Y-143621288D01*
X97350500Y-143378712D01*
X97318838Y-143138211D01*
X97256054Y-142903900D01*
X97230574Y-142842385D01*
X97225774Y-142781388D01*
X97257743Y-142729219D01*
X97314271Y-142705805D01*
X97322038Y-142705500D01*
X153677961Y-142705500D01*
X153736152Y-142724407D01*
X153772116Y-142773907D01*
X153772116Y-142835093D01*
X153769425Y-142842386D01*
X153743952Y-142903885D01*
X153743948Y-142903894D01*
X153743944Y-142903907D01*
X153681162Y-143138211D01*
X153681160Y-143138217D01*
X153680314Y-143144646D01*
X153680314Y-143144651D01*
X153649500Y-143378708D01*
X153649500Y-143621290D01*
X153680314Y-143855347D01*
X153680314Y-143855353D01*
X153681160Y-143861781D01*
X153681161Y-143861784D01*
X153681161Y-143861786D01*
X153743944Y-144096092D01*
X153743948Y-144096105D01*
X153743949Y-144096109D01*
X153743950Y-144096110D01*
X153836769Y-144320198D01*
X153836772Y-144320204D01*
X153836774Y-144320208D01*
X153836776Y-144320212D01*
X153958064Y-144530289D01*
X153958066Y-144530292D01*
X154105729Y-144722731D01*
X154105731Y-144722733D01*
X154105735Y-144722738D01*
X154277262Y-144894265D01*
X154277266Y-144894268D01*
X154277268Y-144894270D01*
X154277273Y-144894274D01*
X154277303Y-144894300D01*
X154277671Y-144894579D01*
X154469707Y-145041933D01*
X154469711Y-145041936D01*
X154679788Y-145163224D01*
X154903900Y-145256054D01*
X155138211Y-145318838D01*
X155378712Y-145350500D01*
X155378713Y-145350500D01*
X155621287Y-145350500D01*
X155621288Y-145350500D01*
X155861789Y-145318838D01*
X156096100Y-145256054D01*
X156320212Y-145163224D01*
X156530289Y-145041936D01*
X156722738Y-144894265D01*
X156894265Y-144722738D01*
X157041936Y-144530289D01*
X157163224Y-144320212D01*
X157256054Y-144096100D01*
X157318838Y-143861789D01*
X157350500Y-143621288D01*
X157350500Y-143378712D01*
X157318838Y-143138211D01*
X157256054Y-142903900D01*
X157163224Y-142679788D01*
X157041936Y-142469711D01*
X156894265Y-142277262D01*
X156722738Y-142105735D01*
X156722733Y-142105731D01*
X156722731Y-142105729D01*
X156722727Y-142105725D01*
X156672933Y-142067517D01*
X156638277Y-142017092D01*
X156639879Y-141955928D01*
X156648210Y-141938204D01*
X156676536Y-141890796D01*
X156695443Y-141832605D01*
X156705500Y-141769103D01*
X156705500Y-124939500D01*
X156702970Y-124907356D01*
X156698125Y-124876763D01*
X156698116Y-124876706D01*
X156697353Y-124872218D01*
X156697352Y-124872213D01*
X156661408Y-124788117D01*
X156660214Y-124786474D01*
X156625444Y-124738617D01*
X156601203Y-124710872D01*
X156522693Y-124663964D01*
X156522691Y-124663963D01*
X156522689Y-124663962D01*
X156464501Y-124645056D01*
X156425751Y-124638919D01*
X156371235Y-124611141D01*
X156343458Y-124556624D01*
X156353030Y-124496192D01*
X156396294Y-124452928D01*
X156431254Y-124443077D01*
X156431210Y-124442699D01*
X156433124Y-124442471D01*
X156433144Y-124442470D01*
X156463737Y-124437625D01*
X156463748Y-124437623D01*
X156463793Y-124437616D01*
X156468281Y-124436853D01*
X156468280Y-124436853D01*
X156468287Y-124436852D01*
X156552383Y-124400908D01*
X156601883Y-124364944D01*
X156629628Y-124340703D01*
X156676536Y-124262193D01*
X156695443Y-124204002D01*
X156703164Y-124155253D01*
X156705500Y-124140503D01*
X156705500Y-104599006D01*
X156705500Y-104599000D01*
X156702970Y-104566856D01*
X156698125Y-104536263D01*
X156698116Y-104536206D01*
X156697353Y-104531714D01*
X156697352Y-104531713D01*
X156661408Y-104447617D01*
X156653907Y-104437293D01*
X156625444Y-104398117D01*
X156601203Y-104370372D01*
X156522693Y-104323464D01*
X156522691Y-104323463D01*
X156522689Y-104323462D01*
X156464499Y-104304556D01*
X156464500Y-104304556D01*
X156401003Y-104294500D01*
X156401000Y-104294500D01*
X146299500Y-104294500D01*
X146241309Y-104275593D01*
X146205345Y-104226093D01*
X146200500Y-104195500D01*
X146200500Y-104185511D01*
X146170942Y-103998892D01*
X146170941Y-103998886D01*
X146170940Y-103998882D01*
X146112547Y-103819168D01*
X146026760Y-103650801D01*
X145915690Y-103497927D01*
X145782073Y-103364310D01*
X145782069Y-103364307D01*
X145782067Y-103364305D01*
X145637658Y-103259385D01*
X145637647Y-103259378D01*
X145629199Y-103253240D01*
X145629198Y-103253239D01*
X145629196Y-103253238D01*
X145460832Y-103167453D01*
X145281113Y-103109058D01*
X145281109Y-103109057D01*
X145277412Y-103107856D01*
X145277491Y-103107610D01*
X145260157Y-103101214D01*
X145251731Y-103096921D01*
X145208465Y-103053657D01*
X145198892Y-102993225D01*
X145226669Y-102938708D01*
X145267149Y-102918081D01*
X145267139Y-102918061D01*
X145274162Y-102914482D01*
X145274430Y-102914370D01*
X145281185Y-102910929D01*
X145283701Y-102910530D01*
X145288514Y-102908536D01*
X145460832Y-102852547D01*
X145629199Y-102766760D01*
X145782073Y-102655690D01*
X145915690Y-102522073D01*
X146026760Y-102369199D01*
X146112547Y-102200832D01*
X146170940Y-102021118D01*
X146170941Y-102021110D01*
X146200500Y-101834484D01*
X146200500Y-101645511D01*
X146170942Y-101458892D01*
X146170941Y-101458886D01*
X146170940Y-101458882D01*
X146112547Y-101279168D01*
X146026760Y-101110801D01*
X145915690Y-100957927D01*
X145782073Y-100824310D01*
X145782069Y-100824307D01*
X145782067Y-100824305D01*
X145637658Y-100719385D01*
X145637647Y-100719378D01*
X145629199Y-100713240D01*
X145629198Y-100713239D01*
X145629196Y-100713238D01*
X145460832Y-100627453D01*
X145281113Y-100569058D01*
X145281109Y-100569057D01*
X145277412Y-100567856D01*
X145277491Y-100567610D01*
X145260157Y-100561214D01*
X145251731Y-100556921D01*
X145208465Y-100513657D01*
X145198892Y-100453225D01*
X145226669Y-100398708D01*
X145267149Y-100378081D01*
X145267139Y-100378061D01*
X145274162Y-100374482D01*
X145274430Y-100374370D01*
X145281185Y-100370929D01*
X145283701Y-100370530D01*
X145288514Y-100368536D01*
X145460832Y-100312547D01*
X145629199Y-100226760D01*
X145782073Y-100115690D01*
X145915690Y-99982073D01*
X146026760Y-99829199D01*
X146112547Y-99660832D01*
X146170940Y-99481118D01*
X146170941Y-99481110D01*
X146200500Y-99294484D01*
X146200500Y-99105511D01*
X146170942Y-98918892D01*
X146170941Y-98918886D01*
X146170940Y-98918882D01*
X146112547Y-98739168D01*
X146026760Y-98570801D01*
X145915690Y-98417927D01*
X145782073Y-98284310D01*
X145782069Y-98284307D01*
X145782067Y-98284305D01*
X145637658Y-98179385D01*
X145637647Y-98179378D01*
X145629199Y-98173240D01*
X145629198Y-98173239D01*
X145629196Y-98173238D01*
X145460832Y-98087453D01*
X145281113Y-98029058D01*
X145281109Y-98029057D01*
X145277412Y-98027856D01*
X145277491Y-98027610D01*
X145260157Y-98021214D01*
X145251731Y-98016921D01*
X145208465Y-97973657D01*
X145198892Y-97913225D01*
X145226669Y-97858708D01*
X145267149Y-97838081D01*
X145267139Y-97838061D01*
X145274162Y-97834482D01*
X145274430Y-97834370D01*
X145281185Y-97830929D01*
X145283701Y-97830530D01*
X145288514Y-97828536D01*
X145460832Y-97772547D01*
X145629199Y-97686760D01*
X145782073Y-97575690D01*
X145915690Y-97442073D01*
X146026760Y-97289199D01*
X146112547Y-97120832D01*
X146170940Y-96941118D01*
X146170941Y-96941110D01*
X146200500Y-96754484D01*
X146200500Y-96565511D01*
X146170942Y-96378892D01*
X146170941Y-96378886D01*
X146170940Y-96378882D01*
X146112547Y-96199168D01*
X146026760Y-96030801D01*
X145915690Y-95877927D01*
X145782073Y-95744310D01*
X145782069Y-95744307D01*
X145782067Y-95744305D01*
X145637658Y-95639385D01*
X145637647Y-95639378D01*
X145629199Y-95633240D01*
X145629198Y-95633239D01*
X145629196Y-95633238D01*
X145460832Y-95547453D01*
X145281113Y-95489058D01*
X145281109Y-95489057D01*
X145277412Y-95487856D01*
X145277491Y-95487610D01*
X145260157Y-95481214D01*
X145251731Y-95476921D01*
X145208465Y-95433657D01*
X145198892Y-95373225D01*
X145226669Y-95318708D01*
X145267149Y-95298081D01*
X145267139Y-95298061D01*
X145274162Y-95294482D01*
X145274430Y-95294370D01*
X145281185Y-95290929D01*
X145283701Y-95290530D01*
X145288514Y-95288536D01*
X145460832Y-95232547D01*
X145629199Y-95146760D01*
X145782073Y-95035690D01*
X145915690Y-94902073D01*
X146026760Y-94749199D01*
X146112547Y-94580832D01*
X146170940Y-94401118D01*
X146170941Y-94401110D01*
X146200500Y-94214484D01*
X146200500Y-94025511D01*
X146170942Y-93838892D01*
X146170941Y-93838886D01*
X146170940Y-93838882D01*
X146112547Y-93659168D01*
X146026760Y-93490801D01*
X145915690Y-93337927D01*
X145782073Y-93204310D01*
X145782069Y-93204307D01*
X145782067Y-93204305D01*
X145637658Y-93099385D01*
X145637647Y-93099378D01*
X145629199Y-93093240D01*
X145629198Y-93093239D01*
X145629196Y-93093238D01*
X145596400Y-93076528D01*
X145460832Y-93007453D01*
X145377249Y-92980295D01*
X145281113Y-92949058D01*
X145281109Y-92949057D01*
X145277412Y-92947856D01*
X145277491Y-92947610D01*
X145260157Y-92941214D01*
X145251731Y-92936921D01*
X145208465Y-92893657D01*
X145198892Y-92833225D01*
X145226669Y-92778708D01*
X145267149Y-92758081D01*
X145267139Y-92758061D01*
X145274162Y-92754482D01*
X145274430Y-92754370D01*
X145281185Y-92750929D01*
X145283701Y-92750530D01*
X145288514Y-92748536D01*
X145460832Y-92692547D01*
X145629199Y-92606760D01*
X145782073Y-92495690D01*
X145915690Y-92362073D01*
X146026760Y-92209199D01*
X146112547Y-92040832D01*
X146170940Y-91861118D01*
X146170941Y-91861113D01*
X146190168Y-91739719D01*
X146200500Y-91674487D01*
X146200500Y-91485511D01*
X146170942Y-91298892D01*
X146170941Y-91298886D01*
X146170940Y-91298882D01*
X146112547Y-91119168D01*
X146026760Y-90950801D01*
X145915690Y-90797927D01*
X145782073Y-90664310D01*
X145782069Y-90664307D01*
X145782067Y-90664305D01*
X145637658Y-90559385D01*
X145637647Y-90559378D01*
X145629199Y-90553240D01*
X145629198Y-90553239D01*
X145629196Y-90553238D01*
X145460832Y-90467453D01*
X145281113Y-90409058D01*
X145281109Y-90409057D01*
X145277412Y-90407856D01*
X145277491Y-90407610D01*
X145260157Y-90401214D01*
X145251731Y-90396921D01*
X145208465Y-90353657D01*
X145198892Y-90293225D01*
X145226669Y-90238708D01*
X145267149Y-90218081D01*
X145267139Y-90218061D01*
X145274162Y-90214482D01*
X145274430Y-90214370D01*
X145281185Y-90210929D01*
X145283701Y-90210530D01*
X145288514Y-90208536D01*
X145460832Y-90152547D01*
X145629199Y-90066760D01*
X145782073Y-89955690D01*
X145915690Y-89822073D01*
X146026760Y-89669199D01*
X146112547Y-89500832D01*
X146170940Y-89321118D01*
X146170941Y-89321110D01*
X146200500Y-89134484D01*
X146200500Y-88945511D01*
X146170942Y-88758892D01*
X146170941Y-88758886D01*
X146170940Y-88758882D01*
X146112547Y-88579168D01*
X146026760Y-88410801D01*
X145915690Y-88257927D01*
X145782073Y-88124310D01*
X145782069Y-88124307D01*
X145782067Y-88124305D01*
X145637658Y-88019385D01*
X145637647Y-88019378D01*
X145629199Y-88013240D01*
X145629198Y-88013239D01*
X145629196Y-88013238D01*
X145460832Y-87927453D01*
X145460831Y-87927452D01*
X145460828Y-87927451D01*
X145460825Y-87927449D01*
X145281113Y-87869057D01*
X145281114Y-87869057D01*
X145094488Y-87839500D01*
X145094484Y-87839500D01*
X145094481Y-87839500D01*
X144905519Y-87839500D01*
X144905516Y-87839500D01*
X144905512Y-87839500D01*
X144718887Y-87869057D01*
X144718881Y-87869058D01*
X144539173Y-87927449D01*
X144539170Y-87927451D01*
X144370803Y-88013237D01*
X144370797Y-88013241D01*
X144217933Y-88124304D01*
X144084304Y-88257933D01*
X143973241Y-88410797D01*
X143973237Y-88410803D01*
X143887451Y-88579170D01*
X143887449Y-88579173D01*
X143829057Y-88758885D01*
X143799500Y-88945510D01*
X143799500Y-89134487D01*
X143829057Y-89321110D01*
X143829431Y-89322465D01*
X143830071Y-89324234D01*
X143887449Y-89500825D01*
X143887451Y-89500828D01*
X143887452Y-89500831D01*
X143887453Y-89500832D01*
X143973240Y-89669199D01*
X144084310Y-89822073D01*
X144217927Y-89955690D01*
X144370801Y-90066760D01*
X144539168Y-90152547D01*
X144718882Y-90210940D01*
X144718883Y-90210940D01*
X144722402Y-90212083D01*
X144722403Y-90212084D01*
X144726293Y-90213348D01*
X144725928Y-90214469D01*
X144740915Y-90219332D01*
X144748261Y-90223075D01*
X144791529Y-90266334D01*
X144801107Y-90326765D01*
X144773335Y-90381284D01*
X144722449Y-90407218D01*
X144722673Y-90408149D01*
X144718894Y-90409055D01*
X144539166Y-90467453D01*
X144370803Y-90553237D01*
X144370797Y-90553241D01*
X144217933Y-90664304D01*
X144084304Y-90797933D01*
X143973241Y-90950797D01*
X143973237Y-90950803D01*
X143887451Y-91119170D01*
X143887449Y-91119173D01*
X143829057Y-91298885D01*
X143799500Y-91485510D01*
X143799500Y-91674488D01*
X143829057Y-91861113D01*
X143887449Y-92040825D01*
X143887451Y-92040828D01*
X143887452Y-92040831D01*
X143887453Y-92040832D01*
X143964982Y-92192993D01*
X143964983Y-92192994D01*
X143964982Y-92192994D01*
X143973234Y-92209190D01*
X143973238Y-92209196D01*
X143973240Y-92209199D01*
X144084310Y-92362073D01*
X144217927Y-92495690D01*
X144370801Y-92606760D01*
X144539168Y-92692547D01*
X144718882Y-92750940D01*
X144718883Y-92750940D01*
X144722402Y-92752083D01*
X144722403Y-92752084D01*
X144726293Y-92753348D01*
X144725928Y-92754469D01*
X144740915Y-92759332D01*
X144748261Y-92763075D01*
X144791529Y-92806334D01*
X144801107Y-92866765D01*
X144773335Y-92921284D01*
X144722449Y-92947218D01*
X144722673Y-92948149D01*
X144718894Y-92949055D01*
X144539166Y-93007453D01*
X144370803Y-93093237D01*
X144370797Y-93093241D01*
X144217933Y-93204304D01*
X144084304Y-93337933D01*
X143973241Y-93490797D01*
X143973237Y-93490803D01*
X143887451Y-93659170D01*
X143887449Y-93659173D01*
X143829057Y-93838885D01*
X143799500Y-94025510D01*
X143799500Y-94214487D01*
X143829057Y-94401110D01*
X143829431Y-94402465D01*
X143830071Y-94404234D01*
X143887449Y-94580825D01*
X143887451Y-94580828D01*
X143887452Y-94580831D01*
X143887453Y-94580832D01*
X143973240Y-94749199D01*
X144084310Y-94902073D01*
X144217927Y-95035690D01*
X144370801Y-95146760D01*
X144539168Y-95232547D01*
X144718882Y-95290940D01*
X144718883Y-95290940D01*
X144722402Y-95292083D01*
X144722403Y-95292084D01*
X144726293Y-95293348D01*
X144725928Y-95294469D01*
X144740915Y-95299332D01*
X144748261Y-95303075D01*
X144791529Y-95346334D01*
X144801107Y-95406765D01*
X144773335Y-95461284D01*
X144722449Y-95487218D01*
X144722673Y-95488149D01*
X144718894Y-95489055D01*
X144539166Y-95547453D01*
X144370803Y-95633237D01*
X144370797Y-95633241D01*
X144217933Y-95744304D01*
X144084304Y-95877933D01*
X143973241Y-96030797D01*
X143973237Y-96030803D01*
X143887451Y-96199170D01*
X143887449Y-96199173D01*
X143829057Y-96378885D01*
X143799500Y-96565510D01*
X143799500Y-96754487D01*
X143829057Y-96941110D01*
X143829431Y-96942465D01*
X143830071Y-96944234D01*
X143887449Y-97120825D01*
X143887451Y-97120828D01*
X143887452Y-97120831D01*
X143887453Y-97120832D01*
X143973240Y-97289199D01*
X144084310Y-97442073D01*
X144217927Y-97575690D01*
X144370801Y-97686760D01*
X144539168Y-97772547D01*
X144718882Y-97830940D01*
X144718883Y-97830940D01*
X144722402Y-97832083D01*
X144722403Y-97832084D01*
X144726293Y-97833348D01*
X144725928Y-97834469D01*
X144740915Y-97839332D01*
X144748261Y-97843075D01*
X144791529Y-97886334D01*
X144801107Y-97946765D01*
X144773335Y-98001284D01*
X144722449Y-98027218D01*
X144722673Y-98028149D01*
X144718894Y-98029055D01*
X144539166Y-98087453D01*
X144370803Y-98173237D01*
X144370797Y-98173241D01*
X144217933Y-98284304D01*
X144084304Y-98417933D01*
X143973241Y-98570797D01*
X143973237Y-98570803D01*
X143887451Y-98739170D01*
X143887449Y-98739173D01*
X143829057Y-98918885D01*
X143799500Y-99105510D01*
X143799500Y-99294487D01*
X143829057Y-99481110D01*
X143829431Y-99482465D01*
X143830071Y-99484234D01*
X143887449Y-99660825D01*
X143887451Y-99660828D01*
X143887452Y-99660831D01*
X143887453Y-99660832D01*
X143973240Y-99829199D01*
X144084310Y-99982073D01*
X144217927Y-100115690D01*
X144370801Y-100226760D01*
X144539168Y-100312547D01*
X144718882Y-100370940D01*
X144718883Y-100370940D01*
X144722402Y-100372083D01*
X144722403Y-100372084D01*
X144726293Y-100373348D01*
X144725928Y-100374469D01*
X144740915Y-100379332D01*
X144748261Y-100383075D01*
X144791529Y-100426334D01*
X144801107Y-100486765D01*
X144773335Y-100541284D01*
X144722449Y-100567218D01*
X144722673Y-100568149D01*
X144718894Y-100569055D01*
X144539166Y-100627453D01*
X144370803Y-100713237D01*
X144370797Y-100713241D01*
X144217933Y-100824304D01*
X144084304Y-100957933D01*
X143973241Y-101110797D01*
X143973237Y-101110803D01*
X143887451Y-101279170D01*
X143887449Y-101279173D01*
X143829057Y-101458885D01*
X143799500Y-101645510D01*
X143799500Y-101834487D01*
X143829057Y-102021110D01*
X143829431Y-102022465D01*
X143830071Y-102024234D01*
X143887449Y-102200825D01*
X143887451Y-102200828D01*
X143887452Y-102200831D01*
X143887453Y-102200832D01*
X143973240Y-102369199D01*
X144084310Y-102522073D01*
X144217927Y-102655690D01*
X144370801Y-102766760D01*
X144539168Y-102852547D01*
X144718882Y-102910940D01*
X144718883Y-102910940D01*
X144722402Y-102912083D01*
X144722403Y-102912084D01*
X144726293Y-102913348D01*
X144725928Y-102914469D01*
X144740915Y-102919332D01*
X144748261Y-102923075D01*
X144791529Y-102966334D01*
X144801107Y-103026765D01*
X144773335Y-103081284D01*
X144722449Y-103107218D01*
X144722673Y-103108149D01*
X144718894Y-103109055D01*
X144539166Y-103167453D01*
X144370803Y-103253237D01*
X144370797Y-103253241D01*
X144217933Y-103364304D01*
X144084304Y-103497933D01*
X143973241Y-103650797D01*
X143973237Y-103650803D01*
X143887451Y-103819170D01*
X143887449Y-103819173D01*
X143829057Y-103998885D01*
X143799500Y-104185510D01*
X143799500Y-104195500D01*
X143780593Y-104253691D01*
X143731093Y-104289655D01*
X143700500Y-104294500D01*
X120899500Y-104294500D01*
X120841309Y-104275593D01*
X120805345Y-104226093D01*
X120800500Y-104195500D01*
X120800500Y-104185511D01*
X120770942Y-103998892D01*
X120770941Y-103998886D01*
X120770940Y-103998882D01*
X120712547Y-103819168D01*
X120626760Y-103650801D01*
X120515690Y-103497927D01*
X120382073Y-103364310D01*
X120382069Y-103364307D01*
X120382067Y-103364305D01*
X120237658Y-103259385D01*
X120237647Y-103259378D01*
X120229199Y-103253240D01*
X120229198Y-103253239D01*
X120229196Y-103253238D01*
X120060832Y-103167453D01*
X119881113Y-103109058D01*
X119881109Y-103109057D01*
X119877412Y-103107856D01*
X119877491Y-103107610D01*
X119860157Y-103101214D01*
X119851731Y-103096921D01*
X119808465Y-103053657D01*
X119798892Y-102993225D01*
X119826669Y-102938708D01*
X119867149Y-102918081D01*
X119867139Y-102918061D01*
X119874162Y-102914482D01*
X119874430Y-102914370D01*
X119881185Y-102910929D01*
X119883701Y-102910530D01*
X119888514Y-102908536D01*
X120060832Y-102852547D01*
X120229199Y-102766760D01*
X120382073Y-102655690D01*
X120515690Y-102522073D01*
X120626760Y-102369199D01*
X120712547Y-102200832D01*
X120770940Y-102021118D01*
X120770941Y-102021110D01*
X120800500Y-101834484D01*
X120800500Y-101645511D01*
X120770942Y-101458892D01*
X120770941Y-101458886D01*
X120770940Y-101458882D01*
X120712547Y-101279168D01*
X120626760Y-101110801D01*
X120515690Y-100957927D01*
X120382073Y-100824310D01*
X120382069Y-100824307D01*
X120382067Y-100824305D01*
X120237658Y-100719385D01*
X120237647Y-100719378D01*
X120229199Y-100713240D01*
X120229198Y-100713239D01*
X120229196Y-100713238D01*
X120060832Y-100627453D01*
X119881113Y-100569058D01*
X119881109Y-100569057D01*
X119877412Y-100567856D01*
X119877491Y-100567610D01*
X119860157Y-100561214D01*
X119851731Y-100556921D01*
X119808465Y-100513657D01*
X119798892Y-100453225D01*
X119826669Y-100398708D01*
X119867149Y-100378081D01*
X119867139Y-100378061D01*
X119874162Y-100374482D01*
X119874430Y-100374370D01*
X119881185Y-100370929D01*
X119883701Y-100370530D01*
X119888514Y-100368536D01*
X120060832Y-100312547D01*
X120229199Y-100226760D01*
X120382073Y-100115690D01*
X120515690Y-99982073D01*
X120626760Y-99829199D01*
X120712547Y-99660832D01*
X120770940Y-99481118D01*
X120770941Y-99481110D01*
X120800500Y-99294484D01*
X120800500Y-99105511D01*
X120770942Y-98918892D01*
X120770941Y-98918886D01*
X120770940Y-98918882D01*
X120712547Y-98739168D01*
X120626760Y-98570801D01*
X120515690Y-98417927D01*
X120382073Y-98284310D01*
X120382069Y-98284307D01*
X120382067Y-98284305D01*
X120237658Y-98179385D01*
X120237647Y-98179378D01*
X120229199Y-98173240D01*
X120229198Y-98173239D01*
X120229196Y-98173238D01*
X120060832Y-98087453D01*
X119881113Y-98029058D01*
X119881109Y-98029057D01*
X119877412Y-98027856D01*
X119877491Y-98027610D01*
X119860157Y-98021214D01*
X119851731Y-98016921D01*
X119808465Y-97973657D01*
X119798892Y-97913225D01*
X119826669Y-97858708D01*
X119867149Y-97838081D01*
X119867139Y-97838061D01*
X119874162Y-97834482D01*
X119874430Y-97834370D01*
X119881185Y-97830929D01*
X119883701Y-97830530D01*
X119888514Y-97828536D01*
X120060832Y-97772547D01*
X120229199Y-97686760D01*
X120382073Y-97575690D01*
X120515690Y-97442073D01*
X120626760Y-97289199D01*
X120712547Y-97120832D01*
X120770940Y-96941118D01*
X120770941Y-96941110D01*
X120800500Y-96754484D01*
X120800500Y-96565511D01*
X120770942Y-96378892D01*
X120770941Y-96378886D01*
X120770940Y-96378882D01*
X120712547Y-96199168D01*
X120626760Y-96030801D01*
X120515690Y-95877927D01*
X120382073Y-95744310D01*
X120382069Y-95744307D01*
X120382067Y-95744305D01*
X120237658Y-95639385D01*
X120237647Y-95639378D01*
X120229199Y-95633240D01*
X120229198Y-95633239D01*
X120229196Y-95633238D01*
X120060832Y-95547453D01*
X119881113Y-95489058D01*
X119881109Y-95489057D01*
X119877412Y-95487856D01*
X119877491Y-95487610D01*
X119860157Y-95481214D01*
X119851731Y-95476921D01*
X119808465Y-95433657D01*
X119798892Y-95373225D01*
X119826669Y-95318708D01*
X119867149Y-95298081D01*
X119867139Y-95298061D01*
X119874162Y-95294482D01*
X119874430Y-95294370D01*
X119881185Y-95290929D01*
X119883701Y-95290530D01*
X119888514Y-95288536D01*
X120060832Y-95232547D01*
X120229199Y-95146760D01*
X120382073Y-95035690D01*
X120515690Y-94902073D01*
X120626760Y-94749199D01*
X120712547Y-94580832D01*
X120770940Y-94401118D01*
X120770941Y-94401110D01*
X120800500Y-94214484D01*
X120800500Y-94025511D01*
X120770942Y-93838892D01*
X120770941Y-93838886D01*
X120770940Y-93838882D01*
X120712547Y-93659168D01*
X120626760Y-93490801D01*
X120515690Y-93337927D01*
X120382073Y-93204310D01*
X120382069Y-93204307D01*
X120382067Y-93204305D01*
X120237658Y-93099385D01*
X120237647Y-93099378D01*
X120229199Y-93093240D01*
X120229198Y-93093239D01*
X120229196Y-93093238D01*
X120196400Y-93076528D01*
X120060832Y-93007453D01*
X119977249Y-92980295D01*
X119881113Y-92949058D01*
X119881109Y-92949057D01*
X119877412Y-92947856D01*
X119877491Y-92947610D01*
X119860157Y-92941214D01*
X119851731Y-92936921D01*
X119808465Y-92893657D01*
X119798892Y-92833225D01*
X119826669Y-92778708D01*
X119867149Y-92758081D01*
X119867139Y-92758061D01*
X119874162Y-92754482D01*
X119874430Y-92754370D01*
X119881185Y-92750929D01*
X119883701Y-92750530D01*
X119888514Y-92748536D01*
X120060832Y-92692547D01*
X120229199Y-92606760D01*
X120382073Y-92495690D01*
X120515690Y-92362073D01*
X120626760Y-92209199D01*
X120712547Y-92040832D01*
X120770940Y-91861118D01*
X120770941Y-91861113D01*
X120790168Y-91739719D01*
X120800500Y-91674487D01*
X120800500Y-91485511D01*
X120770942Y-91298892D01*
X120770941Y-91298886D01*
X120770940Y-91298882D01*
X120712547Y-91119168D01*
X120626760Y-90950801D01*
X120515690Y-90797927D01*
X120382073Y-90664310D01*
X120382069Y-90664307D01*
X120382067Y-90664305D01*
X120237658Y-90559385D01*
X120237647Y-90559378D01*
X120229199Y-90553240D01*
X120229198Y-90553239D01*
X120229196Y-90553238D01*
X120060832Y-90467453D01*
X119881113Y-90409058D01*
X119881109Y-90409057D01*
X119877412Y-90407856D01*
X119877491Y-90407610D01*
X119860157Y-90401214D01*
X119851731Y-90396921D01*
X119808465Y-90353657D01*
X119798892Y-90293225D01*
X119826669Y-90238708D01*
X119867149Y-90218081D01*
X119867139Y-90218061D01*
X119874162Y-90214482D01*
X119874430Y-90214370D01*
X119881185Y-90210929D01*
X119883701Y-90210530D01*
X119888514Y-90208536D01*
X120060832Y-90152547D01*
X120229199Y-90066760D01*
X120382073Y-89955690D01*
X120515690Y-89822073D01*
X120626760Y-89669199D01*
X120712547Y-89500832D01*
X120770940Y-89321118D01*
X120770941Y-89321110D01*
X120800500Y-89134484D01*
X120800500Y-88945511D01*
X120770942Y-88758892D01*
X120770941Y-88758886D01*
X120770940Y-88758882D01*
X120712547Y-88579168D01*
X120626760Y-88410801D01*
X120515690Y-88257927D01*
X120382073Y-88124310D01*
X120382069Y-88124307D01*
X120382067Y-88124305D01*
X120237658Y-88019385D01*
X120237647Y-88019378D01*
X120229199Y-88013240D01*
X120229198Y-88013239D01*
X120229196Y-88013238D01*
X120060832Y-87927453D01*
X120060831Y-87927452D01*
X120060828Y-87927451D01*
X120060825Y-87927449D01*
X119971725Y-87898499D01*
X119944130Y-87884439D01*
X119937461Y-87879594D01*
X119901495Y-87830096D01*
X119901493Y-87768910D01*
X119937456Y-87719409D01*
X119995646Y-87700500D01*
X120619747Y-87700500D01*
X120619748Y-87700500D01*
X120678231Y-87688867D01*
X120744552Y-87644552D01*
X120788867Y-87578231D01*
X120800500Y-87519748D01*
X120800500Y-85480252D01*
X120788867Y-85421769D01*
X120744552Y-85355448D01*
X120744548Y-85355445D01*
X120744544Y-85355442D01*
X120678232Y-85311133D01*
X120678227Y-85311131D01*
X120678025Y-85311063D01*
X120676488Y-85310786D01*
X120619768Y-85299503D01*
X120619758Y-85299501D01*
X120619753Y-85299500D01*
X120619750Y-85299500D01*
X120619748Y-85299500D01*
X118580252Y-85299500D01*
X118580251Y-85299500D01*
X118580245Y-85299500D01*
X118521778Y-85311130D01*
X118521763Y-85311135D01*
X118455454Y-85355442D01*
X118455442Y-85355454D01*
X118411135Y-85421763D01*
X118411130Y-85421778D01*
X118399500Y-85480245D01*
X118399500Y-87519753D01*
X118399501Y-87519758D01*
X118411132Y-87578227D01*
X118411133Y-87578231D01*
X118455448Y-87644552D01*
X118521769Y-87688867D01*
X118544000Y-87693289D01*
X118566228Y-87697711D01*
X118566231Y-87697711D01*
X118574159Y-87699288D01*
X118576324Y-87699861D01*
X118578514Y-87700217D01*
X118580081Y-87700500D01*
X118580252Y-87700500D01*
X118580253Y-87700500D01*
X119196914Y-87700500D01*
X119227506Y-87705345D01*
X119235345Y-87707892D01*
X119284845Y-87743856D01*
X119303753Y-87802046D01*
X119284846Y-87860237D01*
X119235346Y-87896201D01*
X119139173Y-87927449D01*
X119139170Y-87927451D01*
X118970803Y-88013237D01*
X118970797Y-88013241D01*
X118817933Y-88124304D01*
X118684304Y-88257933D01*
X118573241Y-88410797D01*
X118573237Y-88410803D01*
X118487451Y-88579170D01*
X118487449Y-88579173D01*
X118429057Y-88758885D01*
X118399500Y-88945510D01*
X118399500Y-89134487D01*
X118429057Y-89321110D01*
X118429431Y-89322465D01*
X118430071Y-89324234D01*
X118487449Y-89500825D01*
X118487451Y-89500828D01*
X118487452Y-89500831D01*
X118487453Y-89500832D01*
X118573240Y-89669199D01*
X118684310Y-89822073D01*
X118817927Y-89955690D01*
X118970801Y-90066760D01*
X119139168Y-90152547D01*
X119318882Y-90210940D01*
X119318883Y-90210940D01*
X119322402Y-90212083D01*
X119322403Y-90212084D01*
X119326293Y-90213348D01*
X119325928Y-90214469D01*
X119340915Y-90219332D01*
X119348261Y-90223075D01*
X119391529Y-90266334D01*
X119401107Y-90326765D01*
X119373335Y-90381284D01*
X119322449Y-90407218D01*
X119322673Y-90408149D01*
X119318894Y-90409055D01*
X119139166Y-90467453D01*
X118970803Y-90553237D01*
X118970797Y-90553241D01*
X118817933Y-90664304D01*
X118684304Y-90797933D01*
X118573241Y-90950797D01*
X118573237Y-90950803D01*
X118487451Y-91119170D01*
X118487449Y-91119173D01*
X118429057Y-91298885D01*
X118399500Y-91485510D01*
X118399500Y-91674488D01*
X118429057Y-91861113D01*
X118487449Y-92040825D01*
X118487451Y-92040828D01*
X118487452Y-92040831D01*
X118487453Y-92040832D01*
X118564982Y-92192993D01*
X118564983Y-92192994D01*
X118564982Y-92192994D01*
X118573234Y-92209190D01*
X118573238Y-92209196D01*
X118573240Y-92209199D01*
X118684310Y-92362073D01*
X118817927Y-92495690D01*
X118970801Y-92606760D01*
X119139168Y-92692547D01*
X119318882Y-92750940D01*
X119318883Y-92750940D01*
X119322402Y-92752083D01*
X119322403Y-92752084D01*
X119326293Y-92753348D01*
X119325928Y-92754469D01*
X119340915Y-92759332D01*
X119348261Y-92763075D01*
X119391529Y-92806334D01*
X119401107Y-92866765D01*
X119373335Y-92921284D01*
X119322449Y-92947218D01*
X119322673Y-92948149D01*
X119318894Y-92949055D01*
X119139166Y-93007453D01*
X118970803Y-93093237D01*
X118970797Y-93093241D01*
X118817933Y-93204304D01*
X118684304Y-93337933D01*
X118573241Y-93490797D01*
X118573237Y-93490803D01*
X118487451Y-93659170D01*
X118487449Y-93659173D01*
X118429057Y-93838885D01*
X118399500Y-94025510D01*
X118399500Y-94214487D01*
X118429057Y-94401110D01*
X118429431Y-94402465D01*
X118430071Y-94404234D01*
X118487449Y-94580825D01*
X118487451Y-94580828D01*
X118487452Y-94580831D01*
X118487453Y-94580832D01*
X118573240Y-94749199D01*
X118684310Y-94902073D01*
X118817927Y-95035690D01*
X118970801Y-95146760D01*
X119139168Y-95232547D01*
X119318882Y-95290940D01*
X119318883Y-95290940D01*
X119322402Y-95292083D01*
X119322403Y-95292084D01*
X119326293Y-95293348D01*
X119325928Y-95294469D01*
X119340915Y-95299332D01*
X119348261Y-95303075D01*
X119391529Y-95346334D01*
X119401107Y-95406765D01*
X119373335Y-95461284D01*
X119322449Y-95487218D01*
X119322673Y-95488149D01*
X119318894Y-95489055D01*
X119139166Y-95547453D01*
X118970803Y-95633237D01*
X118970797Y-95633241D01*
X118817933Y-95744304D01*
X118684304Y-95877933D01*
X118573241Y-96030797D01*
X118573237Y-96030803D01*
X118487451Y-96199170D01*
X118487449Y-96199173D01*
X118429057Y-96378885D01*
X118399500Y-96565510D01*
X118399500Y-96754487D01*
X118429057Y-96941110D01*
X118429431Y-96942465D01*
X118430071Y-96944234D01*
X118487449Y-97120825D01*
X118487451Y-97120828D01*
X118487452Y-97120831D01*
X118487453Y-97120832D01*
X118573240Y-97289199D01*
X118684310Y-97442073D01*
X118817927Y-97575690D01*
X118970801Y-97686760D01*
X119139168Y-97772547D01*
X119318882Y-97830940D01*
X119318883Y-97830940D01*
X119322402Y-97832083D01*
X119322403Y-97832084D01*
X119326293Y-97833348D01*
X119325928Y-97834469D01*
X119340915Y-97839332D01*
X119348261Y-97843075D01*
X119391529Y-97886334D01*
X119401107Y-97946765D01*
X119373335Y-98001284D01*
X119322449Y-98027218D01*
X119322673Y-98028149D01*
X119318894Y-98029055D01*
X119139166Y-98087453D01*
X118970803Y-98173237D01*
X118970797Y-98173241D01*
X118817933Y-98284304D01*
X118684304Y-98417933D01*
X118573241Y-98570797D01*
X118573237Y-98570803D01*
X118487451Y-98739170D01*
X118487449Y-98739173D01*
X118429057Y-98918885D01*
X118399500Y-99105510D01*
X118399500Y-99294487D01*
X118429057Y-99481110D01*
X118429431Y-99482465D01*
X118430071Y-99484234D01*
X118487449Y-99660825D01*
X118487451Y-99660828D01*
X118487452Y-99660831D01*
X118487453Y-99660832D01*
X118573240Y-99829199D01*
X118684310Y-99982073D01*
X118817927Y-100115690D01*
X118970801Y-100226760D01*
X119139168Y-100312547D01*
X119318882Y-100370940D01*
X119318883Y-100370940D01*
X119322402Y-100372083D01*
X119322403Y-100372084D01*
X119326293Y-100373348D01*
X119325928Y-100374469D01*
X119340915Y-100379332D01*
X119348261Y-100383075D01*
X119391529Y-100426334D01*
X119401107Y-100486765D01*
X119373335Y-100541284D01*
X119322449Y-100567218D01*
X119322673Y-100568149D01*
X119318894Y-100569055D01*
X119139166Y-100627453D01*
X118970803Y-100713237D01*
X118970797Y-100713241D01*
X118817933Y-100824304D01*
X118684304Y-100957933D01*
X118573241Y-101110797D01*
X118573237Y-101110803D01*
X118487451Y-101279170D01*
X118487449Y-101279173D01*
X118429057Y-101458885D01*
X118399500Y-101645510D01*
X118399500Y-101834487D01*
X118429057Y-102021110D01*
X118429431Y-102022465D01*
X118430071Y-102024234D01*
X118487449Y-102200825D01*
X118487451Y-102200828D01*
X118487452Y-102200831D01*
X118487453Y-102200832D01*
X118573240Y-102369199D01*
X118684310Y-102522073D01*
X118817927Y-102655690D01*
X118970801Y-102766760D01*
X119139168Y-102852547D01*
X119318882Y-102910940D01*
X119318883Y-102910940D01*
X119322402Y-102912083D01*
X119322403Y-102912084D01*
X119326293Y-102913348D01*
X119325928Y-102914469D01*
X119340915Y-102919332D01*
X119348261Y-102923075D01*
X119391529Y-102966334D01*
X119401107Y-103026765D01*
X119373335Y-103081284D01*
X119322449Y-103107218D01*
X119322673Y-103108149D01*
X119318894Y-103109055D01*
X119139166Y-103167453D01*
X118970803Y-103253237D01*
X118970797Y-103253241D01*
X118817933Y-103364304D01*
X118684304Y-103497933D01*
X118573241Y-103650797D01*
X118573237Y-103650803D01*
X118487451Y-103819170D01*
X118487449Y-103819173D01*
X118429057Y-103998885D01*
X118399500Y-104185510D01*
X118399500Y-104195500D01*
X118380593Y-104253691D01*
X118331093Y-104289655D01*
X118300500Y-104294500D01*
X105795346Y-104294500D01*
X105747374Y-104300178D01*
X105702440Y-104310966D01*
X105702432Y-104310968D01*
X105695798Y-104312919D01*
X105682533Y-104316821D01*
X105605097Y-104365477D01*
X105605092Y-104365481D01*
X105561837Y-104408735D01*
X105538212Y-104437032D01*
X105538057Y-104437293D01*
X105537828Y-104437492D01*
X105533223Y-104443009D01*
X105532348Y-104442279D01*
X105491977Y-104477545D01*
X105431038Y-104483025D01*
X105422483Y-104480664D01*
X105257576Y-104427083D01*
X105086578Y-104400000D01*
X105086575Y-104400000D01*
X104913425Y-104400000D01*
X104913422Y-104400000D01*
X104742422Y-104427083D01*
X104574367Y-104481687D01*
X104513182Y-104481686D01*
X104463683Y-104445724D01*
X104429095Y-104398117D01*
X104404854Y-104370372D01*
X104326344Y-104323464D01*
X104326342Y-104323463D01*
X104326340Y-104323462D01*
X104268150Y-104304556D01*
X104268151Y-104304556D01*
X104204654Y-104294500D01*
X104204651Y-104294500D01*
X98799717Y-104294500D01*
X98799709Y-104294500D01*
X98736166Y-104304573D01*
X98677993Y-104323490D01*
X98677971Y-104323499D01*
X98644109Y-104337982D01*
X98644101Y-104337988D01*
X98575251Y-104398169D01*
X98575244Y-104398177D01*
X98540150Y-104446506D01*
X98490658Y-104482482D01*
X98429473Y-104482497D01*
X98428333Y-104482038D01*
X98257701Y-104426596D01*
X98257696Y-104426595D01*
X98086617Y-104399500D01*
X98086614Y-104399500D01*
X98086611Y-104399500D01*
X97913389Y-104399500D01*
X97913386Y-104399500D01*
X97913383Y-104399500D01*
X97742302Y-104426595D01*
X97742297Y-104426596D01*
X97623109Y-104465323D01*
X97577561Y-104480123D01*
X97577560Y-104480123D01*
X97571105Y-104482221D01*
X97570137Y-104479242D01*
X97522374Y-104485756D01*
X97468469Y-104456811D01*
X97459871Y-104446523D01*
X97441004Y-104420557D01*
X97424701Y-104398117D01*
X97400460Y-104370372D01*
X97321950Y-104323464D01*
X97321948Y-104323463D01*
X97321946Y-104323462D01*
X97263756Y-104304556D01*
X97263757Y-104304556D01*
X97200260Y-104294500D01*
X97200257Y-104294500D01*
X96099000Y-104294500D01*
X96066856Y-104297030D01*
X96036206Y-104301883D01*
X96031718Y-104302646D01*
X96031713Y-104302647D01*
X95947617Y-104338591D01*
X95898118Y-104374555D01*
X95870372Y-104398797D01*
X95823464Y-104477307D01*
X95823462Y-104477310D01*
X95804556Y-104535499D01*
X95794500Y-104598996D01*
X95794500Y-104599000D01*
X95794500Y-123800500D01*
X95795150Y-123808753D01*
X95797030Y-123832643D01*
X95801883Y-123863293D01*
X95802646Y-123867781D01*
X95802647Y-123867786D01*
X95838591Y-123951882D01*
X95846731Y-123963085D01*
X95874556Y-124001383D01*
X95898797Y-124029128D01*
X95977307Y-124076036D01*
X96035498Y-124094943D01*
X96047238Y-124096802D01*
X96074246Y-124101080D01*
X96128763Y-124128856D01*
X96156541Y-124183373D01*
X96146970Y-124243805D01*
X96103706Y-124287070D01*
X96068746Y-124296932D01*
X96068790Y-124297301D01*
X96066870Y-124297528D01*
X96066858Y-124297529D01*
X96066856Y-124297530D01*
X96061517Y-124298375D01*
X96036206Y-124302383D01*
X96031718Y-124303146D01*
X96031713Y-124303147D01*
X95947617Y-124339091D01*
X95898118Y-124375055D01*
X95870372Y-124399297D01*
X95823464Y-124477807D01*
X95823462Y-124477810D01*
X95804556Y-124535999D01*
X95794500Y-124599496D01*
X95794500Y-141559415D01*
X95775593Y-141617606D01*
X95726093Y-141653570D01*
X95682579Y-141657568D01*
X95621292Y-141649500D01*
X95621289Y-141649500D01*
X95621288Y-141649500D01*
X95378712Y-141649500D01*
X95378710Y-141649500D01*
X95378708Y-141649500D01*
X95144652Y-141680314D01*
X95144640Y-141680314D01*
X95138217Y-141681160D01*
X94903885Y-141743950D01*
X94679802Y-141836768D01*
X94469703Y-141958068D01*
X94277271Y-142105726D01*
X94105726Y-142277271D01*
X93958068Y-142469703D01*
X93836768Y-142679802D01*
X93743950Y-142903885D01*
X93681160Y-143138217D01*
X93680314Y-143144646D01*
X93680314Y-143144651D01*
X93649500Y-143378708D01*
X93018579Y-143378708D01*
X93018602Y-143374882D01*
X93032434Y-141051082D01*
X93045093Y-138924309D01*
X93325928Y-91743890D01*
X96899500Y-91743890D01*
X96899500Y-93256110D01*
X96910276Y-93330072D01*
X96966049Y-93444157D01*
X97055843Y-93533951D01*
X97169928Y-93589724D01*
X97243890Y-93600500D01*
X97243893Y-93600500D01*
X98756106Y-93600500D01*
X98756110Y-93600500D01*
X98830072Y-93589724D01*
X98944157Y-93533951D01*
X99033951Y-93444157D01*
X99089724Y-93330072D01*
X99100500Y-93256110D01*
X99100500Y-92413420D01*
X103900000Y-92413420D01*
X103900000Y-92586578D01*
X103927082Y-92757574D01*
X103980588Y-92922248D01*
X104059055Y-93076250D01*
X104059195Y-93076523D01*
X104152974Y-93205602D01*
X104505732Y-92852842D01*
X104519700Y-92845725D01*
X104530789Y-92834637D01*
X104546277Y-92832184D01*
X104560247Y-92825066D01*
X104575734Y-92827518D01*
X104591221Y-92825066D01*
X104605191Y-92832184D01*
X104620679Y-92834637D01*
X104645734Y-92852840D01*
X104647154Y-92854260D01*
X104674930Y-92908775D01*
X104665359Y-92969207D01*
X104647153Y-92994265D01*
X104294395Y-93347023D01*
X104294396Y-93347024D01*
X104422901Y-93440387D01*
X104423411Y-93440763D01*
X104423464Y-93440795D01*
X104423471Y-93440801D01*
X104423475Y-93440804D01*
X104577751Y-93519411D01*
X104742420Y-93572915D01*
X104742421Y-93572915D01*
X104742424Y-93572916D01*
X104913422Y-93600000D01*
X105086575Y-93600000D01*
X105086578Y-93600000D01*
X105257574Y-93572916D01*
X105257575Y-93572915D01*
X105257579Y-93572915D01*
X105422248Y-93519411D01*
X105576524Y-93440804D01*
X105576528Y-93440802D01*
X105576529Y-93440801D01*
X105576533Y-93440799D01*
X105636612Y-93397147D01*
X105705602Y-93347024D01*
X105352845Y-92994267D01*
X105345726Y-92980295D01*
X105334639Y-92969208D01*
X105332186Y-92953720D01*
X105325068Y-92939750D01*
X105327520Y-92924263D01*
X105325068Y-92908776D01*
X105332186Y-92894805D01*
X105334639Y-92879318D01*
X105352839Y-92854266D01*
X105354263Y-92852842D01*
X105408776Y-92825068D01*
X105469208Y-92834639D01*
X105494266Y-92852844D01*
X105847024Y-93205602D01*
X105897147Y-93136612D01*
X105940799Y-93076533D01*
X105940804Y-93076524D01*
X105940808Y-93076516D01*
X106019411Y-92922248D01*
X106072915Y-92757579D01*
X106073764Y-92752219D01*
X106100000Y-92586577D01*
X106100000Y-92413421D01*
X106072916Y-92242424D01*
X106062118Y-92209190D01*
X106019411Y-92077751D01*
X105940804Y-91923475D01*
X105940801Y-91923471D01*
X105940795Y-91923464D01*
X105940763Y-91923411D01*
X105940387Y-91922901D01*
X105847024Y-91794396D01*
X105847023Y-91794395D01*
X105494265Y-92147153D01*
X105480295Y-92154270D01*
X105469207Y-92165359D01*
X105453719Y-92167811D01*
X105439749Y-92174930D01*
X105424262Y-92172477D01*
X105408775Y-92174930D01*
X105394804Y-92167811D01*
X105379317Y-92165359D01*
X105354261Y-92147155D01*
X105352841Y-92145735D01*
X105325066Y-92091221D01*
X105334637Y-92030789D01*
X105352842Y-92005733D01*
X105705602Y-91652974D01*
X105576523Y-91559195D01*
X105576517Y-91559192D01*
X105576516Y-91559191D01*
X105422248Y-91480588D01*
X105257574Y-91427082D01*
X105086578Y-91400000D01*
X105086575Y-91400000D01*
X104913425Y-91400000D01*
X104913422Y-91400000D01*
X104742424Y-91427082D01*
X104577750Y-91480588D01*
X104423482Y-91559191D01*
X104423478Y-91559194D01*
X104294397Y-91652974D01*
X104294396Y-91652975D01*
X104647154Y-92005733D01*
X104654271Y-92019702D01*
X104665360Y-92030791D01*
X104667812Y-92046278D01*
X104674931Y-92060249D01*
X104672478Y-92075736D01*
X104674931Y-92091223D01*
X104667812Y-92105193D01*
X104665360Y-92120681D01*
X104647155Y-92145738D01*
X104647154Y-92145740D01*
X104645740Y-92147154D01*
X104591223Y-92174931D01*
X104530791Y-92165360D01*
X104505733Y-92147154D01*
X104152975Y-91794396D01*
X104152974Y-91794397D01*
X104059194Y-91923478D01*
X104059191Y-91923482D01*
X103980588Y-92077750D01*
X103927082Y-92242424D01*
X103900000Y-92413420D01*
X99100500Y-92413420D01*
X99100500Y-91743890D01*
X99089724Y-91669928D01*
X99033951Y-91555843D01*
X98944157Y-91466049D01*
X98830072Y-91410276D01*
X98756110Y-91399500D01*
X98756107Y-91399500D01*
X97243893Y-91399500D01*
X97243890Y-91399500D01*
X97199512Y-91405965D01*
X97169926Y-91410276D01*
X97055844Y-91466048D01*
X96966047Y-91555845D01*
X96964543Y-91558921D01*
X96964410Y-91559195D01*
X96910276Y-91669928D01*
X96899500Y-91743890D01*
X93325928Y-91743890D01*
X93373238Y-83795717D01*
X96399500Y-83795717D01*
X96399500Y-83795726D01*
X96399500Y-86204265D01*
X96402353Y-86234694D01*
X96447208Y-86362885D01*
X96527845Y-86472144D01*
X96527847Y-86472146D01*
X96527850Y-86472150D01*
X96527853Y-86472152D01*
X96527855Y-86472154D01*
X96528494Y-86472625D01*
X96528610Y-86472752D01*
X96529742Y-86473546D01*
X96637114Y-86552791D01*
X96637137Y-86552808D01*
X96637923Y-86553074D01*
X96765302Y-86597646D01*
X96795735Y-86600500D01*
X99204264Y-86600499D01*
X99204265Y-86600499D01*
X99210350Y-86599928D01*
X99234698Y-86597646D01*
X99362882Y-86552793D01*
X99472150Y-86472150D01*
X99525912Y-86399304D01*
X99552791Y-86362885D01*
X99552791Y-86362884D01*
X99552793Y-86362882D01*
X99597646Y-86234698D01*
X99597647Y-86234686D01*
X99598931Y-86228813D01*
X99600500Y-86229155D01*
X99600500Y-84874069D01*
X101400000Y-84874069D01*
X101400000Y-85125929D01*
X101439393Y-85374658D01*
X101484942Y-85514843D01*
X101517221Y-85614187D01*
X101631555Y-85838580D01*
X101779587Y-86042328D01*
X101797918Y-86060659D01*
X102399665Y-85458910D01*
X102413636Y-85451792D01*
X102424724Y-85440705D01*
X102440211Y-85438252D01*
X102454182Y-85431134D01*
X102469669Y-85433586D01*
X102485156Y-85431134D01*
X102499126Y-85438252D01*
X102514614Y-85440705D01*
X102539669Y-85458908D01*
X102541089Y-85460328D01*
X102568865Y-85514843D01*
X102559294Y-85575275D01*
X102541088Y-85600333D01*
X101939341Y-86202081D01*
X101939341Y-86202082D01*
X101957671Y-86220412D01*
X102161419Y-86368444D01*
X102385812Y-86482778D01*
X102625336Y-86560604D01*
X102625337Y-86560604D01*
X102625340Y-86560605D01*
X102874071Y-86600000D01*
X103125926Y-86600000D01*
X103125929Y-86600000D01*
X103374658Y-86560605D01*
X103374659Y-86560604D01*
X103374663Y-86560604D01*
X103614187Y-86482778D01*
X103838580Y-86368444D01*
X104042328Y-86220412D01*
X104060659Y-86202082D01*
X103458910Y-85600333D01*
X103451792Y-85586362D01*
X103440705Y-85575275D01*
X103438252Y-85559787D01*
X103431134Y-85545817D01*
X103433586Y-85530330D01*
X103431134Y-85514843D01*
X103438252Y-85500872D01*
X103440705Y-85485385D01*
X103458905Y-85460333D01*
X103460330Y-85458908D01*
X103514843Y-85431134D01*
X103575275Y-85440705D01*
X103600334Y-85458911D01*
X104202081Y-86060658D01*
X104202082Y-86060659D01*
X104220412Y-86042328D01*
X104368444Y-85838580D01*
X104482779Y-85614185D01*
X104537817Y-85444796D01*
X104537817Y-85444795D01*
X104560604Y-85374663D01*
X104560605Y-85374658D01*
X104600000Y-85125929D01*
X104600000Y-84874069D01*
X104560605Y-84625340D01*
X104539942Y-84561746D01*
X104482778Y-84385812D01*
X104368444Y-84161419D01*
X104220412Y-83957671D01*
X104202082Y-83939341D01*
X104202081Y-83939341D01*
X103600333Y-84541088D01*
X103586363Y-84548205D01*
X103575275Y-84559294D01*
X103559787Y-84561746D01*
X103545817Y-84568865D01*
X103530330Y-84566412D01*
X103514843Y-84568865D01*
X103500872Y-84561746D01*
X103485385Y-84559294D01*
X103460329Y-84541090D01*
X103458909Y-84539670D01*
X103431134Y-84485156D01*
X103440705Y-84424724D01*
X103458911Y-84399665D01*
X103697157Y-84161419D01*
X104060659Y-83797918D01*
X104042328Y-83779587D01*
X103838580Y-83631555D01*
X103838579Y-83631554D01*
X103838577Y-83631553D01*
X103614187Y-83517221D01*
X103374658Y-83439393D01*
X103125929Y-83400000D01*
X103125926Y-83400000D01*
X102874074Y-83400000D01*
X102874071Y-83400000D01*
X102625339Y-83439394D01*
X102385811Y-83517221D01*
X102161421Y-83631553D01*
X101957665Y-83779591D01*
X101939340Y-83797917D01*
X102541088Y-84399665D01*
X102548206Y-84413636D01*
X102559294Y-84424724D01*
X102561746Y-84440211D01*
X102568865Y-84454182D01*
X102566412Y-84469669D01*
X102568865Y-84485156D01*
X102561746Y-84499126D01*
X102559294Y-84514614D01*
X102541088Y-84539673D01*
X102539673Y-84541088D01*
X102485156Y-84568865D01*
X102424724Y-84559294D01*
X102399665Y-84541088D01*
X102244388Y-84385811D01*
X101797918Y-83939341D01*
X101797917Y-83939341D01*
X101779591Y-83957665D01*
X101631553Y-84161421D01*
X101517221Y-84385811D01*
X101439393Y-84625340D01*
X101400000Y-84874069D01*
X99600500Y-84874069D01*
X99600500Y-84870183D01*
X99600499Y-83795736D01*
X99598985Y-83779587D01*
X99598985Y-83779583D01*
X99598078Y-83769904D01*
X99597945Y-83767063D01*
X99597645Y-83765298D01*
X99587694Y-83736860D01*
X99552793Y-83637118D01*
X99552791Y-83637116D01*
X99552791Y-83637114D01*
X99549820Y-83633089D01*
X99549498Y-83632439D01*
X99548389Y-83631150D01*
X99474660Y-83531251D01*
X99472154Y-83527855D01*
X99472152Y-83527853D01*
X99472150Y-83527850D01*
X99472146Y-83527847D01*
X99472144Y-83527845D01*
X99386451Y-83464600D01*
X99362884Y-83447207D01*
X99340555Y-83439394D01*
X99340555Y-83439393D01*
X99246060Y-83406328D01*
X99246046Y-83406324D01*
X99234698Y-83402354D01*
X99234696Y-83402353D01*
X99234694Y-83402353D01*
X99223804Y-83401331D01*
X99223801Y-83401331D01*
X99207666Y-83399818D01*
X99204272Y-83399500D01*
X99204271Y-83399500D01*
X96795736Y-83399500D01*
X96795734Y-83399500D01*
X96776205Y-83401331D01*
X96765304Y-83402353D01*
X96696305Y-83426496D01*
X96637114Y-83447208D01*
X96637113Y-83447208D01*
X96637112Y-83447209D01*
X96527856Y-83527844D01*
X96527844Y-83527856D01*
X96451311Y-83631555D01*
X96447208Y-83637114D01*
X96402355Y-83765298D01*
X96402352Y-83765308D01*
X96399500Y-83795717D01*
X93373238Y-83795717D01*
X93423367Y-75374030D01*
X102399500Y-75374030D01*
X102399500Y-75625968D01*
X102438907Y-75874777D01*
X102439278Y-75876124D01*
X102439922Y-75877901D01*
X102462900Y-75948618D01*
X102516759Y-76114379D01*
X102631130Y-76338845D01*
X102779207Y-76542656D01*
X102957344Y-76720793D01*
X103161155Y-76868870D01*
X103385621Y-76983241D01*
X103625215Y-77061090D01*
X103625216Y-77061090D01*
X103625219Y-77061091D01*
X103724745Y-77076854D01*
X103874032Y-77100500D01*
X104125965Y-77100500D01*
X104125968Y-77100500D01*
X104225199Y-77084782D01*
X104374780Y-77061091D01*
X104374780Y-77061090D01*
X104374782Y-77061090D01*
X104374785Y-77061090D01*
X104374788Y-77061089D01*
X104377364Y-77060681D01*
X104382171Y-77058689D01*
X104614379Y-76983241D01*
X104838845Y-76868870D01*
X105042656Y-76720793D01*
X105220793Y-76542656D01*
X105368870Y-76338845D01*
X105483241Y-76114379D01*
X105561090Y-75874785D01*
X105564638Y-75852383D01*
X105570404Y-75815980D01*
X105570404Y-75815978D01*
X105600500Y-75625966D01*
X105600500Y-75374030D01*
X105561092Y-75125223D01*
X105554023Y-75103468D01*
X105554023Y-75103467D01*
X105485892Y-74893781D01*
X105483241Y-74885621D01*
X105368870Y-74661155D01*
X105220793Y-74457344D01*
X105042656Y-74279207D01*
X104878368Y-74159845D01*
X104847283Y-74137260D01*
X104847276Y-74137255D01*
X104838845Y-74131130D01*
X104838844Y-74131129D01*
X104838842Y-74131128D01*
X104834021Y-74128671D01*
X104834017Y-74128669D01*
X104614379Y-74016759D01*
X104374775Y-73938906D01*
X104125968Y-73899500D01*
X104125965Y-73899500D01*
X104125962Y-73899500D01*
X103874038Y-73899500D01*
X103874035Y-73899500D01*
X103874032Y-73899500D01*
X103625223Y-73938906D01*
X103385619Y-74016759D01*
X103161159Y-74131126D01*
X102957346Y-74279205D01*
X102779205Y-74457346D01*
X102631126Y-74661159D01*
X102516759Y-74885619D01*
X102438906Y-75125223D01*
X102399500Y-75374030D01*
X93423367Y-75374030D01*
X93491537Y-63921507D01*
X93496553Y-63891895D01*
X93496563Y-63890952D01*
X93498930Y-63883814D01*
X93499061Y-63883636D01*
X93499274Y-63883015D01*
X93511672Y-63866494D01*
X93535186Y-63834533D01*
X93535808Y-63834334D01*
X93536001Y-63834078D01*
X93554641Y-63828339D01*
X93593488Y-63815972D01*
X93594125Y-63816183D01*
X93594477Y-63816075D01*
X93615620Y-63823309D01*
X93651565Y-63835225D01*
X93652003Y-63835757D01*
X93652368Y-63835882D01*
X93653889Y-63838045D01*
X93682389Y-63872631D01*
X93682433Y-63872724D01*
X93686978Y-63885105D01*
X93687560Y-63885933D01*
X93687548Y-63886659D01*
X93688569Y-63889439D01*
X93743942Y-64096088D01*
X93743949Y-64096109D01*
X93836769Y-64320198D01*
X93836772Y-64320204D01*
X93836774Y-64320208D01*
X93836776Y-64320212D01*
X93958064Y-64530289D01*
X93958066Y-64530292D01*
X94105729Y-64722731D01*
X94105731Y-64722733D01*
X94105735Y-64722738D01*
X94277262Y-64894265D01*
X94277266Y-64894268D01*
X94277268Y-64894270D01*
X94277273Y-64894274D01*
X94277303Y-64894300D01*
X94277671Y-64894579D01*
X94469707Y-65041933D01*
X94469711Y-65041936D01*
X94679788Y-65163224D01*
X94903900Y-65256054D01*
X95138211Y-65318838D01*
X95378712Y-65350500D01*
X95378713Y-65350500D01*
X95621287Y-65350500D01*
X95621288Y-65350500D01*
X95861789Y-65318838D01*
X96096100Y-65256054D01*
X96320212Y-65163224D01*
X96530289Y-65041936D01*
X96722738Y-64894265D01*
X96894265Y-64722738D01*
X97041936Y-64530289D01*
X97163224Y-64320212D01*
X97256054Y-64096100D01*
X97318838Y-63861789D01*
X97350500Y-63621288D01*
X97350500Y-63378712D01*
X97318838Y-63138211D01*
X97256054Y-62903900D01*
X97170768Y-62698000D01*
X97163226Y-62679791D01*
X97163223Y-62679787D01*
X97162822Y-62679093D01*
X97152996Y-62662074D01*
X97141900Y-62633165D01*
X97139529Y-62622011D01*
X97145928Y-62561164D01*
X97186869Y-62515697D01*
X97191090Y-62513260D01*
X97240585Y-62500000D01*
X153753424Y-62500000D01*
X153784012Y-62504843D01*
G37*
%TD.AperFunction*%
%TA.AperFunction,Conductor*%
G36*
X117617488Y-72106218D02*
G01*
X117818964Y-72138129D01*
X117834063Y-72141753D01*
X118028086Y-72204795D01*
X118042437Y-72210740D01*
X118224198Y-72303353D01*
X118237442Y-72311469D01*
X118402476Y-72431372D01*
X118414290Y-72441461D01*
X118558534Y-72585705D01*
X118568623Y-72597519D01*
X118688530Y-72762558D01*
X118696646Y-72775802D01*
X118789258Y-72957561D01*
X118795204Y-72971915D01*
X118858243Y-73165931D01*
X118861869Y-73181035D01*
X118873091Y-73251882D01*
X118892755Y-73376037D01*
X118893781Y-73382510D01*
X118895000Y-73397998D01*
X118895000Y-73601999D01*
X118893781Y-73617486D01*
X118866891Y-73787258D01*
X118866890Y-73787263D01*
X118861866Y-73818972D01*
X118858241Y-73834072D01*
X118795205Y-74028081D01*
X118789259Y-74042435D01*
X118696646Y-74224196D01*
X118688530Y-74237440D01*
X118568623Y-74402479D01*
X118558534Y-74414293D01*
X118414293Y-74558534D01*
X118402479Y-74568623D01*
X118237440Y-74688530D01*
X118224196Y-74696646D01*
X118042437Y-74789258D01*
X118028084Y-74795204D01*
X117834069Y-74858243D01*
X117818964Y-74861869D01*
X117669006Y-74885621D01*
X117617486Y-74893781D01*
X117602000Y-74895000D01*
X117398000Y-74895000D01*
X117382513Y-74893781D01*
X117322814Y-74884325D01*
X117181035Y-74861869D01*
X117165931Y-74858243D01*
X116971915Y-74795204D01*
X116957561Y-74789258D01*
X116775802Y-74696646D01*
X116762558Y-74688530D01*
X116597519Y-74568623D01*
X116585705Y-74558534D01*
X116441464Y-74414293D01*
X116431375Y-74402480D01*
X116341812Y-74279207D01*
X116311463Y-74237435D01*
X116303349Y-74224193D01*
X116277727Y-74173907D01*
X116210739Y-74042434D01*
X116204795Y-74028081D01*
X116198356Y-74008263D01*
X116170713Y-73923190D01*
X116135088Y-73813549D01*
X116134971Y-73813132D01*
X116134916Y-73813020D01*
X116134352Y-73811282D01*
X116134339Y-73811244D01*
X116134063Y-73810394D01*
X116134063Y-73810389D01*
X116134049Y-73810350D01*
X116127037Y-73788721D01*
X116119241Y-73780697D01*
X116119104Y-73780417D01*
X116103438Y-73748117D01*
X116067474Y-73698617D01*
X116043233Y-73670872D01*
X115964723Y-73623964D01*
X115964721Y-73623963D01*
X115964719Y-73623962D01*
X115906531Y-73605056D01*
X115866197Y-73598668D01*
X115811681Y-73570890D01*
X115783904Y-73516373D01*
X115793476Y-73455941D01*
X115836741Y-73412677D01*
X115860454Y-73404190D01*
X115929452Y-73389048D01*
X115985979Y-73365631D01*
X116018619Y-73348534D01*
X116082554Y-73283140D01*
X116111544Y-73235826D01*
X116111542Y-73235825D01*
X116124005Y-73215486D01*
X116124524Y-73208903D01*
X116131001Y-73196012D01*
X116133150Y-73192417D01*
X116204797Y-72971904D01*
X116210733Y-72957574D01*
X116303351Y-72775801D01*
X116311466Y-72762559D01*
X116311467Y-72762558D01*
X116431379Y-72597512D01*
X116441457Y-72585712D01*
X116585712Y-72441457D01*
X116597512Y-72431379D01*
X116762562Y-72311463D01*
X116775801Y-72303351D01*
X116957572Y-72210734D01*
X116971906Y-72204797D01*
X117165937Y-72141753D01*
X117181033Y-72138129D01*
X117347571Y-72111752D01*
X117382512Y-72106219D01*
X117397998Y-72105000D01*
X117602002Y-72105000D01*
X117617488Y-72106218D01*
G37*
%TD.AperFunction*%
%TD*%
%TA.AperFunction,Conductor*%
%TO.N,/NET_BUS_6V*%
G36*
X130959191Y-64018907D02*
G01*
X130995155Y-64068407D01*
X131000000Y-64099000D01*
X131000000Y-65850500D01*
X130981093Y-65908691D01*
X130931593Y-65944655D01*
X130901000Y-65949500D01*
X130630252Y-65949500D01*
X130630251Y-65949500D01*
X130630241Y-65949501D01*
X130571772Y-65961132D01*
X130571766Y-65961134D01*
X130505451Y-66005445D01*
X130505445Y-66005451D01*
X130461134Y-66071766D01*
X130461132Y-66071772D01*
X130449501Y-66130241D01*
X130449500Y-66130253D01*
X130449500Y-67869746D01*
X130449501Y-67869758D01*
X130461132Y-67928227D01*
X130461134Y-67928233D01*
X130505445Y-67994548D01*
X130505448Y-67994552D01*
X130571769Y-68038867D01*
X130616231Y-68047711D01*
X130630241Y-68050498D01*
X130630246Y-68050498D01*
X130630252Y-68050500D01*
X130630253Y-68050500D01*
X132369747Y-68050500D01*
X132369748Y-68050500D01*
X132428231Y-68038867D01*
X132494552Y-67994552D01*
X132538867Y-67928231D01*
X132550500Y-67869748D01*
X132550500Y-66896581D01*
X132990000Y-66896581D01*
X132990000Y-67103418D01*
X133030349Y-67306272D01*
X133109501Y-67497360D01*
X133109508Y-67497374D01*
X133224405Y-67669329D01*
X133226826Y-67671750D01*
X133622210Y-67276365D01*
X133639901Y-67307007D01*
X133732993Y-67400099D01*
X133763632Y-67417788D01*
X133368249Y-67813173D01*
X133370670Y-67815594D01*
X133542625Y-67930491D01*
X133542639Y-67930498D01*
X133733727Y-68009650D01*
X133936581Y-68049999D01*
X133936586Y-68050000D01*
X134143414Y-68050000D01*
X134143418Y-68049999D01*
X134346272Y-68009650D01*
X134537360Y-67930498D01*
X134537366Y-67930495D01*
X134709333Y-67815591D01*
X134711750Y-67813173D01*
X134316366Y-67417789D01*
X134347007Y-67400099D01*
X134440099Y-67307007D01*
X134457789Y-67276366D01*
X134853173Y-67671750D01*
X134855591Y-67669333D01*
X134970495Y-67497366D01*
X134970498Y-67497360D01*
X135049650Y-67306272D01*
X135089999Y-67103418D01*
X135090000Y-67103413D01*
X135090000Y-66896585D01*
X135089999Y-66896582D01*
X135089989Y-66896532D01*
X135529500Y-66896532D01*
X135529500Y-67103467D01*
X135569869Y-67306418D01*
X135649058Y-67497597D01*
X135649059Y-67497598D01*
X135764023Y-67669655D01*
X135910345Y-67815977D01*
X136082402Y-67930941D01*
X136273580Y-68010130D01*
X136476535Y-68050500D01*
X136476536Y-68050500D01*
X136683464Y-68050500D01*
X136683465Y-68050500D01*
X136886420Y-68010130D01*
X137077598Y-67930941D01*
X137249655Y-67815977D01*
X137395977Y-67669655D01*
X137510941Y-67497598D01*
X137590130Y-67306420D01*
X137630500Y-67103465D01*
X137630500Y-66896535D01*
X137590130Y-66693580D01*
X137510941Y-66502402D01*
X137395977Y-66330345D01*
X137249655Y-66184023D01*
X137169182Y-66130253D01*
X137077597Y-66069058D01*
X136886418Y-65989869D01*
X136683467Y-65949500D01*
X136683465Y-65949500D01*
X136476535Y-65949500D01*
X136476532Y-65949500D01*
X136273581Y-65989869D01*
X136082402Y-66069058D01*
X135910348Y-66184020D01*
X135764020Y-66330348D01*
X135649058Y-66502402D01*
X135569869Y-66693581D01*
X135529500Y-66896532D01*
X135089989Y-66896532D01*
X135049650Y-66693727D01*
X134970498Y-66502639D01*
X134970491Y-66502625D01*
X134855594Y-66330670D01*
X134853173Y-66328249D01*
X134457788Y-66723632D01*
X134440099Y-66692993D01*
X134347007Y-66599901D01*
X134316365Y-66582210D01*
X134711750Y-66186826D01*
X134709329Y-66184405D01*
X134537374Y-66069508D01*
X134537360Y-66069501D01*
X134346272Y-65990349D01*
X134143418Y-65950000D01*
X133936581Y-65950000D01*
X133733727Y-65990349D01*
X133542639Y-66069501D01*
X133542630Y-66069505D01*
X133370665Y-66184410D01*
X133368248Y-66186825D01*
X133763633Y-66582210D01*
X133732993Y-66599901D01*
X133639901Y-66692993D01*
X133622210Y-66723633D01*
X133226825Y-66328248D01*
X133224410Y-66330665D01*
X133109505Y-66502630D01*
X133109501Y-66502639D01*
X133030349Y-66693727D01*
X132990000Y-66896581D01*
X132550500Y-66896581D01*
X132550500Y-66130252D01*
X132538867Y-66071769D01*
X132494552Y-66005448D01*
X132494548Y-66005445D01*
X132428233Y-65961134D01*
X132428231Y-65961133D01*
X132428228Y-65961132D01*
X132428227Y-65961132D01*
X132369758Y-65949501D01*
X132369748Y-65949500D01*
X132099000Y-65949500D01*
X132040809Y-65930593D01*
X132004845Y-65881093D01*
X132000000Y-65850500D01*
X132000000Y-64099000D01*
X132018907Y-64040809D01*
X132068407Y-64004845D01*
X132099000Y-64000000D01*
X145901000Y-64000000D01*
X145959191Y-64018907D01*
X145995155Y-64068407D01*
X146000000Y-64099000D01*
X146000000Y-68350500D01*
X145981093Y-68408691D01*
X145931593Y-68444655D01*
X145901000Y-68449500D01*
X145590252Y-68449500D01*
X145590251Y-68449500D01*
X145590241Y-68449501D01*
X145531772Y-68461132D01*
X145531766Y-68461134D01*
X145465451Y-68505445D01*
X145465445Y-68505451D01*
X145421134Y-68571766D01*
X145421132Y-68571772D01*
X145409501Y-68630241D01*
X145409500Y-68630253D01*
X145409500Y-70369746D01*
X145409501Y-70369758D01*
X145421132Y-70428227D01*
X145421134Y-70428233D01*
X145465445Y-70494548D01*
X145465448Y-70494552D01*
X145531769Y-70538867D01*
X145576231Y-70547711D01*
X145590241Y-70550498D01*
X145590246Y-70550498D01*
X145590252Y-70550500D01*
X145590253Y-70550500D01*
X147329747Y-70550500D01*
X147329748Y-70550500D01*
X147388231Y-70538867D01*
X147454552Y-70494552D01*
X147498867Y-70428231D01*
X147510500Y-70369748D01*
X147510500Y-69396581D01*
X147950000Y-69396581D01*
X147950000Y-69603418D01*
X147990349Y-69806272D01*
X148069501Y-69997360D01*
X148069508Y-69997374D01*
X148184405Y-70169329D01*
X148186826Y-70171750D01*
X148582210Y-69776365D01*
X148599901Y-69807007D01*
X148692993Y-69900099D01*
X148723632Y-69917788D01*
X148328249Y-70313173D01*
X148330670Y-70315594D01*
X148502625Y-70430491D01*
X148502639Y-70430498D01*
X148693727Y-70509650D01*
X148896581Y-70549999D01*
X148896586Y-70550000D01*
X149103414Y-70550000D01*
X149103418Y-70549999D01*
X149306272Y-70509650D01*
X149497360Y-70430498D01*
X149497366Y-70430495D01*
X149669333Y-70315591D01*
X149671750Y-70313173D01*
X149276366Y-69917789D01*
X149307007Y-69900099D01*
X149400099Y-69807007D01*
X149417789Y-69776366D01*
X149813173Y-70171750D01*
X149815591Y-70169333D01*
X149930495Y-69997366D01*
X149930498Y-69997360D01*
X150009650Y-69806272D01*
X150049999Y-69603418D01*
X150050000Y-69603413D01*
X150050000Y-69396585D01*
X150049999Y-69396582D01*
X150049989Y-69396532D01*
X150489500Y-69396532D01*
X150489500Y-69603467D01*
X150529869Y-69806418D01*
X150609058Y-69997597D01*
X150677481Y-70100000D01*
X150724023Y-70169655D01*
X150870345Y-70315977D01*
X151042402Y-70430941D01*
X151233580Y-70510130D01*
X151436535Y-70550500D01*
X151436536Y-70550500D01*
X151643464Y-70550500D01*
X151643465Y-70550500D01*
X151846420Y-70510130D01*
X152037598Y-70430941D01*
X152209655Y-70315977D01*
X152355977Y-70169655D01*
X152470941Y-69997598D01*
X152550130Y-69806420D01*
X152590500Y-69603465D01*
X152590500Y-69396535D01*
X152550130Y-69193580D01*
X152470941Y-69002402D01*
X152355977Y-68830345D01*
X152209655Y-68684023D01*
X152129182Y-68630253D01*
X152037597Y-68569058D01*
X151846418Y-68489869D01*
X151643467Y-68449500D01*
X151643465Y-68449500D01*
X151436535Y-68449500D01*
X151436532Y-68449500D01*
X151233581Y-68489869D01*
X151042402Y-68569058D01*
X150870348Y-68684020D01*
X150724020Y-68830348D01*
X150609058Y-69002402D01*
X150529869Y-69193581D01*
X150489500Y-69396532D01*
X150049989Y-69396532D01*
X150009650Y-69193727D01*
X149930498Y-69002639D01*
X149930491Y-69002625D01*
X149815594Y-68830670D01*
X149813173Y-68828249D01*
X149417788Y-69223632D01*
X149400099Y-69192993D01*
X149307007Y-69099901D01*
X149276365Y-69082210D01*
X149671750Y-68686826D01*
X149669329Y-68684405D01*
X149497374Y-68569508D01*
X149497360Y-68569501D01*
X149306272Y-68490349D01*
X149103418Y-68450000D01*
X148896581Y-68450000D01*
X148693727Y-68490349D01*
X148502639Y-68569501D01*
X148502630Y-68569505D01*
X148330665Y-68684410D01*
X148328248Y-68686825D01*
X148723633Y-69082210D01*
X148692993Y-69099901D01*
X148599901Y-69192993D01*
X148582210Y-69223633D01*
X148186825Y-68828248D01*
X148184410Y-68830665D01*
X148069505Y-69002630D01*
X148069501Y-69002639D01*
X147990349Y-69193727D01*
X147950000Y-69396581D01*
X147510500Y-69396581D01*
X147510500Y-68630252D01*
X147498867Y-68571769D01*
X147454552Y-68505448D01*
X147454548Y-68505445D01*
X147388233Y-68461134D01*
X147388231Y-68461133D01*
X147388228Y-68461132D01*
X147388227Y-68461132D01*
X147329758Y-68449501D01*
X147329748Y-68449500D01*
X147099000Y-68449500D01*
X147040809Y-68430593D01*
X147004845Y-68381093D01*
X147000000Y-68350500D01*
X147000000Y-64099000D01*
X147018907Y-64040809D01*
X147068407Y-64004845D01*
X147099000Y-64000000D01*
X153642230Y-64000000D01*
X153700421Y-64018907D01*
X153736385Y-64068407D01*
X153737856Y-64073375D01*
X153743941Y-64096085D01*
X153743948Y-64096105D01*
X153836772Y-64320204D01*
X153836774Y-64320208D01*
X153836776Y-64320212D01*
X153958064Y-64530289D01*
X153958066Y-64530292D01*
X154105729Y-64722731D01*
X154105731Y-64722733D01*
X154105735Y-64722738D01*
X154277262Y-64894265D01*
X154277266Y-64894268D01*
X154277268Y-64894270D01*
X154469707Y-65041933D01*
X154469711Y-65041936D01*
X154679788Y-65163224D01*
X154903900Y-65256054D01*
X155138211Y-65318838D01*
X155378712Y-65350500D01*
X155378713Y-65350500D01*
X155621287Y-65350500D01*
X155621288Y-65350500D01*
X155861789Y-65318838D01*
X156096100Y-65256054D01*
X156259755Y-65188265D01*
X156320208Y-65163226D01*
X156320209Y-65163225D01*
X156320212Y-65163224D01*
X156351500Y-65145160D01*
X156411348Y-65132438D01*
X156467244Y-65157324D01*
X156497837Y-65210312D01*
X156500000Y-65230896D01*
X156500000Y-78401000D01*
X156481093Y-78459191D01*
X156431593Y-78495155D01*
X156401000Y-78500000D01*
X147099000Y-78500000D01*
X147040809Y-78481093D01*
X147004845Y-78431593D01*
X147000000Y-78401000D01*
X147000000Y-76149500D01*
X147018907Y-76091309D01*
X147068407Y-76055345D01*
X147099000Y-76050500D01*
X147369747Y-76050500D01*
X147369748Y-76050500D01*
X147428231Y-76038867D01*
X147494552Y-75994552D01*
X147538867Y-75928231D01*
X147550500Y-75869748D01*
X147550500Y-74896581D01*
X147990000Y-74896581D01*
X147990000Y-75103418D01*
X148030349Y-75306272D01*
X148109501Y-75497360D01*
X148109508Y-75497374D01*
X148224405Y-75669329D01*
X148226826Y-75671750D01*
X148622210Y-75276365D01*
X148639901Y-75307007D01*
X148732993Y-75400099D01*
X148763632Y-75417788D01*
X148368249Y-75813173D01*
X148370670Y-75815594D01*
X148542625Y-75930491D01*
X148542639Y-75930498D01*
X148733727Y-76009650D01*
X148936581Y-76049999D01*
X148936586Y-76050000D01*
X149143414Y-76050000D01*
X149143418Y-76049999D01*
X149346272Y-76009650D01*
X149537360Y-75930498D01*
X149537366Y-75930495D01*
X149709333Y-75815591D01*
X149711750Y-75813173D01*
X149316366Y-75417789D01*
X149347007Y-75400099D01*
X149440099Y-75307007D01*
X149457789Y-75276366D01*
X149853173Y-75671750D01*
X149855591Y-75669333D01*
X149970495Y-75497366D01*
X149970498Y-75497360D01*
X150049650Y-75306272D01*
X150089999Y-75103418D01*
X150090000Y-75103413D01*
X150090000Y-74896585D01*
X150089999Y-74896582D01*
X150089989Y-74896532D01*
X150529500Y-74896532D01*
X150529500Y-75103467D01*
X150569869Y-75306418D01*
X150649058Y-75497597D01*
X150649059Y-75497598D01*
X150764023Y-75669655D01*
X150910345Y-75815977D01*
X151082402Y-75930941D01*
X151273580Y-76010130D01*
X151476535Y-76050500D01*
X151476536Y-76050500D01*
X151683464Y-76050500D01*
X151683465Y-76050500D01*
X151886420Y-76010130D01*
X152077598Y-75930941D01*
X152249655Y-75815977D01*
X152395977Y-75669655D01*
X152510941Y-75497598D01*
X152590130Y-75306420D01*
X152630500Y-75103465D01*
X152630500Y-74896535D01*
X152590130Y-74693580D01*
X152510941Y-74502402D01*
X152395977Y-74330345D01*
X152249655Y-74184023D01*
X152169182Y-74130253D01*
X152077597Y-74069058D01*
X151886418Y-73989869D01*
X151683467Y-73949500D01*
X151683465Y-73949500D01*
X151476535Y-73949500D01*
X151476532Y-73949500D01*
X151273581Y-73989869D01*
X151082402Y-74069058D01*
X150910348Y-74184020D01*
X150764020Y-74330348D01*
X150649058Y-74502402D01*
X150569869Y-74693581D01*
X150529500Y-74896532D01*
X150089989Y-74896532D01*
X150049650Y-74693727D01*
X149970498Y-74502639D01*
X149970491Y-74502625D01*
X149855594Y-74330670D01*
X149853173Y-74328249D01*
X149457788Y-74723632D01*
X149440099Y-74692993D01*
X149347007Y-74599901D01*
X149316365Y-74582210D01*
X149711750Y-74186826D01*
X149709329Y-74184405D01*
X149537374Y-74069508D01*
X149537360Y-74069501D01*
X149346272Y-73990349D01*
X149143418Y-73950000D01*
X148936581Y-73950000D01*
X148733727Y-73990349D01*
X148542639Y-74069501D01*
X148542630Y-74069505D01*
X148370665Y-74184410D01*
X148368248Y-74186825D01*
X148763633Y-74582210D01*
X148732993Y-74599901D01*
X148639901Y-74692993D01*
X148622210Y-74723633D01*
X148226825Y-74328248D01*
X148224410Y-74330665D01*
X148109505Y-74502630D01*
X148109501Y-74502639D01*
X148030349Y-74693727D01*
X147990000Y-74896581D01*
X147550500Y-74896581D01*
X147550500Y-74130252D01*
X147538867Y-74071769D01*
X147494552Y-74005448D01*
X147494548Y-74005445D01*
X147428233Y-73961134D01*
X147428231Y-73961133D01*
X147428228Y-73961132D01*
X147428227Y-73961132D01*
X147369758Y-73949501D01*
X147369748Y-73949500D01*
X145630252Y-73949500D01*
X145630251Y-73949500D01*
X145630241Y-73949501D01*
X145571772Y-73961132D01*
X145571766Y-73961134D01*
X145505451Y-74005445D01*
X145505445Y-74005451D01*
X145461134Y-74071766D01*
X145461132Y-74071772D01*
X145449501Y-74130241D01*
X145449500Y-74130253D01*
X145449500Y-75869746D01*
X145449501Y-75869758D01*
X145461132Y-75928227D01*
X145461134Y-75928233D01*
X145505445Y-75994548D01*
X145505448Y-75994552D01*
X145571769Y-76038867D01*
X145616231Y-76047711D01*
X145630241Y-76050498D01*
X145630246Y-76050498D01*
X145630252Y-76050500D01*
X145630253Y-76050500D01*
X145901000Y-76050500D01*
X145959191Y-76069407D01*
X145995155Y-76118907D01*
X146000000Y-76149500D01*
X146000000Y-78401000D01*
X145981093Y-78459191D01*
X145931593Y-78495155D01*
X145901000Y-78500000D01*
X132099000Y-78500000D01*
X132040809Y-78481093D01*
X132004845Y-78431593D01*
X132000000Y-78401000D01*
X132000000Y-76149500D01*
X132018907Y-76091309D01*
X132068407Y-76055345D01*
X132099000Y-76050500D01*
X132369747Y-76050500D01*
X132369748Y-76050500D01*
X132428231Y-76038867D01*
X132494552Y-75994552D01*
X132538867Y-75928231D01*
X132550500Y-75869748D01*
X132550500Y-74896581D01*
X132990000Y-74896581D01*
X132990000Y-75103418D01*
X133030349Y-75306272D01*
X133109501Y-75497360D01*
X133109508Y-75497374D01*
X133224405Y-75669329D01*
X133226826Y-75671750D01*
X133622210Y-75276365D01*
X133639901Y-75307007D01*
X133732993Y-75400099D01*
X133763632Y-75417788D01*
X133368249Y-75813173D01*
X133370670Y-75815594D01*
X133542625Y-75930491D01*
X133542639Y-75930498D01*
X133733727Y-76009650D01*
X133936581Y-76049999D01*
X133936586Y-76050000D01*
X134143414Y-76050000D01*
X134143418Y-76049999D01*
X134346272Y-76009650D01*
X134537360Y-75930498D01*
X134537366Y-75930495D01*
X134709333Y-75815591D01*
X134711750Y-75813173D01*
X134316366Y-75417789D01*
X134347007Y-75400099D01*
X134440099Y-75307007D01*
X134457789Y-75276366D01*
X134853173Y-75671750D01*
X134855591Y-75669333D01*
X134970495Y-75497366D01*
X134970498Y-75497360D01*
X135049650Y-75306272D01*
X135089999Y-75103418D01*
X135090000Y-75103413D01*
X135090000Y-74896585D01*
X135089999Y-74896582D01*
X135089989Y-74896532D01*
X135529500Y-74896532D01*
X135529500Y-75103467D01*
X135569869Y-75306418D01*
X135649058Y-75497597D01*
X135649059Y-75497598D01*
X135764023Y-75669655D01*
X135910345Y-75815977D01*
X136082402Y-75930941D01*
X136273580Y-76010130D01*
X136476535Y-76050500D01*
X136476536Y-76050500D01*
X136683464Y-76050500D01*
X136683465Y-76050500D01*
X136886420Y-76010130D01*
X137077598Y-75930941D01*
X137249655Y-75815977D01*
X137395977Y-75669655D01*
X137510941Y-75497598D01*
X137590130Y-75306420D01*
X137630500Y-75103465D01*
X137630500Y-74896535D01*
X137590130Y-74693580D01*
X137510941Y-74502402D01*
X137395977Y-74330345D01*
X137249655Y-74184023D01*
X137169182Y-74130253D01*
X137077597Y-74069058D01*
X136886418Y-73989869D01*
X136683467Y-73949500D01*
X136683465Y-73949500D01*
X136476535Y-73949500D01*
X136476532Y-73949500D01*
X136273581Y-73989869D01*
X136082402Y-74069058D01*
X135910348Y-74184020D01*
X135764020Y-74330348D01*
X135649058Y-74502402D01*
X135569869Y-74693581D01*
X135529500Y-74896532D01*
X135089989Y-74896532D01*
X135049650Y-74693727D01*
X134970498Y-74502639D01*
X134970491Y-74502625D01*
X134855594Y-74330670D01*
X134853173Y-74328249D01*
X134457788Y-74723632D01*
X134440099Y-74692993D01*
X134347007Y-74599901D01*
X134316365Y-74582210D01*
X134711750Y-74186826D01*
X134709329Y-74184405D01*
X134537374Y-74069508D01*
X134537360Y-74069501D01*
X134346272Y-73990349D01*
X134143418Y-73950000D01*
X133936581Y-73950000D01*
X133733727Y-73990349D01*
X133542639Y-74069501D01*
X133542630Y-74069505D01*
X133370665Y-74184410D01*
X133368248Y-74186825D01*
X133763633Y-74582210D01*
X133732993Y-74599901D01*
X133639901Y-74692993D01*
X133622210Y-74723633D01*
X133226825Y-74328248D01*
X133224410Y-74330665D01*
X133109505Y-74502630D01*
X133109501Y-74502639D01*
X133030349Y-74693727D01*
X132990000Y-74896581D01*
X132550500Y-74896581D01*
X132550500Y-74130252D01*
X132538867Y-74071769D01*
X132494552Y-74005448D01*
X132494548Y-74005445D01*
X132428233Y-73961134D01*
X132428231Y-73961133D01*
X132428228Y-73961132D01*
X132428227Y-73961132D01*
X132369758Y-73949501D01*
X132369748Y-73949500D01*
X130630252Y-73949500D01*
X130630251Y-73949500D01*
X130630241Y-73949501D01*
X130571772Y-73961132D01*
X130571766Y-73961134D01*
X130505451Y-74005445D01*
X130505445Y-74005451D01*
X130461134Y-74071766D01*
X130461132Y-74071772D01*
X130449501Y-74130241D01*
X130449500Y-74130253D01*
X130449500Y-75869746D01*
X130449501Y-75869758D01*
X130461132Y-75928227D01*
X130461134Y-75928233D01*
X130505445Y-75994548D01*
X130505448Y-75994552D01*
X130571769Y-76038867D01*
X130616231Y-76047711D01*
X130630241Y-76050498D01*
X130630246Y-76050498D01*
X130630252Y-76050500D01*
X130630253Y-76050500D01*
X130901000Y-76050500D01*
X130959191Y-76069407D01*
X130995155Y-76118907D01*
X131000000Y-76149500D01*
X131000000Y-78401000D01*
X130981093Y-78459191D01*
X130931593Y-78495155D01*
X130901000Y-78500000D01*
X112599000Y-78500000D01*
X112540809Y-78481093D01*
X112504845Y-78431593D01*
X112500000Y-78401000D01*
X112500000Y-73899500D01*
X112518907Y-73841309D01*
X112568407Y-73805345D01*
X112599000Y-73800500D01*
X115843030Y-73800500D01*
X115901221Y-73819407D01*
X115937185Y-73868907D01*
X115938399Y-73873212D01*
X115938909Y-73874784D01*
X115938910Y-73874785D01*
X116002913Y-74071766D01*
X116016759Y-74114379D01*
X116126964Y-74330670D01*
X116131130Y-74338845D01*
X116279207Y-74542656D01*
X116457344Y-74720793D01*
X116661155Y-74868870D01*
X116885621Y-74983241D01*
X117125215Y-75061090D01*
X117125216Y-75061090D01*
X117125219Y-75061091D01*
X117374035Y-75100500D01*
X117374038Y-75100500D01*
X117625965Y-75100500D01*
X117874780Y-75061091D01*
X117874781Y-75061090D01*
X117874785Y-75061090D01*
X118114379Y-74983241D01*
X118338845Y-74868870D01*
X118542656Y-74720793D01*
X118720793Y-74542656D01*
X118868870Y-74338845D01*
X118983241Y-74114379D01*
X119061090Y-73874785D01*
X119069861Y-73819407D01*
X119100500Y-73625965D01*
X119100500Y-73374034D01*
X119061091Y-73125219D01*
X119061090Y-73125215D01*
X118983241Y-72885621D01*
X118868870Y-72661155D01*
X118720793Y-72457344D01*
X118542656Y-72279207D01*
X118338845Y-72131130D01*
X118338844Y-72131129D01*
X118338842Y-72131128D01*
X118114379Y-72016759D01*
X117874780Y-71938908D01*
X117625965Y-71899500D01*
X117625962Y-71899500D01*
X117374038Y-71899500D01*
X117374035Y-71899500D01*
X117125219Y-71938908D01*
X116885620Y-72016759D01*
X116661157Y-72131128D01*
X116457345Y-72279206D01*
X116279206Y-72457345D01*
X116131128Y-72661157D01*
X116016759Y-72885620D01*
X115937708Y-73128914D01*
X115936320Y-73128463D01*
X115907330Y-73175777D01*
X115850803Y-73199194D01*
X115843030Y-73199500D01*
X112599000Y-73199500D01*
X112540809Y-73180593D01*
X112504845Y-73131093D01*
X112500000Y-73100500D01*
X112500000Y-67295789D01*
X115900000Y-67295789D01*
X115900000Y-68399999D01*
X115900001Y-68400000D01*
X116857157Y-68400000D01*
X116850000Y-68435981D01*
X116850000Y-68564019D01*
X116857157Y-68600000D01*
X115900001Y-68600000D01*
X115900000Y-68600001D01*
X115900000Y-69704210D01*
X115902850Y-69734600D01*
X115947655Y-69862648D01*
X116028203Y-69971786D01*
X116028213Y-69971796D01*
X116137351Y-70052344D01*
X116265399Y-70097149D01*
X116295789Y-70099999D01*
X116295791Y-70100000D01*
X117399999Y-70100000D01*
X117400000Y-70099999D01*
X117400000Y-69142842D01*
X117435981Y-69150000D01*
X117564019Y-69150000D01*
X117600000Y-69142842D01*
X117600000Y-70099999D01*
X117600001Y-70100000D01*
X118704209Y-70100000D01*
X118704210Y-70099999D01*
X118734600Y-70097149D01*
X118862648Y-70052344D01*
X118971786Y-69971796D01*
X118971796Y-69971786D01*
X119052344Y-69862648D01*
X119097149Y-69734600D01*
X119099999Y-69704210D01*
X119100000Y-69704209D01*
X119100000Y-68600001D01*
X119099999Y-68600000D01*
X118142843Y-68600000D01*
X118150000Y-68564019D01*
X118150000Y-68435981D01*
X118142843Y-68400000D01*
X119099999Y-68400000D01*
X119100000Y-68399999D01*
X119100000Y-67295791D01*
X119099999Y-67295789D01*
X119097149Y-67265399D01*
X119052344Y-67137351D01*
X118971796Y-67028213D01*
X118971786Y-67028203D01*
X118862648Y-66947655D01*
X118734600Y-66902850D01*
X118704210Y-66900000D01*
X117600001Y-66900000D01*
X117600000Y-66900001D01*
X117600000Y-67857157D01*
X117564019Y-67850000D01*
X117435981Y-67850000D01*
X117400000Y-67857157D01*
X117400000Y-66900001D01*
X117399999Y-66900000D01*
X116295789Y-66900000D01*
X116265399Y-66902850D01*
X116137351Y-66947655D01*
X116028213Y-67028203D01*
X116028203Y-67028213D01*
X115947655Y-67137351D01*
X115902850Y-67265399D01*
X115900000Y-67295789D01*
X112500000Y-67295789D01*
X112500000Y-64099000D01*
X112518907Y-64040809D01*
X112568407Y-64004845D01*
X112599000Y-64000000D01*
X130901000Y-64000000D01*
X130959191Y-64018907D01*
G37*
%TD.AperFunction*%
%TD*%
M02*
