%TF.GenerationSoftware,KiCad,Pcbnew,10.0.4*%
%TF.CreationDate,2026-09-20T20:20:18-05:00*%
%TF.ProjectId,papaya-pcb,70617061-7961-42d7-9063-622e6b696361,rev?*%
%TF.SameCoordinates,Original*%
%TF.FileFunction,Legend,Top*%
%TF.FilePolarity,Positive*%
%FSLAX46Y46*%
G04 Gerber Fmt 4.6, Leading zero omitted, Abs format (unit mm)*
G04 Created by KiCad (PCBNEW 10.0.4) date 2026-09-20 20:20:18*
%MOMM*%
%LPD*%
G01*
G04 APERTURE LIST*
%ADD10C,0.100000*%
%ADD11C,0.150000*%
%ADD12C,0.120000*%
G04 APERTURE END LIST*
D10*
X148256265Y-78324800D02*
X148399122Y-78372419D01*
X148399122Y-78372419D02*
X148637217Y-78372419D01*
X148637217Y-78372419D02*
X148732455Y-78324800D01*
X148732455Y-78324800D02*
X148780074Y-78277180D01*
X148780074Y-78277180D02*
X148827693Y-78181942D01*
X148827693Y-78181942D02*
X148827693Y-78086704D01*
X148827693Y-78086704D02*
X148780074Y-77991466D01*
X148780074Y-77991466D02*
X148732455Y-77943847D01*
X148732455Y-77943847D02*
X148637217Y-77896228D01*
X148637217Y-77896228D02*
X148446741Y-77848609D01*
X148446741Y-77848609D02*
X148351503Y-77800990D01*
X148351503Y-77800990D02*
X148303884Y-77753371D01*
X148303884Y-77753371D02*
X148256265Y-77658133D01*
X148256265Y-77658133D02*
X148256265Y-77562895D01*
X148256265Y-77562895D02*
X148303884Y-77467657D01*
X148303884Y-77467657D02*
X148351503Y-77420038D01*
X148351503Y-77420038D02*
X148446741Y-77372419D01*
X148446741Y-77372419D02*
X148684836Y-77372419D01*
X148684836Y-77372419D02*
X148827693Y-77420038D01*
X149161027Y-77372419D02*
X149780074Y-77372419D01*
X149780074Y-77372419D02*
X149446741Y-77753371D01*
X149446741Y-77753371D02*
X149589598Y-77753371D01*
X149589598Y-77753371D02*
X149684836Y-77800990D01*
X149684836Y-77800990D02*
X149732455Y-77848609D01*
X149732455Y-77848609D02*
X149780074Y-77943847D01*
X149780074Y-77943847D02*
X149780074Y-78181942D01*
X149780074Y-78181942D02*
X149732455Y-78277180D01*
X149732455Y-78277180D02*
X149684836Y-78324800D01*
X149684836Y-78324800D02*
X149589598Y-78372419D01*
X149589598Y-78372419D02*
X149303884Y-78372419D01*
X149303884Y-78372419D02*
X149208646Y-78324800D01*
X149208646Y-78324800D02*
X149161027Y-78277180D01*
X147756265Y-66324800D02*
X147899122Y-66372419D01*
X147899122Y-66372419D02*
X148137217Y-66372419D01*
X148137217Y-66372419D02*
X148232455Y-66324800D01*
X148232455Y-66324800D02*
X148280074Y-66277180D01*
X148280074Y-66277180D02*
X148327693Y-66181942D01*
X148327693Y-66181942D02*
X148327693Y-66086704D01*
X148327693Y-66086704D02*
X148280074Y-65991466D01*
X148280074Y-65991466D02*
X148232455Y-65943847D01*
X148232455Y-65943847D02*
X148137217Y-65896228D01*
X148137217Y-65896228D02*
X147946741Y-65848609D01*
X147946741Y-65848609D02*
X147851503Y-65800990D01*
X147851503Y-65800990D02*
X147803884Y-65753371D01*
X147803884Y-65753371D02*
X147756265Y-65658133D01*
X147756265Y-65658133D02*
X147756265Y-65562895D01*
X147756265Y-65562895D02*
X147803884Y-65467657D01*
X147803884Y-65467657D02*
X147851503Y-65420038D01*
X147851503Y-65420038D02*
X147946741Y-65372419D01*
X147946741Y-65372419D02*
X148184836Y-65372419D01*
X148184836Y-65372419D02*
X148327693Y-65420038D01*
X149184836Y-65705752D02*
X149184836Y-66372419D01*
X148946741Y-65324800D02*
X148708646Y-66039085D01*
X148708646Y-66039085D02*
X149327693Y-66039085D01*
X132756265Y-78324800D02*
X132899122Y-78372419D01*
X132899122Y-78372419D02*
X133137217Y-78372419D01*
X133137217Y-78372419D02*
X133232455Y-78324800D01*
X133232455Y-78324800D02*
X133280074Y-78277180D01*
X133280074Y-78277180D02*
X133327693Y-78181942D01*
X133327693Y-78181942D02*
X133327693Y-78086704D01*
X133327693Y-78086704D02*
X133280074Y-77991466D01*
X133280074Y-77991466D02*
X133232455Y-77943847D01*
X133232455Y-77943847D02*
X133137217Y-77896228D01*
X133137217Y-77896228D02*
X132946741Y-77848609D01*
X132946741Y-77848609D02*
X132851503Y-77800990D01*
X132851503Y-77800990D02*
X132803884Y-77753371D01*
X132803884Y-77753371D02*
X132756265Y-77658133D01*
X132756265Y-77658133D02*
X132756265Y-77562895D01*
X132756265Y-77562895D02*
X132803884Y-77467657D01*
X132803884Y-77467657D02*
X132851503Y-77420038D01*
X132851503Y-77420038D02*
X132946741Y-77372419D01*
X132946741Y-77372419D02*
X133184836Y-77372419D01*
X133184836Y-77372419D02*
X133327693Y-77420038D01*
X133708646Y-77467657D02*
X133756265Y-77420038D01*
X133756265Y-77420038D02*
X133851503Y-77372419D01*
X133851503Y-77372419D02*
X134089598Y-77372419D01*
X134089598Y-77372419D02*
X134184836Y-77420038D01*
X134184836Y-77420038D02*
X134232455Y-77467657D01*
X134232455Y-77467657D02*
X134280074Y-77562895D01*
X134280074Y-77562895D02*
X134280074Y-77658133D01*
X134280074Y-77658133D02*
X134232455Y-77800990D01*
X134232455Y-77800990D02*
X133661027Y-78372419D01*
X133661027Y-78372419D02*
X134280074Y-78372419D01*
X132756265Y-70324800D02*
X132899122Y-70372419D01*
X132899122Y-70372419D02*
X133137217Y-70372419D01*
X133137217Y-70372419D02*
X133232455Y-70324800D01*
X133232455Y-70324800D02*
X133280074Y-70277180D01*
X133280074Y-70277180D02*
X133327693Y-70181942D01*
X133327693Y-70181942D02*
X133327693Y-70086704D01*
X133327693Y-70086704D02*
X133280074Y-69991466D01*
X133280074Y-69991466D02*
X133232455Y-69943847D01*
X133232455Y-69943847D02*
X133137217Y-69896228D01*
X133137217Y-69896228D02*
X132946741Y-69848609D01*
X132946741Y-69848609D02*
X132851503Y-69800990D01*
X132851503Y-69800990D02*
X132803884Y-69753371D01*
X132803884Y-69753371D02*
X132756265Y-69658133D01*
X132756265Y-69658133D02*
X132756265Y-69562895D01*
X132756265Y-69562895D02*
X132803884Y-69467657D01*
X132803884Y-69467657D02*
X132851503Y-69420038D01*
X132851503Y-69420038D02*
X132946741Y-69372419D01*
X132946741Y-69372419D02*
X133184836Y-69372419D01*
X133184836Y-69372419D02*
X133327693Y-69420038D01*
X134280074Y-70372419D02*
X133708646Y-70372419D01*
X133994360Y-70372419D02*
X133994360Y-69372419D01*
X133994360Y-69372419D02*
X133899122Y-69515276D01*
X133899122Y-69515276D02*
X133803884Y-69610514D01*
X133803884Y-69610514D02*
X133708646Y-69658133D01*
X104348609Y-118362782D02*
X104396228Y-118219925D01*
X104396228Y-118219925D02*
X104443847Y-118172306D01*
X104443847Y-118172306D02*
X104539085Y-118124687D01*
X104539085Y-118124687D02*
X104681942Y-118124687D01*
X104681942Y-118124687D02*
X104777180Y-118172306D01*
X104777180Y-118172306D02*
X104824800Y-118219925D01*
X104824800Y-118219925D02*
X104872419Y-118315163D01*
X104872419Y-118315163D02*
X104872419Y-118696115D01*
X104872419Y-118696115D02*
X103872419Y-118696115D01*
X103872419Y-118696115D02*
X103872419Y-118362782D01*
X103872419Y-118362782D02*
X103920038Y-118267544D01*
X103920038Y-118267544D02*
X103967657Y-118219925D01*
X103967657Y-118219925D02*
X104062895Y-118172306D01*
X104062895Y-118172306D02*
X104158133Y-118172306D01*
X104158133Y-118172306D02*
X104253371Y-118219925D01*
X104253371Y-118219925D02*
X104300990Y-118267544D01*
X104300990Y-118267544D02*
X104348609Y-118362782D01*
X104348609Y-118362782D02*
X104348609Y-118696115D01*
X103872419Y-117838972D02*
X103872419Y-117267544D01*
X104872419Y-117553258D02*
X103872419Y-117553258D01*
X104824800Y-116981829D02*
X104872419Y-116838972D01*
X104872419Y-116838972D02*
X104872419Y-116600877D01*
X104872419Y-116600877D02*
X104824800Y-116505639D01*
X104824800Y-116505639D02*
X104777180Y-116458020D01*
X104777180Y-116458020D02*
X104681942Y-116410401D01*
X104681942Y-116410401D02*
X104586704Y-116410401D01*
X104586704Y-116410401D02*
X104491466Y-116458020D01*
X104491466Y-116458020D02*
X104443847Y-116505639D01*
X104443847Y-116505639D02*
X104396228Y-116600877D01*
X104396228Y-116600877D02*
X104348609Y-116791353D01*
X104348609Y-116791353D02*
X104300990Y-116886591D01*
X104300990Y-116886591D02*
X104253371Y-116934210D01*
X104253371Y-116934210D02*
X104158133Y-116981829D01*
X104158133Y-116981829D02*
X104062895Y-116981829D01*
X104062895Y-116981829D02*
X103967657Y-116934210D01*
X103967657Y-116934210D02*
X103920038Y-116886591D01*
X103920038Y-116886591D02*
X103872419Y-116791353D01*
X103872419Y-116791353D02*
X103872419Y-116553258D01*
X103872419Y-116553258D02*
X103920038Y-116410401D01*
X103967657Y-116029448D02*
X103920038Y-115981829D01*
X103920038Y-115981829D02*
X103872419Y-115886591D01*
X103872419Y-115886591D02*
X103872419Y-115648496D01*
X103872419Y-115648496D02*
X103920038Y-115553258D01*
X103920038Y-115553258D02*
X103967657Y-115505639D01*
X103967657Y-115505639D02*
X104062895Y-115458020D01*
X104062895Y-115458020D02*
X104158133Y-115458020D01*
X104158133Y-115458020D02*
X104300990Y-115505639D01*
X104300990Y-115505639D02*
X104872419Y-116077067D01*
X104872419Y-116077067D02*
X104872419Y-115458020D01*
X104348609Y-136362782D02*
X104396228Y-136219925D01*
X104396228Y-136219925D02*
X104443847Y-136172306D01*
X104443847Y-136172306D02*
X104539085Y-136124687D01*
X104539085Y-136124687D02*
X104681942Y-136124687D01*
X104681942Y-136124687D02*
X104777180Y-136172306D01*
X104777180Y-136172306D02*
X104824800Y-136219925D01*
X104824800Y-136219925D02*
X104872419Y-136315163D01*
X104872419Y-136315163D02*
X104872419Y-136696115D01*
X104872419Y-136696115D02*
X103872419Y-136696115D01*
X103872419Y-136696115D02*
X103872419Y-136362782D01*
X103872419Y-136362782D02*
X103920038Y-136267544D01*
X103920038Y-136267544D02*
X103967657Y-136219925D01*
X103967657Y-136219925D02*
X104062895Y-136172306D01*
X104062895Y-136172306D02*
X104158133Y-136172306D01*
X104158133Y-136172306D02*
X104253371Y-136219925D01*
X104253371Y-136219925D02*
X104300990Y-136267544D01*
X104300990Y-136267544D02*
X104348609Y-136362782D01*
X104348609Y-136362782D02*
X104348609Y-136696115D01*
X103872419Y-135838972D02*
X103872419Y-135267544D01*
X104872419Y-135553258D02*
X103872419Y-135553258D01*
X104824800Y-134981829D02*
X104872419Y-134838972D01*
X104872419Y-134838972D02*
X104872419Y-134600877D01*
X104872419Y-134600877D02*
X104824800Y-134505639D01*
X104824800Y-134505639D02*
X104777180Y-134458020D01*
X104777180Y-134458020D02*
X104681942Y-134410401D01*
X104681942Y-134410401D02*
X104586704Y-134410401D01*
X104586704Y-134410401D02*
X104491466Y-134458020D01*
X104491466Y-134458020D02*
X104443847Y-134505639D01*
X104443847Y-134505639D02*
X104396228Y-134600877D01*
X104396228Y-134600877D02*
X104348609Y-134791353D01*
X104348609Y-134791353D02*
X104300990Y-134886591D01*
X104300990Y-134886591D02*
X104253371Y-134934210D01*
X104253371Y-134934210D02*
X104158133Y-134981829D01*
X104158133Y-134981829D02*
X104062895Y-134981829D01*
X104062895Y-134981829D02*
X103967657Y-134934210D01*
X103967657Y-134934210D02*
X103920038Y-134886591D01*
X103920038Y-134886591D02*
X103872419Y-134791353D01*
X103872419Y-134791353D02*
X103872419Y-134553258D01*
X103872419Y-134553258D02*
X103920038Y-134410401D01*
X104872419Y-133458020D02*
X104872419Y-134029448D01*
X104872419Y-133743734D02*
X103872419Y-133743734D01*
X103872419Y-133743734D02*
X104015276Y-133838972D01*
X104015276Y-133838972D02*
X104110514Y-133934210D01*
X104110514Y-133934210D02*
X104158133Y-134029448D01*
D11*
X151836779Y-117846009D02*
X152170112Y-117846009D01*
X152312969Y-118369819D02*
X151836779Y-118369819D01*
X151836779Y-118369819D02*
X151836779Y-117369819D01*
X151836779Y-117369819D02*
X152312969Y-117369819D01*
X153217731Y-118369819D02*
X152741541Y-118369819D01*
X152741541Y-118369819D02*
X152741541Y-117369819D01*
X154122493Y-118369819D02*
X153789160Y-117893628D01*
X153551065Y-118369819D02*
X153551065Y-117369819D01*
X153551065Y-117369819D02*
X153932017Y-117369819D01*
X153932017Y-117369819D02*
X154027255Y-117417438D01*
X154027255Y-117417438D02*
X154074874Y-117465057D01*
X154074874Y-117465057D02*
X154122493Y-117560295D01*
X154122493Y-117560295D02*
X154122493Y-117703152D01*
X154122493Y-117703152D02*
X154074874Y-117798390D01*
X154074874Y-117798390D02*
X154027255Y-117846009D01*
X154027255Y-117846009D02*
X153932017Y-117893628D01*
X153932017Y-117893628D02*
X153551065Y-117893628D01*
X154503446Y-118322200D02*
X154646303Y-118369819D01*
X154646303Y-118369819D02*
X154884398Y-118369819D01*
X154884398Y-118369819D02*
X154979636Y-118322200D01*
X154979636Y-118322200D02*
X155027255Y-118274580D01*
X155027255Y-118274580D02*
X155074874Y-118179342D01*
X155074874Y-118179342D02*
X155074874Y-118084104D01*
X155074874Y-118084104D02*
X155027255Y-117988866D01*
X155027255Y-117988866D02*
X154979636Y-117941247D01*
X154979636Y-117941247D02*
X154884398Y-117893628D01*
X154884398Y-117893628D02*
X154693922Y-117846009D01*
X154693922Y-117846009D02*
X154598684Y-117798390D01*
X154598684Y-117798390D02*
X154551065Y-117750771D01*
X154551065Y-117750771D02*
X154503446Y-117655533D01*
X154503446Y-117655533D02*
X154503446Y-117560295D01*
X154503446Y-117560295D02*
X154551065Y-117465057D01*
X154551065Y-117465057D02*
X154598684Y-117417438D01*
X154598684Y-117417438D02*
X154693922Y-117369819D01*
X154693922Y-117369819D02*
X154932017Y-117369819D01*
X154932017Y-117369819D02*
X155074874Y-117417438D01*
X94738095Y-59804819D02*
X94738095Y-58804819D01*
X94738095Y-59281009D02*
X95309523Y-59281009D01*
X95309523Y-59804819D02*
X95309523Y-58804819D01*
X96309523Y-59804819D02*
X95738095Y-59804819D01*
X96023809Y-59804819D02*
X96023809Y-58804819D01*
X96023809Y-58804819D02*
X95928571Y-58947676D01*
X95928571Y-58947676D02*
X95833333Y-59042914D01*
X95833333Y-59042914D02*
X95738095Y-59090533D01*
X108574819Y-73083333D02*
X109289104Y-73083333D01*
X109289104Y-73083333D02*
X109431961Y-73130952D01*
X109431961Y-73130952D02*
X109527200Y-73226190D01*
X109527200Y-73226190D02*
X109574819Y-73369047D01*
X109574819Y-73369047D02*
X109574819Y-73464285D01*
X108574819Y-72702380D02*
X108574819Y-72035714D01*
X108574819Y-72035714D02*
X109574819Y-72464285D01*
X128574819Y-67333333D02*
X129289104Y-67333333D01*
X129289104Y-67333333D02*
X129431961Y-67380952D01*
X129431961Y-67380952D02*
X129527200Y-67476190D01*
X129527200Y-67476190D02*
X129574819Y-67619047D01*
X129574819Y-67619047D02*
X129574819Y-67714285D01*
X129574819Y-66809523D02*
X129574819Y-66619047D01*
X129574819Y-66619047D02*
X129527200Y-66523809D01*
X129527200Y-66523809D02*
X129479580Y-66476190D01*
X129479580Y-66476190D02*
X129336723Y-66380952D01*
X129336723Y-66380952D02*
X129146247Y-66333333D01*
X129146247Y-66333333D02*
X128765295Y-66333333D01*
X128765295Y-66333333D02*
X128670057Y-66380952D01*
X128670057Y-66380952D02*
X128622438Y-66428571D01*
X128622438Y-66428571D02*
X128574819Y-66523809D01*
X128574819Y-66523809D02*
X128574819Y-66714285D01*
X128574819Y-66714285D02*
X128622438Y-66809523D01*
X128622438Y-66809523D02*
X128670057Y-66857142D01*
X128670057Y-66857142D02*
X128765295Y-66904761D01*
X128765295Y-66904761D02*
X129003390Y-66904761D01*
X129003390Y-66904761D02*
X129098628Y-66857142D01*
X129098628Y-66857142D02*
X129146247Y-66809523D01*
X129146247Y-66809523D02*
X129193866Y-66714285D01*
X129193866Y-66714285D02*
X129193866Y-66523809D01*
X129193866Y-66523809D02*
X129146247Y-66428571D01*
X129146247Y-66428571D02*
X129098628Y-66380952D01*
X129098628Y-66380952D02*
X129003390Y-66333333D01*
X154738095Y-59804819D02*
X154738095Y-58804819D01*
X154738095Y-59281009D02*
X155309523Y-59281009D01*
X155309523Y-59804819D02*
X155309523Y-58804819D01*
X155738095Y-58900057D02*
X155785714Y-58852438D01*
X155785714Y-58852438D02*
X155880952Y-58804819D01*
X155880952Y-58804819D02*
X156119047Y-58804819D01*
X156119047Y-58804819D02*
X156214285Y-58852438D01*
X156214285Y-58852438D02*
X156261904Y-58900057D01*
X156261904Y-58900057D02*
X156309523Y-58995295D01*
X156309523Y-58995295D02*
X156309523Y-59090533D01*
X156309523Y-59090533D02*
X156261904Y-59233390D01*
X156261904Y-59233390D02*
X155690476Y-59804819D01*
X155690476Y-59804819D02*
X156309523Y-59804819D01*
X94738095Y-139804819D02*
X94738095Y-138804819D01*
X94738095Y-139281009D02*
X95309523Y-139281009D01*
X95309523Y-139804819D02*
X95309523Y-138804819D01*
X95690476Y-138804819D02*
X96309523Y-138804819D01*
X96309523Y-138804819D02*
X95976190Y-139185771D01*
X95976190Y-139185771D02*
X96119047Y-139185771D01*
X96119047Y-139185771D02*
X96214285Y-139233390D01*
X96214285Y-139233390D02*
X96261904Y-139281009D01*
X96261904Y-139281009D02*
X96309523Y-139376247D01*
X96309523Y-139376247D02*
X96309523Y-139614342D01*
X96309523Y-139614342D02*
X96261904Y-139709580D01*
X96261904Y-139709580D02*
X96214285Y-139757200D01*
X96214285Y-139757200D02*
X96119047Y-139804819D01*
X96119047Y-139804819D02*
X95833333Y-139804819D01*
X95833333Y-139804819D02*
X95738095Y-139757200D01*
X95738095Y-139757200D02*
X95690476Y-139709580D01*
X153166666Y-119074819D02*
X153166666Y-119789104D01*
X153166666Y-119789104D02*
X153119047Y-119931961D01*
X153119047Y-119931961D02*
X153023809Y-120027200D01*
X153023809Y-120027200D02*
X152880952Y-120074819D01*
X152880952Y-120074819D02*
X152785714Y-120074819D01*
X154071428Y-119074819D02*
X153880952Y-119074819D01*
X153880952Y-119074819D02*
X153785714Y-119122438D01*
X153785714Y-119122438D02*
X153738095Y-119170057D01*
X153738095Y-119170057D02*
X153642857Y-119312914D01*
X153642857Y-119312914D02*
X153595238Y-119503390D01*
X153595238Y-119503390D02*
X153595238Y-119884342D01*
X153595238Y-119884342D02*
X153642857Y-119979580D01*
X153642857Y-119979580D02*
X153690476Y-120027200D01*
X153690476Y-120027200D02*
X153785714Y-120074819D01*
X153785714Y-120074819D02*
X153976190Y-120074819D01*
X153976190Y-120074819D02*
X154071428Y-120027200D01*
X154071428Y-120027200D02*
X154119047Y-119979580D01*
X154119047Y-119979580D02*
X154166666Y-119884342D01*
X154166666Y-119884342D02*
X154166666Y-119646247D01*
X154166666Y-119646247D02*
X154119047Y-119551009D01*
X154119047Y-119551009D02*
X154071428Y-119503390D01*
X154071428Y-119503390D02*
X153976190Y-119455771D01*
X153976190Y-119455771D02*
X153785714Y-119455771D01*
X153785714Y-119455771D02*
X153690476Y-119503390D01*
X153690476Y-119503390D02*
X153642857Y-119551009D01*
X153642857Y-119551009D02*
X153595238Y-119646247D01*
X143574819Y-75809523D02*
X144289104Y-75809523D01*
X144289104Y-75809523D02*
X144431961Y-75857142D01*
X144431961Y-75857142D02*
X144527200Y-75952380D01*
X144527200Y-75952380D02*
X144574819Y-76095237D01*
X144574819Y-76095237D02*
X144574819Y-76190475D01*
X144574819Y-74809523D02*
X144574819Y-75380951D01*
X144574819Y-75095237D02*
X143574819Y-75095237D01*
X143574819Y-75095237D02*
X143717676Y-75190475D01*
X143717676Y-75190475D02*
X143812914Y-75285713D01*
X143812914Y-75285713D02*
X143860533Y-75380951D01*
X144574819Y-73857142D02*
X144574819Y-74428570D01*
X144574819Y-74142856D02*
X143574819Y-74142856D01*
X143574819Y-74142856D02*
X143717676Y-74238094D01*
X143717676Y-74238094D02*
X143812914Y-74333332D01*
X143812914Y-74333332D02*
X143860533Y-74428570D01*
X128574819Y-75809523D02*
X129289104Y-75809523D01*
X129289104Y-75809523D02*
X129431961Y-75857142D01*
X129431961Y-75857142D02*
X129527200Y-75952380D01*
X129527200Y-75952380D02*
X129574819Y-76095237D01*
X129574819Y-76095237D02*
X129574819Y-76190475D01*
X129574819Y-74809523D02*
X129574819Y-75380951D01*
X129574819Y-75095237D02*
X128574819Y-75095237D01*
X128574819Y-75095237D02*
X128717676Y-75190475D01*
X128717676Y-75190475D02*
X128812914Y-75285713D01*
X128812914Y-75285713D02*
X128860533Y-75380951D01*
X128574819Y-74190475D02*
X128574819Y-74095237D01*
X128574819Y-74095237D02*
X128622438Y-73999999D01*
X128622438Y-73999999D02*
X128670057Y-73952380D01*
X128670057Y-73952380D02*
X128765295Y-73904761D01*
X128765295Y-73904761D02*
X128955771Y-73857142D01*
X128955771Y-73857142D02*
X129193866Y-73857142D01*
X129193866Y-73857142D02*
X129384342Y-73904761D01*
X129384342Y-73904761D02*
X129479580Y-73952380D01*
X129479580Y-73952380D02*
X129527200Y-73999999D01*
X129527200Y-73999999D02*
X129574819Y-74095237D01*
X129574819Y-74095237D02*
X129574819Y-74190475D01*
X129574819Y-74190475D02*
X129527200Y-74285713D01*
X129527200Y-74285713D02*
X129479580Y-74333332D01*
X129479580Y-74333332D02*
X129384342Y-74380951D01*
X129384342Y-74380951D02*
X129193866Y-74428570D01*
X129193866Y-74428570D02*
X128955771Y-74428570D01*
X128955771Y-74428570D02*
X128765295Y-74380951D01*
X128765295Y-74380951D02*
X128670057Y-74333332D01*
X128670057Y-74333332D02*
X128622438Y-74285713D01*
X128622438Y-74285713D02*
X128574819Y-74190475D01*
X99916666Y-79334819D02*
X99916666Y-80049104D01*
X99916666Y-80049104D02*
X99869047Y-80191961D01*
X99869047Y-80191961D02*
X99773809Y-80287200D01*
X99773809Y-80287200D02*
X99630952Y-80334819D01*
X99630952Y-80334819D02*
X99535714Y-80334819D01*
X100916666Y-80334819D02*
X100345238Y-80334819D01*
X100630952Y-80334819D02*
X100630952Y-79334819D01*
X100630952Y-79334819D02*
X100535714Y-79477676D01*
X100535714Y-79477676D02*
X100440476Y-79572914D01*
X100440476Y-79572914D02*
X100345238Y-79620533D01*
X108666666Y-108574819D02*
X108666666Y-109289104D01*
X108666666Y-109289104D02*
X108619047Y-109431961D01*
X108619047Y-109431961D02*
X108523809Y-109527200D01*
X108523809Y-109527200D02*
X108380952Y-109574819D01*
X108380952Y-109574819D02*
X108285714Y-109574819D01*
X109619047Y-108574819D02*
X109142857Y-108574819D01*
X109142857Y-108574819D02*
X109095238Y-109051009D01*
X109095238Y-109051009D02*
X109142857Y-109003390D01*
X109142857Y-109003390D02*
X109238095Y-108955771D01*
X109238095Y-108955771D02*
X109476190Y-108955771D01*
X109476190Y-108955771D02*
X109571428Y-109003390D01*
X109571428Y-109003390D02*
X109619047Y-109051009D01*
X109619047Y-109051009D02*
X109666666Y-109146247D01*
X109666666Y-109146247D02*
X109666666Y-109384342D01*
X109666666Y-109384342D02*
X109619047Y-109479580D01*
X109619047Y-109479580D02*
X109571428Y-109527200D01*
X109571428Y-109527200D02*
X109476190Y-109574819D01*
X109476190Y-109574819D02*
X109238095Y-109574819D01*
X109238095Y-109574819D02*
X109142857Y-109527200D01*
X109142857Y-109527200D02*
X109095238Y-109479580D01*
X143534819Y-70309523D02*
X144249104Y-70309523D01*
X144249104Y-70309523D02*
X144391961Y-70357142D01*
X144391961Y-70357142D02*
X144487200Y-70452380D01*
X144487200Y-70452380D02*
X144534819Y-70595237D01*
X144534819Y-70595237D02*
X144534819Y-70690475D01*
X144534819Y-69309523D02*
X144534819Y-69880951D01*
X144534819Y-69595237D02*
X143534819Y-69595237D01*
X143534819Y-69595237D02*
X143677676Y-69690475D01*
X143677676Y-69690475D02*
X143772914Y-69785713D01*
X143772914Y-69785713D02*
X143820533Y-69880951D01*
X143630057Y-68928570D02*
X143582438Y-68880951D01*
X143582438Y-68880951D02*
X143534819Y-68785713D01*
X143534819Y-68785713D02*
X143534819Y-68547618D01*
X143534819Y-68547618D02*
X143582438Y-68452380D01*
X143582438Y-68452380D02*
X143630057Y-68404761D01*
X143630057Y-68404761D02*
X143725295Y-68357142D01*
X143725295Y-68357142D02*
X143820533Y-68357142D01*
X143820533Y-68357142D02*
X143963390Y-68404761D01*
X143963390Y-68404761D02*
X144534819Y-68976189D01*
X144534819Y-68976189D02*
X144534819Y-68357142D01*
X122074819Y-71083333D02*
X122789104Y-71083333D01*
X122789104Y-71083333D02*
X122931961Y-71130952D01*
X122931961Y-71130952D02*
X123027200Y-71226190D01*
X123027200Y-71226190D02*
X123074819Y-71369047D01*
X123074819Y-71369047D02*
X123074819Y-71464285D01*
X122503390Y-70464285D02*
X122455771Y-70559523D01*
X122455771Y-70559523D02*
X122408152Y-70607142D01*
X122408152Y-70607142D02*
X122312914Y-70654761D01*
X122312914Y-70654761D02*
X122265295Y-70654761D01*
X122265295Y-70654761D02*
X122170057Y-70607142D01*
X122170057Y-70607142D02*
X122122438Y-70559523D01*
X122122438Y-70559523D02*
X122074819Y-70464285D01*
X122074819Y-70464285D02*
X122074819Y-70273809D01*
X122074819Y-70273809D02*
X122122438Y-70178571D01*
X122122438Y-70178571D02*
X122170057Y-70130952D01*
X122170057Y-70130952D02*
X122265295Y-70083333D01*
X122265295Y-70083333D02*
X122312914Y-70083333D01*
X122312914Y-70083333D02*
X122408152Y-70130952D01*
X122408152Y-70130952D02*
X122455771Y-70178571D01*
X122455771Y-70178571D02*
X122503390Y-70273809D01*
X122503390Y-70273809D02*
X122503390Y-70464285D01*
X122503390Y-70464285D02*
X122551009Y-70559523D01*
X122551009Y-70559523D02*
X122598628Y-70607142D01*
X122598628Y-70607142D02*
X122693866Y-70654761D01*
X122693866Y-70654761D02*
X122884342Y-70654761D01*
X122884342Y-70654761D02*
X122979580Y-70607142D01*
X122979580Y-70607142D02*
X123027200Y-70559523D01*
X123027200Y-70559523D02*
X123074819Y-70464285D01*
X123074819Y-70464285D02*
X123074819Y-70273809D01*
X123074819Y-70273809D02*
X123027200Y-70178571D01*
X123027200Y-70178571D02*
X122979580Y-70130952D01*
X122979580Y-70130952D02*
X122884342Y-70083333D01*
X122884342Y-70083333D02*
X122693866Y-70083333D01*
X122693866Y-70083333D02*
X122598628Y-70130952D01*
X122598628Y-70130952D02*
X122551009Y-70178571D01*
X122551009Y-70178571D02*
X122503390Y-70273809D01*
X108666666Y-128074819D02*
X108666666Y-128789104D01*
X108666666Y-128789104D02*
X108619047Y-128931961D01*
X108619047Y-128931961D02*
X108523809Y-129027200D01*
X108523809Y-129027200D02*
X108380952Y-129074819D01*
X108380952Y-129074819D02*
X108285714Y-129074819D01*
X109571428Y-128408152D02*
X109571428Y-129074819D01*
X109333333Y-128027200D02*
X109095238Y-128741485D01*
X109095238Y-128741485D02*
X109714285Y-128741485D01*
X149454819Y-113503333D02*
X150169104Y-113503333D01*
X150169104Y-113503333D02*
X150311961Y-113550952D01*
X150311961Y-113550952D02*
X150407200Y-113646190D01*
X150407200Y-113646190D02*
X150454819Y-113789047D01*
X150454819Y-113789047D02*
X150454819Y-113884285D01*
X149550057Y-113074761D02*
X149502438Y-113027142D01*
X149502438Y-113027142D02*
X149454819Y-112931904D01*
X149454819Y-112931904D02*
X149454819Y-112693809D01*
X149454819Y-112693809D02*
X149502438Y-112598571D01*
X149502438Y-112598571D02*
X149550057Y-112550952D01*
X149550057Y-112550952D02*
X149645295Y-112503333D01*
X149645295Y-112503333D02*
X149740533Y-112503333D01*
X149740533Y-112503333D02*
X149883390Y-112550952D01*
X149883390Y-112550952D02*
X150454819Y-113122380D01*
X150454819Y-113122380D02*
X150454819Y-112503333D01*
X107454819Y-99333333D02*
X108169104Y-99333333D01*
X108169104Y-99333333D02*
X108311961Y-99380952D01*
X108311961Y-99380952D02*
X108407200Y-99476190D01*
X108407200Y-99476190D02*
X108454819Y-99619047D01*
X108454819Y-99619047D02*
X108454819Y-99714285D01*
X107454819Y-98952380D02*
X107454819Y-98333333D01*
X107454819Y-98333333D02*
X107835771Y-98666666D01*
X107835771Y-98666666D02*
X107835771Y-98523809D01*
X107835771Y-98523809D02*
X107883390Y-98428571D01*
X107883390Y-98428571D02*
X107931009Y-98380952D01*
X107931009Y-98380952D02*
X108026247Y-98333333D01*
X108026247Y-98333333D02*
X108264342Y-98333333D01*
X108264342Y-98333333D02*
X108359580Y-98380952D01*
X108359580Y-98380952D02*
X108407200Y-98428571D01*
X108407200Y-98428571D02*
X108454819Y-98523809D01*
X108454819Y-98523809D02*
X108454819Y-98809523D01*
X108454819Y-98809523D02*
X108407200Y-98904761D01*
X108407200Y-98904761D02*
X108359580Y-98952380D01*
X154738095Y-139804819D02*
X154738095Y-138804819D01*
X154738095Y-139281009D02*
X155309523Y-139281009D01*
X155309523Y-139804819D02*
X155309523Y-138804819D01*
X156214285Y-139138152D02*
X156214285Y-139804819D01*
X155976190Y-138757200D02*
X155738095Y-139471485D01*
X155738095Y-139471485D02*
X156357142Y-139471485D01*
D12*
%TO.C,J7*%
X100080000Y-70500000D02*
X99470000Y-70940000D01*
X99470000Y-70060000D01*
X100080000Y-70500000D01*
G36*
X100080000Y-70500000D02*
G01*
X99470000Y-70940000D01*
X99470000Y-70060000D01*
X100080000Y-70500000D01*
G37*
X108120000Y-78120000D02*
X100080000Y-78120000D01*
X108120000Y-67380000D02*
X108120000Y-78120000D01*
X104500000Y-77312000D02*
X104500000Y-78120000D01*
X104500000Y-72380000D02*
X104500000Y-73688000D01*
X104500000Y-67380000D02*
X104500000Y-68620000D01*
X103500000Y-77312000D02*
X103500000Y-78120000D01*
X103500000Y-72380000D02*
X103500000Y-73688000D01*
X103500000Y-67380000D02*
X103500000Y-68620000D01*
X102200000Y-76043000D02*
X102200000Y-78120000D01*
X102200000Y-72380000D02*
X102200000Y-74957000D01*
X102200000Y-67380000D02*
X102200000Y-68620000D01*
X100080000Y-78120000D02*
X100080000Y-70800000D01*
X100080000Y-70200000D02*
X100080000Y-67380000D01*
X100080000Y-67380000D02*
X108120000Y-67380000D01*
%TO.C,J9*%
X130120000Y-68380000D02*
X130120000Y-67000000D01*
X131500000Y-68380000D02*
X130120000Y-68380000D01*
X132770000Y-65620000D02*
X137960000Y-65620000D01*
X132770000Y-68380000D02*
X132770000Y-65620000D01*
X132770000Y-68380000D02*
X137960000Y-68380000D01*
X137960000Y-68380000D02*
X137960000Y-65620000D01*
%TO.C,J6*%
X152120000Y-120620000D02*
X153500000Y-120620000D01*
X152120000Y-122000000D02*
X152120000Y-120620000D01*
X152120000Y-123270000D02*
X152120000Y-131000000D01*
X152120000Y-123270000D02*
X154880000Y-123270000D01*
X152120000Y-131000000D02*
X154880000Y-131000000D01*
X154880000Y-123270000D02*
X154880000Y-131000000D01*
%TO.C,J11*%
X145120000Y-76380000D02*
X145120000Y-75000000D01*
X146500000Y-76380000D02*
X145120000Y-76380000D01*
X147770000Y-73620000D02*
X152960000Y-73620000D01*
X147770000Y-76380000D02*
X147770000Y-73620000D01*
X147770000Y-76380000D02*
X152960000Y-76380000D01*
X152960000Y-76380000D02*
X152960000Y-73620000D01*
%TO.C,J10*%
X130120000Y-76380000D02*
X130120000Y-75000000D01*
X131500000Y-76380000D02*
X130120000Y-76380000D01*
X132770000Y-73620000D02*
X137960000Y-73620000D01*
X132770000Y-76380000D02*
X132770000Y-73620000D01*
X132770000Y-76380000D02*
X137960000Y-76380000D01*
X137960000Y-76380000D02*
X137960000Y-73620000D01*
%TO.C,J1*%
X94880000Y-80880000D02*
X105620000Y-80880000D01*
X94880000Y-84500000D02*
X96120000Y-84500000D01*
X94880000Y-85500000D02*
X96120000Y-85500000D01*
X94880000Y-86800000D02*
X96120000Y-86800000D01*
X94880000Y-88920000D02*
X94880000Y-80880000D01*
X97700000Y-88920000D02*
X94880000Y-88920000D01*
X99880000Y-84500000D02*
X101188000Y-84500000D01*
X99880000Y-85500000D02*
X101188000Y-85500000D01*
X99880000Y-86800000D02*
X102457000Y-86800000D01*
X103543000Y-86800000D02*
X105620000Y-86800000D01*
X104812000Y-84500000D02*
X105620000Y-84500000D01*
X104812000Y-85500000D02*
X105620000Y-85500000D01*
X105620000Y-80880000D02*
X105620000Y-88920000D01*
X105620000Y-88920000D02*
X98300000Y-88920000D01*
X98000000Y-88920000D02*
X98440000Y-89530000D01*
X97560000Y-89530000D01*
X98000000Y-88920000D01*
G36*
X98440000Y-89530000D02*
G01*
X97560000Y-89530000D01*
X98000000Y-88920000D01*
X98440000Y-89530000D01*
G37*
%TO.C,J5*%
X107620000Y-110120000D02*
X109000000Y-110120000D01*
X107620000Y-111500000D02*
X107620000Y-110120000D01*
X107620000Y-112770000D02*
X107620000Y-125580000D01*
X107620000Y-112770000D02*
X110380000Y-112770000D01*
X107620000Y-125580000D02*
X110380000Y-125580000D01*
X110380000Y-112770000D02*
X110380000Y-125580000D01*
%TO.C,J12*%
X145080000Y-70880000D02*
X145080000Y-69500000D01*
X146460000Y-70880000D02*
X145080000Y-70880000D01*
X147730000Y-68120000D02*
X152920000Y-68120000D01*
X147730000Y-70880000D02*
X147730000Y-68120000D01*
X147730000Y-70880000D02*
X152920000Y-70880000D01*
X152920000Y-70880000D02*
X152920000Y-68120000D01*
%TO.C,J8*%
X113580000Y-65380000D02*
X121620000Y-65380000D01*
X113580000Y-68200000D02*
X113580000Y-65380000D01*
X113580000Y-76120000D02*
X113580000Y-68800000D01*
X115700000Y-65380000D02*
X115700000Y-66620000D01*
X115700000Y-70380000D02*
X115700000Y-72957000D01*
X115700000Y-74043000D02*
X115700000Y-76120000D01*
X117000000Y-65380000D02*
X117000000Y-66620000D01*
X117000000Y-70380000D02*
X117000000Y-71688000D01*
X117000000Y-75312000D02*
X117000000Y-76120000D01*
X118000000Y-65380000D02*
X118000000Y-66620000D01*
X118000000Y-70380000D02*
X118000000Y-71688000D01*
X118000000Y-75312000D02*
X118000000Y-76120000D01*
X121620000Y-65380000D02*
X121620000Y-76120000D01*
X121620000Y-76120000D02*
X113580000Y-76120000D01*
X113580000Y-68500000D02*
X112970000Y-68940000D01*
X112970000Y-68060000D01*
X113580000Y-68500000D01*
G36*
X113580000Y-68500000D02*
G01*
X112970000Y-68940000D01*
X112970000Y-68060000D01*
X113580000Y-68500000D01*
G37*
%TO.C,J4*%
X107620000Y-129620000D02*
X109000000Y-129620000D01*
X107620000Y-131000000D02*
X107620000Y-129620000D01*
X107620000Y-132270000D02*
X107620000Y-145080000D01*
X107620000Y-132270000D02*
X110380000Y-132270000D01*
X107620000Y-145080000D02*
X110380000Y-145080000D01*
X110380000Y-132270000D02*
X110380000Y-145080000D01*
%TO.C,J2*%
X116600000Y-83500000D02*
X148000000Y-83500000D01*
X148000000Y-142840000D01*
X116600000Y-142840000D01*
X116600000Y-83500000D01*
%TO.C,J3*%
X96500000Y-91500000D02*
X106500000Y-91500000D01*
X106500000Y-106500000D01*
X96500000Y-106500000D01*
X96500000Y-91500000D01*
%TD*%
M02*
