%TF.GenerationSoftware,KiCad,Pcbnew,10.0.4*%
%TF.CreationDate,2026-09-20T20:20:18-05:00*%
%TF.ProjectId,papaya-pcb,70617061-7961-42d7-9063-622e6b696361,rev?*%
%TF.SameCoordinates,Original*%
%TF.FileFunction,Copper,L1,Top*%
%TF.FilePolarity,Positive*%
%FSLAX46Y46*%
G04 Gerber Fmt 4.6, Leading zero omitted, Abs format (unit mm)*
G04 Created by KiCad (PCBNEW 10.0.4) date 2026-09-20 20:20:18*
%MOMM*%
%LPD*%
G01*
G04 APERTURE LIST*
G04 Aperture macros list*
%AMRoundRect*
0 Rectangle with rounded corners*
0 $1 Rounding radius*
0 $2 $3 $4 $5 $6 $7 $8 $9 X,Y pos of 4 corners*
0 Add a 4 corners polygon primitive as box body*
4,1,4,$2,$3,$4,$5,$6,$7,$8,$9,$2,$3,0*
0 Add four circle primitives for the rounded corners*
1,1,$1+$1,$2,$3*
1,1,$1+$1,$4,$5*
1,1,$1+$1,$6,$7*
1,1,$1+$1,$8,$9*
0 Add four rect primitives between the rounded corners*
20,1,$1+$1,$2,$3,$4,$5,0*
20,1,$1+$1,$4,$5,$6,$7,0*
20,1,$1+$1,$6,$7,$8,$9,0*
20,1,$1+$1,$8,$9,$2,$3,0*%
G04 Aperture macros list end*
%TA.AperFunction,ComponentPad*%
%ADD10C,2.800000*%
%TD*%
%TA.AperFunction,ComponentPad*%
%ADD11RoundRect,0.250001X-1.149999X1.149999X-1.149999X-1.149999X1.149999X-1.149999X1.149999X1.149999X0*%
%TD*%
%TA.AperFunction,ComponentPad*%
%ADD12R,1.700000X1.700000*%
%TD*%
%TA.AperFunction,ComponentPad*%
%ADD13C,1.700000*%
%TD*%
%TA.AperFunction,ComponentPad*%
%ADD14RoundRect,0.250001X-1.149999X-1.149999X1.149999X-1.149999X1.149999X1.149999X-1.149999X1.149999X0*%
%TD*%
%TA.AperFunction,ComponentPad*%
%ADD15O,2.000000X2.000000*%
%TD*%
%TA.AperFunction,ComponentPad*%
%ADD16R,2.000000X2.000000*%
%TD*%
%TA.AperFunction,ComponentPad*%
%ADD17C,1.800000*%
%TD*%
%TA.AperFunction,ComponentPad*%
%ADD18RoundRect,0.180000X-0.720000X0.720000X-0.720000X-0.720000X0.720000X-0.720000X0.720000X0.720000X0*%
%TD*%
%TA.AperFunction,Conductor*%
%ADD19C,0.200000*%
%TD*%
%TA.AperFunction,Conductor*%
%ADD20C,1.400000*%
%TD*%
G04 APERTURE END LIST*
D10*
%TO.P,J7,2*%
%TO.N,N/C*%
X104000000Y-75500000D03*
D11*
%TO.P,J7,1,Master_GND_OUT(to_B14)_1*%
%TO.N,/NET_B_BUS*%
X104000000Y-70500000D03*
%TD*%
D12*
%TO.P,J9,GND,S1_pin1-GND(black)_GND*%
%TO.N,/NET_B_BUS*%
X131500000Y-67000000D03*
D13*
%TO.P,J9,PWR,S1_pin2-PWR(red)_PWR*%
%TO.N,/NET_BUS_6V*%
X134040000Y-67000000D03*
%TO.P,J9,SIG,S1_pin3-SIG(white)_SIG*%
%TO.N,/NET_S1_SIG*%
X136580000Y-67000000D03*
%TD*%
%TO.P,J6,GND,ELRS_GND_GND*%
%TO.N,/NET_B_BUS*%
X153500000Y-124540000D03*
%TO.P,J6,RX,ELRS_RX(white)_RX*%
%TO.N,/NET_ELRS_RX*%
X153500000Y-129620000D03*
%TO.P,J6,TX,ELRS_TX(green)_TX*%
%TO.N,/NET_ELRS_TX*%
X153500000Y-127080000D03*
D12*
%TO.P,J6,VCC,ELRS_VCC(5V)_VCC*%
%TO.N,/NET_BUS_5V*%
X153500000Y-122000000D03*
%TD*%
%TO.P,J11,GND,S3_pin1-GND(black)_GND*%
%TO.N,/NET_B_BUS*%
X146500000Y-75000000D03*
D13*
%TO.P,J11,PWR,S3_pin2-PWR(red)_PWR*%
%TO.N,/NET_BUS_6V*%
X149040000Y-75000000D03*
%TO.P,J11,SIG,S3_pin3-SIG(white)_SIG*%
%TO.N,/NET_S3_SIG*%
X151580000Y-75000000D03*
%TD*%
D12*
%TO.P,J10,GND,S2_pin1-GND(black)_GND*%
%TO.N,/NET_B_BUS*%
X131500000Y-75000000D03*
D13*
%TO.P,J10,PWR,S2_pin2-PWR(red)_PWR*%
%TO.N,/NET_BUS_6V*%
X134040000Y-75000000D03*
%TO.P,J10,SIG,S2_pin3-SIG(white)_SIG*%
%TO.N,/NET_S2_SIG*%
X136580000Y-75000000D03*
%TD*%
D14*
%TO.P,J1,1,Main_power_IN(feeds_U2)_1*%
%TO.N,/NET_A_BUS*%
X98000000Y-85000000D03*
D10*
%TO.P,J1,2,J1.2_2*%
%TO.N,/NET_B_BUS*%
X103000000Y-85000000D03*
%TD*%
D12*
%TO.P,J5,1,BTS2_pin1-R-PWM_1*%
%TO.N,/NET_BTS2_PIN1_RPWM*%
X109000000Y-111500000D03*
D13*
%TO.P,J5,2,BTS2_pin2-L-PWM_2*%
%TO.N,/NET_BTS2_PIN2_LPWM*%
X109000000Y-114040000D03*
%TO.P,J5,3,BTS2_pin3-R-EN(5V)_3*%
%TO.N,/NET_BUS_5V*%
X109000000Y-116580000D03*
%TO.P,J5,4,BTS2_pin4-L-EN(5V)_4*%
X109000000Y-119120000D03*
%TO.P,J5,7,BTS2_pin7-VCC(5V)_7*%
X109000000Y-121660000D03*
%TO.P,J5,8,BTS2_pin8-GND_8*%
%TO.N,/NET_B_BUS*%
X109000000Y-124200000D03*
%TD*%
D12*
%TO.P,J12,GND,S4_pin1-GND(black)_GND*%
%TO.N,/NET_B_BUS*%
X146460000Y-69500000D03*
D13*
%TO.P,J12,PWR,S4_pin2-PWR(red)_PWR*%
%TO.N,/NET_BUS_6V*%
X149000000Y-69500000D03*
%TO.P,J12,SIG,S4_pin3-SIG(white)_SIG*%
%TO.N,/NET_S4_SIG*%
X151540000Y-69500000D03*
%TD*%
D10*
%TO.P,J8,OUTN,U1_6V_OUT(servo_GND)_OUTN*%
%TO.N,/NET_B_BUS*%
X117500000Y-73500000D03*
D11*
%TO.P,J8,OUTP,U1_6V_OUT(servo_+)_OUTP*%
%TO.N,/NET_BUS_6V*%
X117500000Y-68500000D03*
%TD*%
D12*
%TO.P,J4,1,BTS1_pin1-R-PWM_1*%
%TO.N,/NET_BTS1_PIN1_RPWM*%
X109000000Y-131000000D03*
D13*
%TO.P,J4,2,BTS1_pin2-L-PWM_2*%
%TO.N,/NET_BTS1_PIN2_LPWM*%
X109000000Y-133540000D03*
%TO.P,J4,3,BTS1_pin3-R-EN(5V)_3*%
%TO.N,/NET_BUS_5V*%
X109000000Y-136080000D03*
%TO.P,J4,4,BTS1_pin4-L-EN(5V)_4*%
X109000000Y-138620000D03*
%TO.P,J4,7,BTS1_pin7-VCC(5V)_7*%
X109000000Y-141160000D03*
%TO.P,J4,8,BTS1_pin8-GND_8*%
%TO.N,/NET_B_BUS*%
X109000000Y-143700000D03*
%TD*%
D15*
%TO.P,J2,5V,ESP32_5V_IN_(socket_pin)_5V*%
%TO.N,/NET_BUS_5V*%
X119600000Y-137300000D03*
%TO.P,J2,7,ESP32_GPIO7-S2-LF-signal(socket)_7*%
%TO.N,/NET_S2_SIG*%
X119600000Y-101740000D03*
%TO.P,J2,10,ESP32_GPIO10-BTS2_pin1_R-PWM(socket)_10*%
%TO.N,/NET_BTS2_PIN1_RPWM*%
X119600000Y-124600000D03*
%TO.P,J2,11,ESP32_GPIO11-BTS2_pin2_L-PWM(socket)_11*%
%TO.N,/NET_BTS2_PIN2_LPWM*%
X119600000Y-127140000D03*
%TO.P,J2,12,ESP32_GPIO12-BTS1_pin1_R-PWM(socket)_12*%
%TO.N,/NET_BTS1_PIN1_RPWM*%
X119600000Y-129680000D03*
%TO.P,J2,13,ESP32_GPIO13-BTS1_pin2_L-PWM(socket)_13*%
%TO.N,/NET_BTS1_PIN2_LPWM*%
X119600000Y-132220000D03*
%TO.P,J2,21,ESP32_GPIO21-ELRS_RX_white(socket)_21*%
%TO.N,/NET_ELRS_RX*%
X145000000Y-129680000D03*
%TO.P,J2,38,ESP32_GPIO38-S4-LR_signal(socket)_38*%
%TO.N,/NET_S4_SIG*%
X145000000Y-109360000D03*
%TO.P,J2,41,ESP32_GPIO41-S3-RR_signal(socket)_41*%
%TO.N,/NET_S3_SIG*%
X145000000Y-101740000D03*
%TO.P,J2,42,ESP32_GPIO42-S1-RF_signal(socket)_42*%
%TO.N,/NET_S1_SIG*%
X145000000Y-99200000D03*
%TO.P,J2,47,ESP32_GPIO47-ELRS_TX_green(socket)_47*%
%TO.N,/NET_ELRS_TX*%
X145000000Y-127140000D03*
%TO.P,J2,GND_1,ESP32_ground\u002C_near_5V_IN_(socket_pin)_GND_1*%
%TO.N,/NET_B_BUS*%
X119600000Y-139840000D03*
%TO.P,J2,GND_2,ESP32_ground_near_TX(socket_pin)_GND_2*%
X145000000Y-86500000D03*
D16*
%TO.P,J2,NC_J1_1*%
%TO.N,N/C*%
X119600000Y-86500000D03*
D15*
%TO.P,J2,NC_J1_2*%
X119600000Y-89040000D03*
%TO.P,J2,NC_J1_3*%
X119600000Y-91580000D03*
%TO.P,J2,NC_J1_4*%
X119600000Y-94120000D03*
%TO.P,J2,NC_J1_5*%
X119600000Y-96660000D03*
%TO.P,J2,NC_J1_6*%
X119600000Y-99200000D03*
%TO.P,J2,NC_J1_8*%
X119600000Y-104280000D03*
%TO.P,J2,NC_J1_9*%
X119600000Y-106820000D03*
%TO.P,J2,NC_J1_10*%
X119600000Y-109360000D03*
%TO.P,J2,NC_J1_11*%
X119600000Y-111900000D03*
%TO.P,J2,NC_J1_12*%
X119600000Y-114440000D03*
%TO.P,J2,NC_J1_13*%
X119600000Y-116980000D03*
%TO.P,J2,NC_J1_14*%
X119600000Y-119520000D03*
%TO.P,J2,NC_J1_15*%
X119600000Y-122060000D03*
%TO.P,J2,NC_J1_20*%
X119600000Y-134760000D03*
%TO.P,J2,NC_J3_2*%
X145000000Y-89040000D03*
%TO.P,J2,NC_J3_3*%
X145000000Y-91580000D03*
%TO.P,J2,NC_J3_4*%
X145000000Y-94120000D03*
%TO.P,J2,NC_J3_5*%
X145000000Y-96660000D03*
%TO.P,J2,NC_J3_8*%
X145000000Y-104280000D03*
%TO.P,J2,NC_J3_9*%
X145000000Y-106820000D03*
%TO.P,J2,NC_J3_11*%
X145000000Y-111900000D03*
%TO.P,J2,NC_J3_12*%
X145000000Y-114440000D03*
%TO.P,J2,NC_J3_13*%
X145000000Y-116980000D03*
%TO.P,J2,NC_J3_14*%
X145000000Y-119520000D03*
%TO.P,J2,NC_J3_15*%
X145000000Y-122060000D03*
%TO.P,J2,NC_J3_16*%
X145000000Y-124600000D03*
%TO.P,J2,NC_J3_19*%
X145000000Y-132220000D03*
%TO.P,J2,NC_J3_20*%
X145000000Y-134760000D03*
%TO.P,J2,NC_J3_21*%
X145000000Y-137300000D03*
%TO.P,J2,NC_J3_22*%
X145000000Y-139840000D03*
%TD*%
D17*
%TO.P,J3,INN,U2_5V_IN-NEG_INN*%
%TO.N,/NET_B_BUS*%
X105000000Y-92500000D03*
D18*
%TO.P,J3,INP,U2_5V_IN-POS_INP*%
%TO.N,/NET_A_BUS*%
X98000000Y-92500000D03*
D17*
%TO.P,J3,OUTN,U2_5V_OUT-NEG_OUTN*%
%TO.N,/NET_B_BUS*%
X105000000Y-105500000D03*
%TO.P,J3,OUTP,U2_5V_OUT_POS_OUTP*%
%TO.N,/NET_BUS_5V*%
X98000000Y-105500000D03*
%TD*%
%TO.N,/NET_S1_SIG*%
D19*
X141500000Y-80500000D02*
X141500000Y-67000000D01*
X150500000Y-80500000D02*
X141500000Y-80500000D01*
X150300000Y-99200000D02*
X150500000Y-99000000D01*
X141500000Y-67000000D02*
X136580000Y-67000000D01*
X145000000Y-99200000D02*
X150300000Y-99200000D01*
X150500000Y-99000000D02*
X150500000Y-80500000D01*
%TO.N,/NET_ELRS_RX*%
X153440000Y-129680000D02*
X153500000Y-129620000D01*
X145000000Y-129680000D02*
X153440000Y-129680000D01*
%TO.N,/NET_ELRS_TX*%
X153440000Y-127140000D02*
X153500000Y-127080000D01*
X145000000Y-127140000D02*
X153440000Y-127140000D01*
%TO.N,/NET_S3_SIG*%
X151260000Y-101740000D02*
X151580000Y-101420000D01*
X151580000Y-101420000D02*
X151580000Y-75000000D01*
X145000000Y-101740000D02*
X151260000Y-101740000D01*
%TO.N,/NET_S2_SIG*%
X136000000Y-80000000D02*
X136580000Y-79420000D01*
X113000000Y-80000000D02*
X136000000Y-80000000D01*
X136580000Y-79420000D02*
X136580000Y-75000000D01*
X119600000Y-101740000D02*
X113260000Y-101740000D01*
X113000000Y-101480000D02*
X113000000Y-80000000D01*
X113260000Y-101740000D02*
X113000000Y-101480000D01*
%TO.N,/NET_A_BUS*%
X99000000Y-85000000D02*
X99000000Y-85500000D01*
D20*
X98000000Y-86500000D02*
X98000000Y-92500000D01*
D19*
X99000000Y-85500000D02*
X98000000Y-86500000D01*
%TO.N,/NET_BTS2_PIN1_RPWM*%
X115100000Y-124600000D02*
X114500000Y-124000000D01*
X119600000Y-124600000D02*
X115100000Y-124600000D01*
X114500000Y-124000000D02*
X114500000Y-111500000D01*
X114500000Y-111500000D02*
X109000000Y-111500000D01*
%TO.N,/NET_BTS2_PIN2_LPWM*%
X113640000Y-127140000D02*
X113000000Y-126500000D01*
X119600000Y-127140000D02*
X113640000Y-127140000D01*
X113000000Y-126500000D02*
X113000000Y-114000000D01*
X112960000Y-114040000D02*
X109000000Y-114040000D01*
X113000000Y-114000000D02*
X112960000Y-114040000D01*
%TO.N,/NET_S4_SIG*%
X145000000Y-109360000D02*
X156000000Y-109360000D01*
X156000000Y-109360000D02*
X156000000Y-69500000D01*
X156000000Y-69500000D02*
X151540000Y-69500000D01*
%TO.N,/NET_BTS1_PIN1_RPWM*%
X119600000Y-129680000D02*
X114680000Y-129680000D01*
X114320000Y-129680000D02*
X113000000Y-131000000D01*
X114680000Y-129680000D02*
X114320000Y-129680000D01*
X113000000Y-131000000D02*
X109000000Y-131000000D01*
%TO.N,/NET_BTS1_PIN2_LPWM*%
X112960000Y-133540000D02*
X109000000Y-133540000D01*
X119600000Y-132220000D02*
X114280000Y-132220000D01*
X114280000Y-132220000D02*
X112960000Y-133540000D01*
%TD*%
M02*
