%TF.GenerationSoftware,KiCad,Pcbnew,10.0.4*%
%TF.CreationDate,2026-08-06T16:45:51-05:00*%
%TF.ProjectId,papaya-pcb,70617061-7961-42d7-9063-622e6b696361,rev?*%
%TF.SameCoordinates,Original*%
%TF.FileFunction,Drillmap*%
%TF.FilePolarity,Positive*%
%FSLAX45Y45*%
G04 Gerber Fmt 4.5, Leading zero omitted, Abs format (unit mm)*
G04 Created by KiCad (PCBNEW 10.0.4) date 2026-08-06 16:45:51*
%MOMM*%
%LPD*%
G01*
G04 APERTURE LIST*
%ADD10C,0.050000*%
%ADD11C,0.200000*%
%ADD12C,0.100000*%
%ADD13C,0.110000*%
%ADD14C,0.130000*%
%ADD15C,0.320000*%
G04 APERTURE END LIST*
D10*
X9050000Y-5850000D02*
X16050000Y-5850000D01*
X16050000Y-14850000D01*
X9050000Y-14850000D01*
X9050000Y-5850000D01*
D11*
D12*
X9750000Y-9200000D02*
X9850000Y-9300000D01*
X9850000Y-9200000D02*
X9750000Y-9300000D01*
X9750000Y-10500000D02*
X9850000Y-10600000D01*
X9850000Y-10500000D02*
X9750000Y-10600000D01*
X10450000Y-9200000D02*
X10550000Y-9300000D01*
X10550000Y-9200000D02*
X10450000Y-9300000D01*
X10450000Y-10500000D02*
X10550000Y-10600000D01*
X10550000Y-10500000D02*
X10450000Y-10600000D01*
X10850000Y-11100000D02*
X10950000Y-11200000D01*
X10950000Y-11100000D02*
X10850000Y-11200000D01*
X10850000Y-11354000D02*
X10950000Y-11454000D01*
X10950000Y-11354000D02*
X10850000Y-11454000D01*
X10850000Y-11608000D02*
X10950000Y-11708000D01*
X10950000Y-11608000D02*
X10850000Y-11708000D01*
X10850000Y-11862000D02*
X10950000Y-11962000D01*
X10950000Y-11862000D02*
X10850000Y-11962000D01*
X10850000Y-12116000D02*
X10950000Y-12216000D01*
X10950000Y-12116000D02*
X10850000Y-12216000D01*
X10850000Y-12370000D02*
X10950000Y-12470000D01*
X10950000Y-12370000D02*
X10850000Y-12470000D01*
X10850000Y-13050000D02*
X10950000Y-13150000D01*
X10950000Y-13050000D02*
X10850000Y-13150000D01*
X10850000Y-13304000D02*
X10950000Y-13404000D01*
X10950000Y-13304000D02*
X10850000Y-13404000D01*
X10850000Y-13558000D02*
X10950000Y-13658000D01*
X10950000Y-13558000D02*
X10850000Y-13658000D01*
X10850000Y-13812000D02*
X10950000Y-13912000D01*
X10950000Y-13812000D02*
X10850000Y-13912000D01*
X10850000Y-14066000D02*
X10950000Y-14166000D01*
X10950000Y-14066000D02*
X10850000Y-14166000D01*
X10850000Y-14320000D02*
X10950000Y-14420000D01*
X10950000Y-14320000D02*
X10850000Y-14420000D01*
X13100000Y-6650000D02*
X13200000Y-6750000D01*
X13200000Y-6650000D02*
X13100000Y-6750000D01*
X13100000Y-7450000D02*
X13200000Y-7550000D01*
X13200000Y-7450000D02*
X13100000Y-7550000D01*
X13354000Y-6650000D02*
X13454000Y-6750000D01*
X13454000Y-6650000D02*
X13354000Y-6750000D01*
X13354000Y-7450000D02*
X13454000Y-7550000D01*
X13454000Y-7450000D02*
X13354000Y-7550000D01*
X13608000Y-6650000D02*
X13708000Y-6750000D01*
X13708000Y-6650000D02*
X13608000Y-6750000D01*
X13608000Y-7450000D02*
X13708000Y-7550000D01*
X13708000Y-7450000D02*
X13608000Y-7550000D01*
X14596000Y-6900000D02*
X14696000Y-7000000D01*
X14696000Y-6900000D02*
X14596000Y-7000000D01*
X14600000Y-7450000D02*
X14700000Y-7550000D01*
X14700000Y-7450000D02*
X14600000Y-7550000D01*
X14850000Y-6900000D02*
X14950000Y-7000000D01*
X14950000Y-6900000D02*
X14850000Y-7000000D01*
X14854000Y-7450000D02*
X14954000Y-7550000D01*
X14954000Y-7450000D02*
X14854000Y-7550000D01*
X15104000Y-6900000D02*
X15204000Y-7000000D01*
X15204000Y-6900000D02*
X15104000Y-7000000D01*
X15108000Y-7450000D02*
X15208000Y-7550000D01*
X15208000Y-7450000D02*
X15108000Y-7550000D01*
X15300000Y-12150000D02*
X15400000Y-12250000D01*
X15400000Y-12150000D02*
X15300000Y-12250000D01*
X15300000Y-12404000D02*
X15400000Y-12504000D01*
X15400000Y-12404000D02*
X15300000Y-12504000D01*
X15300000Y-12658000D02*
X15400000Y-12758000D01*
X15400000Y-12658000D02*
X15300000Y-12758000D01*
X15300000Y-12912000D02*
X15400000Y-13012000D01*
X15400000Y-12912000D02*
X15300000Y-13012000D01*
D13*
X12015000Y-8650000D02*
G75*
G02*
X11905000Y-8650000I-55000J0D01*
G01*
X11905000Y-8650000D02*
G75*
G02*
X12015000Y-8650000I55000J0D01*
G01*
X12015000Y-8904000D02*
G75*
G02*
X11905000Y-8904000I-55000J0D01*
G01*
X11905000Y-8904000D02*
G75*
G02*
X12015000Y-8904000I55000J0D01*
G01*
X12015000Y-9158000D02*
G75*
G02*
X11905000Y-9158000I-55000J0D01*
G01*
X11905000Y-9158000D02*
G75*
G02*
X12015000Y-9158000I55000J0D01*
G01*
X12015000Y-9412000D02*
G75*
G02*
X11905000Y-9412000I-55000J0D01*
G01*
X11905000Y-9412000D02*
G75*
G02*
X12015000Y-9412000I55000J0D01*
G01*
X12015000Y-9666000D02*
G75*
G02*
X11905000Y-9666000I-55000J0D01*
G01*
X11905000Y-9666000D02*
G75*
G02*
X12015000Y-9666000I55000J0D01*
G01*
X12015000Y-9920000D02*
G75*
G02*
X11905000Y-9920000I-55000J0D01*
G01*
X11905000Y-9920000D02*
G75*
G02*
X12015000Y-9920000I55000J0D01*
G01*
X12015000Y-10174000D02*
G75*
G02*
X11905000Y-10174000I-55000J0D01*
G01*
X11905000Y-10174000D02*
G75*
G02*
X12015000Y-10174000I55000J0D01*
G01*
X12015000Y-10428000D02*
G75*
G02*
X11905000Y-10428000I-55000J0D01*
G01*
X11905000Y-10428000D02*
G75*
G02*
X12015000Y-10428000I55000J0D01*
G01*
X12015000Y-10682000D02*
G75*
G02*
X11905000Y-10682000I-55000J0D01*
G01*
X11905000Y-10682000D02*
G75*
G02*
X12015000Y-10682000I55000J0D01*
G01*
X12015000Y-10936000D02*
G75*
G02*
X11905000Y-10936000I-55000J0D01*
G01*
X11905000Y-10936000D02*
G75*
G02*
X12015000Y-10936000I55000J0D01*
G01*
X12015000Y-11190000D02*
G75*
G02*
X11905000Y-11190000I-55000J0D01*
G01*
X11905000Y-11190000D02*
G75*
G02*
X12015000Y-11190000I55000J0D01*
G01*
X12015000Y-11444000D02*
G75*
G02*
X11905000Y-11444000I-55000J0D01*
G01*
X11905000Y-11444000D02*
G75*
G02*
X12015000Y-11444000I55000J0D01*
G01*
X12015000Y-11698000D02*
G75*
G02*
X11905000Y-11698000I-55000J0D01*
G01*
X11905000Y-11698000D02*
G75*
G02*
X12015000Y-11698000I55000J0D01*
G01*
X12015000Y-11952000D02*
G75*
G02*
X11905000Y-11952000I-55000J0D01*
G01*
X11905000Y-11952000D02*
G75*
G02*
X12015000Y-11952000I55000J0D01*
G01*
X12015000Y-12206000D02*
G75*
G02*
X11905000Y-12206000I-55000J0D01*
G01*
X11905000Y-12206000D02*
G75*
G02*
X12015000Y-12206000I55000J0D01*
G01*
X12015000Y-12460000D02*
G75*
G02*
X11905000Y-12460000I-55000J0D01*
G01*
X11905000Y-12460000D02*
G75*
G02*
X12015000Y-12460000I55000J0D01*
G01*
X12015000Y-12714000D02*
G75*
G02*
X11905000Y-12714000I-55000J0D01*
G01*
X11905000Y-12714000D02*
G75*
G02*
X12015000Y-12714000I55000J0D01*
G01*
X12015000Y-12968000D02*
G75*
G02*
X11905000Y-12968000I-55000J0D01*
G01*
X11905000Y-12968000D02*
G75*
G02*
X12015000Y-12968000I55000J0D01*
G01*
X12015000Y-13222000D02*
G75*
G02*
X11905000Y-13222000I-55000J0D01*
G01*
X11905000Y-13222000D02*
G75*
G02*
X12015000Y-13222000I55000J0D01*
G01*
X12015000Y-13476000D02*
G75*
G02*
X11905000Y-13476000I-55000J0D01*
G01*
X11905000Y-13476000D02*
G75*
G02*
X12015000Y-13476000I55000J0D01*
G01*
X12015000Y-13730000D02*
G75*
G02*
X11905000Y-13730000I-55000J0D01*
G01*
X11905000Y-13730000D02*
G75*
G02*
X12015000Y-13730000I55000J0D01*
G01*
X12015000Y-13984000D02*
G75*
G02*
X11905000Y-13984000I-55000J0D01*
G01*
X11905000Y-13984000D02*
G75*
G02*
X12015000Y-13984000I55000J0D01*
G01*
X14555000Y-8650000D02*
G75*
G02*
X14445000Y-8650000I-55000J0D01*
G01*
X14445000Y-8650000D02*
G75*
G02*
X14555000Y-8650000I55000J0D01*
G01*
X14555000Y-8904000D02*
G75*
G02*
X14445000Y-8904000I-55000J0D01*
G01*
X14445000Y-8904000D02*
G75*
G02*
X14555000Y-8904000I55000J0D01*
G01*
X14555000Y-9158000D02*
G75*
G02*
X14445000Y-9158000I-55000J0D01*
G01*
X14445000Y-9158000D02*
G75*
G02*
X14555000Y-9158000I55000J0D01*
G01*
X14555000Y-9412000D02*
G75*
G02*
X14445000Y-9412000I-55000J0D01*
G01*
X14445000Y-9412000D02*
G75*
G02*
X14555000Y-9412000I55000J0D01*
G01*
X14555000Y-9666000D02*
G75*
G02*
X14445000Y-9666000I-55000J0D01*
G01*
X14445000Y-9666000D02*
G75*
G02*
X14555000Y-9666000I55000J0D01*
G01*
X14555000Y-9920000D02*
G75*
G02*
X14445000Y-9920000I-55000J0D01*
G01*
X14445000Y-9920000D02*
G75*
G02*
X14555000Y-9920000I55000J0D01*
G01*
X14555000Y-10174000D02*
G75*
G02*
X14445000Y-10174000I-55000J0D01*
G01*
X14445000Y-10174000D02*
G75*
G02*
X14555000Y-10174000I55000J0D01*
G01*
X14555000Y-10428000D02*
G75*
G02*
X14445000Y-10428000I-55000J0D01*
G01*
X14445000Y-10428000D02*
G75*
G02*
X14555000Y-10428000I55000J0D01*
G01*
X14555000Y-10682000D02*
G75*
G02*
X14445000Y-10682000I-55000J0D01*
G01*
X14445000Y-10682000D02*
G75*
G02*
X14555000Y-10682000I55000J0D01*
G01*
X14555000Y-10936000D02*
G75*
G02*
X14445000Y-10936000I-55000J0D01*
G01*
X14445000Y-10936000D02*
G75*
G02*
X14555000Y-10936000I55000J0D01*
G01*
X14555000Y-11190000D02*
G75*
G02*
X14445000Y-11190000I-55000J0D01*
G01*
X14445000Y-11190000D02*
G75*
G02*
X14555000Y-11190000I55000J0D01*
G01*
X14555000Y-11444000D02*
G75*
G02*
X14445000Y-11444000I-55000J0D01*
G01*
X14445000Y-11444000D02*
G75*
G02*
X14555000Y-11444000I55000J0D01*
G01*
X14555000Y-11698000D02*
G75*
G02*
X14445000Y-11698000I-55000J0D01*
G01*
X14445000Y-11698000D02*
G75*
G02*
X14555000Y-11698000I55000J0D01*
G01*
X14555000Y-11952000D02*
G75*
G02*
X14445000Y-11952000I-55000J0D01*
G01*
X14445000Y-11952000D02*
G75*
G02*
X14555000Y-11952000I55000J0D01*
G01*
X14555000Y-12206000D02*
G75*
G02*
X14445000Y-12206000I-55000J0D01*
G01*
X14445000Y-12206000D02*
G75*
G02*
X14555000Y-12206000I55000J0D01*
G01*
X14555000Y-12460000D02*
G75*
G02*
X14445000Y-12460000I-55000J0D01*
G01*
X14445000Y-12460000D02*
G75*
G02*
X14555000Y-12460000I55000J0D01*
G01*
X14555000Y-12714000D02*
G75*
G02*
X14445000Y-12714000I-55000J0D01*
G01*
X14445000Y-12714000D02*
G75*
G02*
X14555000Y-12714000I55000J0D01*
G01*
X14555000Y-12968000D02*
G75*
G02*
X14445000Y-12968000I-55000J0D01*
G01*
X14445000Y-12968000D02*
G75*
G02*
X14555000Y-12968000I55000J0D01*
G01*
X14555000Y-13222000D02*
G75*
G02*
X14445000Y-13222000I-55000J0D01*
G01*
X14445000Y-13222000D02*
G75*
G02*
X14555000Y-13222000I55000J0D01*
G01*
X14555000Y-13476000D02*
G75*
G02*
X14445000Y-13476000I-55000J0D01*
G01*
X14445000Y-13476000D02*
G75*
G02*
X14555000Y-13476000I55000J0D01*
G01*
X14555000Y-13730000D02*
G75*
G02*
X14445000Y-13730000I-55000J0D01*
G01*
X14445000Y-13730000D02*
G75*
G02*
X14555000Y-13730000I55000J0D01*
G01*
X14555000Y-13984000D02*
G75*
G02*
X14445000Y-13984000I-55000J0D01*
G01*
X14445000Y-13984000D02*
G75*
G02*
X14555000Y-13984000I55000J0D01*
G01*
D14*
X9800000Y-8435000D02*
X9800000Y-8565000D01*
X9735000Y-8500000D02*
X9865000Y-8500000D01*
X10300000Y-8435000D02*
X10300000Y-8565000D01*
X10235000Y-8500000D02*
X10365000Y-8500000D01*
X10400000Y-6985000D02*
X10400000Y-7115000D01*
X10335000Y-7050000D02*
X10465000Y-7050000D01*
X10400000Y-7485000D02*
X10400000Y-7615000D01*
X10335000Y-7550000D02*
X10465000Y-7550000D01*
X11750000Y-6785000D02*
X11750000Y-6915000D01*
X11685000Y-6850000D02*
X11815000Y-6850000D01*
X11750000Y-7285000D02*
X11750000Y-7415000D01*
X11685000Y-7350000D02*
X11815000Y-7350000D01*
D15*
X9663138Y-6463138D02*
X9663138Y-6236862D01*
X9436862Y-6236862D01*
X9436862Y-6463138D01*
X9663138Y-6463138D01*
X9663138Y-14463138D02*
X9663138Y-14236862D01*
X9436862Y-14236862D01*
X9436862Y-14463138D01*
X9663138Y-14463138D01*
X15663138Y-6463138D02*
X15663138Y-6236862D01*
X15436862Y-6236862D01*
X15436862Y-6463138D01*
X15663138Y-6463138D01*
X15663138Y-14463138D02*
X15663138Y-14236862D01*
X15436862Y-14236862D01*
X15436862Y-14463138D01*
X15663138Y-14463138D01*
D11*
X9308277Y-15163984D02*
X9308277Y-14963984D01*
X9308277Y-14963984D02*
X9355896Y-14963984D01*
X9355896Y-14963984D02*
X9384467Y-14973508D01*
X9384467Y-14973508D02*
X9403515Y-14992555D01*
X9403515Y-14992555D02*
X9413039Y-15011603D01*
X9413039Y-15011603D02*
X9422563Y-15049698D01*
X9422563Y-15049698D02*
X9422563Y-15078269D01*
X9422563Y-15078269D02*
X9413039Y-15116365D01*
X9413039Y-15116365D02*
X9403515Y-15135412D01*
X9403515Y-15135412D02*
X9384467Y-15154460D01*
X9384467Y-15154460D02*
X9355896Y-15163984D01*
X9355896Y-15163984D02*
X9308277Y-15163984D01*
X9508277Y-15163984D02*
X9508277Y-15030650D01*
X9508277Y-15068746D02*
X9517801Y-15049698D01*
X9517801Y-15049698D02*
X9527324Y-15040174D01*
X9527324Y-15040174D02*
X9546372Y-15030650D01*
X9546372Y-15030650D02*
X9565420Y-15030650D01*
X9632086Y-15163984D02*
X9632086Y-15030650D01*
X9632086Y-14963984D02*
X9622563Y-14973508D01*
X9622563Y-14973508D02*
X9632086Y-14983031D01*
X9632086Y-14983031D02*
X9641610Y-14973508D01*
X9641610Y-14973508D02*
X9632086Y-14963984D01*
X9632086Y-14963984D02*
X9632086Y-14983031D01*
X9755896Y-15163984D02*
X9736848Y-15154460D01*
X9736848Y-15154460D02*
X9727324Y-15135412D01*
X9727324Y-15135412D02*
X9727324Y-14963984D01*
X9860658Y-15163984D02*
X9841610Y-15154460D01*
X9841610Y-15154460D02*
X9832086Y-15135412D01*
X9832086Y-15135412D02*
X9832086Y-14963984D01*
X10089229Y-15163984D02*
X10089229Y-14963984D01*
X10089229Y-14963984D02*
X10155896Y-15106841D01*
X10155896Y-15106841D02*
X10222563Y-14963984D01*
X10222563Y-14963984D02*
X10222563Y-15163984D01*
X10403515Y-15163984D02*
X10403515Y-15059222D01*
X10403515Y-15059222D02*
X10393991Y-15040174D01*
X10393991Y-15040174D02*
X10374944Y-15030650D01*
X10374944Y-15030650D02*
X10336848Y-15030650D01*
X10336848Y-15030650D02*
X10317801Y-15040174D01*
X10403515Y-15154460D02*
X10384467Y-15163984D01*
X10384467Y-15163984D02*
X10336848Y-15163984D01*
X10336848Y-15163984D02*
X10317801Y-15154460D01*
X10317801Y-15154460D02*
X10308277Y-15135412D01*
X10308277Y-15135412D02*
X10308277Y-15116365D01*
X10308277Y-15116365D02*
X10317801Y-15097317D01*
X10317801Y-15097317D02*
X10336848Y-15087793D01*
X10336848Y-15087793D02*
X10384467Y-15087793D01*
X10384467Y-15087793D02*
X10403515Y-15078269D01*
X10498753Y-15030650D02*
X10498753Y-15230650D01*
X10498753Y-15040174D02*
X10517801Y-15030650D01*
X10517801Y-15030650D02*
X10555896Y-15030650D01*
X10555896Y-15030650D02*
X10574944Y-15040174D01*
X10574944Y-15040174D02*
X10584467Y-15049698D01*
X10584467Y-15049698D02*
X10593991Y-15068746D01*
X10593991Y-15068746D02*
X10593991Y-15125888D01*
X10593991Y-15125888D02*
X10584467Y-15144936D01*
X10584467Y-15144936D02*
X10574944Y-15154460D01*
X10574944Y-15154460D02*
X10555896Y-15163984D01*
X10555896Y-15163984D02*
X10517801Y-15163984D01*
X10517801Y-15163984D02*
X10498753Y-15154460D01*
X10679705Y-15144936D02*
X10689229Y-15154460D01*
X10689229Y-15154460D02*
X10679705Y-15163984D01*
X10679705Y-15163984D02*
X10670182Y-15154460D01*
X10670182Y-15154460D02*
X10679705Y-15144936D01*
X10679705Y-15144936D02*
X10679705Y-15163984D01*
X10679705Y-15040174D02*
X10689229Y-15049698D01*
X10689229Y-15049698D02*
X10679705Y-15059222D01*
X10679705Y-15059222D02*
X10670182Y-15049698D01*
X10670182Y-15049698D02*
X10679705Y-15040174D01*
X10679705Y-15040174D02*
X10679705Y-15059222D01*
D12*
X8947500Y-15442500D02*
X9047500Y-15542500D01*
X9047500Y-15442500D02*
X8947500Y-15542500D01*
D11*
X9413039Y-15583984D02*
X9298753Y-15583984D01*
X9355896Y-15583984D02*
X9355896Y-15383984D01*
X9355896Y-15383984D02*
X9336848Y-15412555D01*
X9336848Y-15412555D02*
X9317801Y-15431603D01*
X9317801Y-15431603D02*
X9298753Y-15441127D01*
X9498753Y-15564936D02*
X9508277Y-15574460D01*
X9508277Y-15574460D02*
X9498753Y-15583984D01*
X9498753Y-15583984D02*
X9489229Y-15574460D01*
X9489229Y-15574460D02*
X9498753Y-15564936D01*
X9498753Y-15564936D02*
X9498753Y-15583984D01*
X9632086Y-15383984D02*
X9651134Y-15383984D01*
X9651134Y-15383984D02*
X9670182Y-15393508D01*
X9670182Y-15393508D02*
X9679705Y-15403031D01*
X9679705Y-15403031D02*
X9689229Y-15422079D01*
X9689229Y-15422079D02*
X9698753Y-15460174D01*
X9698753Y-15460174D02*
X9698753Y-15507793D01*
X9698753Y-15507793D02*
X9689229Y-15545888D01*
X9689229Y-15545888D02*
X9679705Y-15564936D01*
X9679705Y-15564936D02*
X9670182Y-15574460D01*
X9670182Y-15574460D02*
X9651134Y-15583984D01*
X9651134Y-15583984D02*
X9632086Y-15583984D01*
X9632086Y-15583984D02*
X9613039Y-15574460D01*
X9613039Y-15574460D02*
X9603515Y-15564936D01*
X9603515Y-15564936D02*
X9593991Y-15545888D01*
X9593991Y-15545888D02*
X9584467Y-15507793D01*
X9584467Y-15507793D02*
X9584467Y-15460174D01*
X9584467Y-15460174D02*
X9593991Y-15422079D01*
X9593991Y-15422079D02*
X9603515Y-15403031D01*
X9603515Y-15403031D02*
X9613039Y-15393508D01*
X9613039Y-15393508D02*
X9632086Y-15383984D01*
X9822563Y-15383984D02*
X9841610Y-15383984D01*
X9841610Y-15383984D02*
X9860658Y-15393508D01*
X9860658Y-15393508D02*
X9870182Y-15403031D01*
X9870182Y-15403031D02*
X9879705Y-15422079D01*
X9879705Y-15422079D02*
X9889229Y-15460174D01*
X9889229Y-15460174D02*
X9889229Y-15507793D01*
X9889229Y-15507793D02*
X9879705Y-15545888D01*
X9879705Y-15545888D02*
X9870182Y-15564936D01*
X9870182Y-15564936D02*
X9860658Y-15574460D01*
X9860658Y-15574460D02*
X9841610Y-15583984D01*
X9841610Y-15583984D02*
X9822563Y-15583984D01*
X9822563Y-15583984D02*
X9803515Y-15574460D01*
X9803515Y-15574460D02*
X9793991Y-15564936D01*
X9793991Y-15564936D02*
X9784467Y-15545888D01*
X9784467Y-15545888D02*
X9774944Y-15507793D01*
X9774944Y-15507793D02*
X9774944Y-15460174D01*
X9774944Y-15460174D02*
X9784467Y-15422079D01*
X9784467Y-15422079D02*
X9793991Y-15403031D01*
X9793991Y-15403031D02*
X9803515Y-15393508D01*
X9803515Y-15393508D02*
X9822563Y-15383984D01*
X10013039Y-15383984D02*
X10032086Y-15383984D01*
X10032086Y-15383984D02*
X10051134Y-15393508D01*
X10051134Y-15393508D02*
X10060658Y-15403031D01*
X10060658Y-15403031D02*
X10070182Y-15422079D01*
X10070182Y-15422079D02*
X10079705Y-15460174D01*
X10079705Y-15460174D02*
X10079705Y-15507793D01*
X10079705Y-15507793D02*
X10070182Y-15545888D01*
X10070182Y-15545888D02*
X10060658Y-15564936D01*
X10060658Y-15564936D02*
X10051134Y-15574460D01*
X10051134Y-15574460D02*
X10032086Y-15583984D01*
X10032086Y-15583984D02*
X10013039Y-15583984D01*
X10013039Y-15583984D02*
X9993991Y-15574460D01*
X9993991Y-15574460D02*
X9984467Y-15564936D01*
X9984467Y-15564936D02*
X9974944Y-15545888D01*
X9974944Y-15545888D02*
X9965420Y-15507793D01*
X9965420Y-15507793D02*
X9965420Y-15460174D01*
X9965420Y-15460174D02*
X9974944Y-15422079D01*
X9974944Y-15422079D02*
X9984467Y-15403031D01*
X9984467Y-15403031D02*
X9993991Y-15393508D01*
X9993991Y-15393508D02*
X10013039Y-15383984D01*
X10165420Y-15583984D02*
X10165420Y-15450650D01*
X10165420Y-15469698D02*
X10174944Y-15460174D01*
X10174944Y-15460174D02*
X10193991Y-15450650D01*
X10193991Y-15450650D02*
X10222563Y-15450650D01*
X10222563Y-15450650D02*
X10241610Y-15460174D01*
X10241610Y-15460174D02*
X10251134Y-15479222D01*
X10251134Y-15479222D02*
X10251134Y-15583984D01*
X10251134Y-15479222D02*
X10260658Y-15460174D01*
X10260658Y-15460174D02*
X10279705Y-15450650D01*
X10279705Y-15450650D02*
X10308277Y-15450650D01*
X10308277Y-15450650D02*
X10327325Y-15460174D01*
X10327325Y-15460174D02*
X10336848Y-15479222D01*
X10336848Y-15479222D02*
X10336848Y-15583984D01*
X10432086Y-15583984D02*
X10432086Y-15450650D01*
X10432086Y-15469698D02*
X10441610Y-15460174D01*
X10441610Y-15460174D02*
X10460658Y-15450650D01*
X10460658Y-15450650D02*
X10489229Y-15450650D01*
X10489229Y-15450650D02*
X10508277Y-15460174D01*
X10508277Y-15460174D02*
X10517801Y-15479222D01*
X10517801Y-15479222D02*
X10517801Y-15583984D01*
X10517801Y-15479222D02*
X10527325Y-15460174D01*
X10527325Y-15460174D02*
X10546372Y-15450650D01*
X10546372Y-15450650D02*
X10574944Y-15450650D01*
X10574944Y-15450650D02*
X10593991Y-15460174D01*
X10593991Y-15460174D02*
X10603515Y-15479222D01*
X10603515Y-15479222D02*
X10603515Y-15583984D01*
X10993991Y-15374460D02*
X10822563Y-15631603D01*
X11251134Y-15383984D02*
X11270182Y-15383984D01*
X11270182Y-15383984D02*
X11289229Y-15393508D01*
X11289229Y-15393508D02*
X11298753Y-15403031D01*
X11298753Y-15403031D02*
X11308277Y-15422079D01*
X11308277Y-15422079D02*
X11317801Y-15460174D01*
X11317801Y-15460174D02*
X11317801Y-15507793D01*
X11317801Y-15507793D02*
X11308277Y-15545888D01*
X11308277Y-15545888D02*
X11298753Y-15564936D01*
X11298753Y-15564936D02*
X11289229Y-15574460D01*
X11289229Y-15574460D02*
X11270182Y-15583984D01*
X11270182Y-15583984D02*
X11251134Y-15583984D01*
X11251134Y-15583984D02*
X11232086Y-15574460D01*
X11232086Y-15574460D02*
X11222563Y-15564936D01*
X11222563Y-15564936D02*
X11213039Y-15545888D01*
X11213039Y-15545888D02*
X11203515Y-15507793D01*
X11203515Y-15507793D02*
X11203515Y-15460174D01*
X11203515Y-15460174D02*
X11213039Y-15422079D01*
X11213039Y-15422079D02*
X11222563Y-15403031D01*
X11222563Y-15403031D02*
X11232086Y-15393508D01*
X11232086Y-15393508D02*
X11251134Y-15383984D01*
X11403515Y-15564936D02*
X11413039Y-15574460D01*
X11413039Y-15574460D02*
X11403515Y-15583984D01*
X11403515Y-15583984D02*
X11393991Y-15574460D01*
X11393991Y-15574460D02*
X11403515Y-15564936D01*
X11403515Y-15564936D02*
X11403515Y-15583984D01*
X11536848Y-15383984D02*
X11555896Y-15383984D01*
X11555896Y-15383984D02*
X11574944Y-15393508D01*
X11574944Y-15393508D02*
X11584467Y-15403031D01*
X11584467Y-15403031D02*
X11593991Y-15422079D01*
X11593991Y-15422079D02*
X11603515Y-15460174D01*
X11603515Y-15460174D02*
X11603515Y-15507793D01*
X11603515Y-15507793D02*
X11593991Y-15545888D01*
X11593991Y-15545888D02*
X11584467Y-15564936D01*
X11584467Y-15564936D02*
X11574944Y-15574460D01*
X11574944Y-15574460D02*
X11555896Y-15583984D01*
X11555896Y-15583984D02*
X11536848Y-15583984D01*
X11536848Y-15583984D02*
X11517801Y-15574460D01*
X11517801Y-15574460D02*
X11508277Y-15564936D01*
X11508277Y-15564936D02*
X11498753Y-15545888D01*
X11498753Y-15545888D02*
X11489229Y-15507793D01*
X11489229Y-15507793D02*
X11489229Y-15460174D01*
X11489229Y-15460174D02*
X11498753Y-15422079D01*
X11498753Y-15422079D02*
X11508277Y-15403031D01*
X11508277Y-15403031D02*
X11517801Y-15393508D01*
X11517801Y-15393508D02*
X11536848Y-15383984D01*
X11670182Y-15383984D02*
X11793991Y-15383984D01*
X11793991Y-15383984D02*
X11727325Y-15460174D01*
X11727325Y-15460174D02*
X11755896Y-15460174D01*
X11755896Y-15460174D02*
X11774944Y-15469698D01*
X11774944Y-15469698D02*
X11784467Y-15479222D01*
X11784467Y-15479222D02*
X11793991Y-15498269D01*
X11793991Y-15498269D02*
X11793991Y-15545888D01*
X11793991Y-15545888D02*
X11784467Y-15564936D01*
X11784467Y-15564936D02*
X11774944Y-15574460D01*
X11774944Y-15574460D02*
X11755896Y-15583984D01*
X11755896Y-15583984D02*
X11698753Y-15583984D01*
X11698753Y-15583984D02*
X11679706Y-15574460D01*
X11679706Y-15574460D02*
X11670182Y-15564936D01*
X11889229Y-15583984D02*
X11927325Y-15583984D01*
X11927325Y-15583984D02*
X11946372Y-15574460D01*
X11946372Y-15574460D02*
X11955896Y-15564936D01*
X11955896Y-15564936D02*
X11974944Y-15536365D01*
X11974944Y-15536365D02*
X11984467Y-15498269D01*
X11984467Y-15498269D02*
X11984467Y-15422079D01*
X11984467Y-15422079D02*
X11974944Y-15403031D01*
X11974944Y-15403031D02*
X11965420Y-15393508D01*
X11965420Y-15393508D02*
X11946372Y-15383984D01*
X11946372Y-15383984D02*
X11908277Y-15383984D01*
X11908277Y-15383984D02*
X11889229Y-15393508D01*
X11889229Y-15393508D02*
X11879706Y-15403031D01*
X11879706Y-15403031D02*
X11870182Y-15422079D01*
X11870182Y-15422079D02*
X11870182Y-15469698D01*
X11870182Y-15469698D02*
X11879706Y-15488746D01*
X11879706Y-15488746D02*
X11889229Y-15498269D01*
X11889229Y-15498269D02*
X11908277Y-15507793D01*
X11908277Y-15507793D02*
X11946372Y-15507793D01*
X11946372Y-15507793D02*
X11965420Y-15498269D01*
X11965420Y-15498269D02*
X11974944Y-15488746D01*
X11974944Y-15488746D02*
X11984467Y-15469698D01*
X12155896Y-15450650D02*
X12155896Y-15583984D01*
X12108277Y-15374460D02*
X12060658Y-15517317D01*
X12060658Y-15517317D02*
X12184467Y-15517317D01*
X12251134Y-15383984D02*
X12251134Y-15422079D01*
X12327325Y-15383984D02*
X12327325Y-15422079D01*
X12622563Y-15660174D02*
X12613039Y-15650650D01*
X12613039Y-15650650D02*
X12593991Y-15622079D01*
X12593991Y-15622079D02*
X12584468Y-15603031D01*
X12584468Y-15603031D02*
X12574944Y-15574460D01*
X12574944Y-15574460D02*
X12565420Y-15526841D01*
X12565420Y-15526841D02*
X12565420Y-15488746D01*
X12565420Y-15488746D02*
X12574944Y-15441127D01*
X12574944Y-15441127D02*
X12584468Y-15412555D01*
X12584468Y-15412555D02*
X12593991Y-15393508D01*
X12593991Y-15393508D02*
X12613039Y-15364936D01*
X12613039Y-15364936D02*
X12622563Y-15355412D01*
X12679706Y-15383984D02*
X12803515Y-15383984D01*
X12803515Y-15383984D02*
X12736848Y-15460174D01*
X12736848Y-15460174D02*
X12765420Y-15460174D01*
X12765420Y-15460174D02*
X12784468Y-15469698D01*
X12784468Y-15469698D02*
X12793991Y-15479222D01*
X12793991Y-15479222D02*
X12803515Y-15498269D01*
X12803515Y-15498269D02*
X12803515Y-15545888D01*
X12803515Y-15545888D02*
X12793991Y-15564936D01*
X12793991Y-15564936D02*
X12784468Y-15574460D01*
X12784468Y-15574460D02*
X12765420Y-15583984D01*
X12765420Y-15583984D02*
X12708277Y-15583984D01*
X12708277Y-15583984D02*
X12689229Y-15574460D01*
X12689229Y-15574460D02*
X12679706Y-15564936D01*
X12879706Y-15403031D02*
X12889229Y-15393508D01*
X12889229Y-15393508D02*
X12908277Y-15383984D01*
X12908277Y-15383984D02*
X12955896Y-15383984D01*
X12955896Y-15383984D02*
X12974944Y-15393508D01*
X12974944Y-15393508D02*
X12984468Y-15403031D01*
X12984468Y-15403031D02*
X12993991Y-15422079D01*
X12993991Y-15422079D02*
X12993991Y-15441127D01*
X12993991Y-15441127D02*
X12984468Y-15469698D01*
X12984468Y-15469698D02*
X12870182Y-15583984D01*
X12870182Y-15583984D02*
X12993991Y-15583984D01*
X13232087Y-15583984D02*
X13232087Y-15383984D01*
X13317801Y-15583984D02*
X13317801Y-15479222D01*
X13317801Y-15479222D02*
X13308277Y-15460174D01*
X13308277Y-15460174D02*
X13289230Y-15450650D01*
X13289230Y-15450650D02*
X13260658Y-15450650D01*
X13260658Y-15450650D02*
X13241610Y-15460174D01*
X13241610Y-15460174D02*
X13232087Y-15469698D01*
X13441610Y-15583984D02*
X13422563Y-15574460D01*
X13422563Y-15574460D02*
X13413039Y-15564936D01*
X13413039Y-15564936D02*
X13403515Y-15545888D01*
X13403515Y-15545888D02*
X13403515Y-15488746D01*
X13403515Y-15488746D02*
X13413039Y-15469698D01*
X13413039Y-15469698D02*
X13422563Y-15460174D01*
X13422563Y-15460174D02*
X13441610Y-15450650D01*
X13441610Y-15450650D02*
X13470182Y-15450650D01*
X13470182Y-15450650D02*
X13489230Y-15460174D01*
X13489230Y-15460174D02*
X13498753Y-15469698D01*
X13498753Y-15469698D02*
X13508277Y-15488746D01*
X13508277Y-15488746D02*
X13508277Y-15545888D01*
X13508277Y-15545888D02*
X13498753Y-15564936D01*
X13498753Y-15564936D02*
X13489230Y-15574460D01*
X13489230Y-15574460D02*
X13470182Y-15583984D01*
X13470182Y-15583984D02*
X13441610Y-15583984D01*
X13622563Y-15583984D02*
X13603515Y-15574460D01*
X13603515Y-15574460D02*
X13593991Y-15555412D01*
X13593991Y-15555412D02*
X13593991Y-15383984D01*
X13774944Y-15574460D02*
X13755896Y-15583984D01*
X13755896Y-15583984D02*
X13717801Y-15583984D01*
X13717801Y-15583984D02*
X13698753Y-15574460D01*
X13698753Y-15574460D02*
X13689230Y-15555412D01*
X13689230Y-15555412D02*
X13689230Y-15479222D01*
X13689230Y-15479222D02*
X13698753Y-15460174D01*
X13698753Y-15460174D02*
X13717801Y-15450650D01*
X13717801Y-15450650D02*
X13755896Y-15450650D01*
X13755896Y-15450650D02*
X13774944Y-15460174D01*
X13774944Y-15460174D02*
X13784468Y-15479222D01*
X13784468Y-15479222D02*
X13784468Y-15498269D01*
X13784468Y-15498269D02*
X13689230Y-15517317D01*
X13860658Y-15574460D02*
X13879706Y-15583984D01*
X13879706Y-15583984D02*
X13917801Y-15583984D01*
X13917801Y-15583984D02*
X13936849Y-15574460D01*
X13936849Y-15574460D02*
X13946372Y-15555412D01*
X13946372Y-15555412D02*
X13946372Y-15545888D01*
X13946372Y-15545888D02*
X13936849Y-15526841D01*
X13936849Y-15526841D02*
X13917801Y-15517317D01*
X13917801Y-15517317D02*
X13889230Y-15517317D01*
X13889230Y-15517317D02*
X13870182Y-15507793D01*
X13870182Y-15507793D02*
X13860658Y-15488746D01*
X13860658Y-15488746D02*
X13860658Y-15479222D01*
X13860658Y-15479222D02*
X13870182Y-15460174D01*
X13870182Y-15460174D02*
X13889230Y-15450650D01*
X13889230Y-15450650D02*
X13917801Y-15450650D01*
X13917801Y-15450650D02*
X13936849Y-15460174D01*
X14013039Y-15660174D02*
X14022563Y-15650650D01*
X14022563Y-15650650D02*
X14041611Y-15622079D01*
X14041611Y-15622079D02*
X14051134Y-15603031D01*
X14051134Y-15603031D02*
X14060658Y-15574460D01*
X14060658Y-15574460D02*
X14070182Y-15526841D01*
X14070182Y-15526841D02*
X14070182Y-15488746D01*
X14070182Y-15488746D02*
X14060658Y-15441127D01*
X14060658Y-15441127D02*
X14051134Y-15412555D01*
X14051134Y-15412555D02*
X14041611Y-15393508D01*
X14041611Y-15393508D02*
X14022563Y-15364936D01*
X14022563Y-15364936D02*
X14013039Y-15355412D01*
D13*
X9047500Y-15756500D02*
G75*
G02*
X8937500Y-15756500I-55000J0D01*
G01*
X8937500Y-15756500D02*
G75*
G02*
X9047500Y-15756500I55000J0D01*
G01*
D11*
X9413039Y-15847984D02*
X9298753Y-15847984D01*
X9355896Y-15847984D02*
X9355896Y-15647984D01*
X9355896Y-15647984D02*
X9336848Y-15676555D01*
X9336848Y-15676555D02*
X9317801Y-15695603D01*
X9317801Y-15695603D02*
X9298753Y-15705127D01*
X9498753Y-15828936D02*
X9508277Y-15838460D01*
X9508277Y-15838460D02*
X9498753Y-15847984D01*
X9498753Y-15847984D02*
X9489229Y-15838460D01*
X9489229Y-15838460D02*
X9498753Y-15828936D01*
X9498753Y-15828936D02*
X9498753Y-15847984D01*
X9698753Y-15847984D02*
X9584467Y-15847984D01*
X9641610Y-15847984D02*
X9641610Y-15647984D01*
X9641610Y-15647984D02*
X9622563Y-15676555D01*
X9622563Y-15676555D02*
X9603515Y-15695603D01*
X9603515Y-15695603D02*
X9584467Y-15705127D01*
X9822563Y-15647984D02*
X9841610Y-15647984D01*
X9841610Y-15647984D02*
X9860658Y-15657508D01*
X9860658Y-15657508D02*
X9870182Y-15667031D01*
X9870182Y-15667031D02*
X9879705Y-15686079D01*
X9879705Y-15686079D02*
X9889229Y-15724174D01*
X9889229Y-15724174D02*
X9889229Y-15771793D01*
X9889229Y-15771793D02*
X9879705Y-15809888D01*
X9879705Y-15809888D02*
X9870182Y-15828936D01*
X9870182Y-15828936D02*
X9860658Y-15838460D01*
X9860658Y-15838460D02*
X9841610Y-15847984D01*
X9841610Y-15847984D02*
X9822563Y-15847984D01*
X9822563Y-15847984D02*
X9803515Y-15838460D01*
X9803515Y-15838460D02*
X9793991Y-15828936D01*
X9793991Y-15828936D02*
X9784467Y-15809888D01*
X9784467Y-15809888D02*
X9774944Y-15771793D01*
X9774944Y-15771793D02*
X9774944Y-15724174D01*
X9774944Y-15724174D02*
X9784467Y-15686079D01*
X9784467Y-15686079D02*
X9793991Y-15667031D01*
X9793991Y-15667031D02*
X9803515Y-15657508D01*
X9803515Y-15657508D02*
X9822563Y-15647984D01*
X10013039Y-15647984D02*
X10032086Y-15647984D01*
X10032086Y-15647984D02*
X10051134Y-15657508D01*
X10051134Y-15657508D02*
X10060658Y-15667031D01*
X10060658Y-15667031D02*
X10070182Y-15686079D01*
X10070182Y-15686079D02*
X10079705Y-15724174D01*
X10079705Y-15724174D02*
X10079705Y-15771793D01*
X10079705Y-15771793D02*
X10070182Y-15809888D01*
X10070182Y-15809888D02*
X10060658Y-15828936D01*
X10060658Y-15828936D02*
X10051134Y-15838460D01*
X10051134Y-15838460D02*
X10032086Y-15847984D01*
X10032086Y-15847984D02*
X10013039Y-15847984D01*
X10013039Y-15847984D02*
X9993991Y-15838460D01*
X9993991Y-15838460D02*
X9984467Y-15828936D01*
X9984467Y-15828936D02*
X9974944Y-15809888D01*
X9974944Y-15809888D02*
X9965420Y-15771793D01*
X9965420Y-15771793D02*
X9965420Y-15724174D01*
X9965420Y-15724174D02*
X9974944Y-15686079D01*
X9974944Y-15686079D02*
X9984467Y-15667031D01*
X9984467Y-15667031D02*
X9993991Y-15657508D01*
X9993991Y-15657508D02*
X10013039Y-15647984D01*
X10165420Y-15847984D02*
X10165420Y-15714650D01*
X10165420Y-15733698D02*
X10174944Y-15724174D01*
X10174944Y-15724174D02*
X10193991Y-15714650D01*
X10193991Y-15714650D02*
X10222563Y-15714650D01*
X10222563Y-15714650D02*
X10241610Y-15724174D01*
X10241610Y-15724174D02*
X10251134Y-15743222D01*
X10251134Y-15743222D02*
X10251134Y-15847984D01*
X10251134Y-15743222D02*
X10260658Y-15724174D01*
X10260658Y-15724174D02*
X10279705Y-15714650D01*
X10279705Y-15714650D02*
X10308277Y-15714650D01*
X10308277Y-15714650D02*
X10327325Y-15724174D01*
X10327325Y-15724174D02*
X10336848Y-15743222D01*
X10336848Y-15743222D02*
X10336848Y-15847984D01*
X10432086Y-15847984D02*
X10432086Y-15714650D01*
X10432086Y-15733698D02*
X10441610Y-15724174D01*
X10441610Y-15724174D02*
X10460658Y-15714650D01*
X10460658Y-15714650D02*
X10489229Y-15714650D01*
X10489229Y-15714650D02*
X10508277Y-15724174D01*
X10508277Y-15724174D02*
X10517801Y-15743222D01*
X10517801Y-15743222D02*
X10517801Y-15847984D01*
X10517801Y-15743222D02*
X10527325Y-15724174D01*
X10527325Y-15724174D02*
X10546372Y-15714650D01*
X10546372Y-15714650D02*
X10574944Y-15714650D01*
X10574944Y-15714650D02*
X10593991Y-15724174D01*
X10593991Y-15724174D02*
X10603515Y-15743222D01*
X10603515Y-15743222D02*
X10603515Y-15847984D01*
X10993991Y-15638460D02*
X10822563Y-15895603D01*
X11251134Y-15647984D02*
X11270182Y-15647984D01*
X11270182Y-15647984D02*
X11289229Y-15657508D01*
X11289229Y-15657508D02*
X11298753Y-15667031D01*
X11298753Y-15667031D02*
X11308277Y-15686079D01*
X11308277Y-15686079D02*
X11317801Y-15724174D01*
X11317801Y-15724174D02*
X11317801Y-15771793D01*
X11317801Y-15771793D02*
X11308277Y-15809888D01*
X11308277Y-15809888D02*
X11298753Y-15828936D01*
X11298753Y-15828936D02*
X11289229Y-15838460D01*
X11289229Y-15838460D02*
X11270182Y-15847984D01*
X11270182Y-15847984D02*
X11251134Y-15847984D01*
X11251134Y-15847984D02*
X11232086Y-15838460D01*
X11232086Y-15838460D02*
X11222563Y-15828936D01*
X11222563Y-15828936D02*
X11213039Y-15809888D01*
X11213039Y-15809888D02*
X11203515Y-15771793D01*
X11203515Y-15771793D02*
X11203515Y-15724174D01*
X11203515Y-15724174D02*
X11213039Y-15686079D01*
X11213039Y-15686079D02*
X11222563Y-15667031D01*
X11222563Y-15667031D02*
X11232086Y-15657508D01*
X11232086Y-15657508D02*
X11251134Y-15647984D01*
X11403515Y-15828936D02*
X11413039Y-15838460D01*
X11413039Y-15838460D02*
X11403515Y-15847984D01*
X11403515Y-15847984D02*
X11393991Y-15838460D01*
X11393991Y-15838460D02*
X11403515Y-15828936D01*
X11403515Y-15828936D02*
X11403515Y-15847984D01*
X11536848Y-15647984D02*
X11555896Y-15647984D01*
X11555896Y-15647984D02*
X11574944Y-15657508D01*
X11574944Y-15657508D02*
X11584467Y-15667031D01*
X11584467Y-15667031D02*
X11593991Y-15686079D01*
X11593991Y-15686079D02*
X11603515Y-15724174D01*
X11603515Y-15724174D02*
X11603515Y-15771793D01*
X11603515Y-15771793D02*
X11593991Y-15809888D01*
X11593991Y-15809888D02*
X11584467Y-15828936D01*
X11584467Y-15828936D02*
X11574944Y-15838460D01*
X11574944Y-15838460D02*
X11555896Y-15847984D01*
X11555896Y-15847984D02*
X11536848Y-15847984D01*
X11536848Y-15847984D02*
X11517801Y-15838460D01*
X11517801Y-15838460D02*
X11508277Y-15828936D01*
X11508277Y-15828936D02*
X11498753Y-15809888D01*
X11498753Y-15809888D02*
X11489229Y-15771793D01*
X11489229Y-15771793D02*
X11489229Y-15724174D01*
X11489229Y-15724174D02*
X11498753Y-15686079D01*
X11498753Y-15686079D02*
X11508277Y-15667031D01*
X11508277Y-15667031D02*
X11517801Y-15657508D01*
X11517801Y-15657508D02*
X11536848Y-15647984D01*
X11774944Y-15714650D02*
X11774944Y-15847984D01*
X11727325Y-15638460D02*
X11679706Y-15781317D01*
X11679706Y-15781317D02*
X11803515Y-15781317D01*
X11860658Y-15647984D02*
X11984467Y-15647984D01*
X11984467Y-15647984D02*
X11917801Y-15724174D01*
X11917801Y-15724174D02*
X11946372Y-15724174D01*
X11946372Y-15724174D02*
X11965420Y-15733698D01*
X11965420Y-15733698D02*
X11974944Y-15743222D01*
X11974944Y-15743222D02*
X11984467Y-15762269D01*
X11984467Y-15762269D02*
X11984467Y-15809888D01*
X11984467Y-15809888D02*
X11974944Y-15828936D01*
X11974944Y-15828936D02*
X11965420Y-15838460D01*
X11965420Y-15838460D02*
X11946372Y-15847984D01*
X11946372Y-15847984D02*
X11889229Y-15847984D01*
X11889229Y-15847984D02*
X11870182Y-15838460D01*
X11870182Y-15838460D02*
X11860658Y-15828936D01*
X12051134Y-15647984D02*
X12174944Y-15647984D01*
X12174944Y-15647984D02*
X12108277Y-15724174D01*
X12108277Y-15724174D02*
X12136848Y-15724174D01*
X12136848Y-15724174D02*
X12155896Y-15733698D01*
X12155896Y-15733698D02*
X12165420Y-15743222D01*
X12165420Y-15743222D02*
X12174944Y-15762269D01*
X12174944Y-15762269D02*
X12174944Y-15809888D01*
X12174944Y-15809888D02*
X12165420Y-15828936D01*
X12165420Y-15828936D02*
X12155896Y-15838460D01*
X12155896Y-15838460D02*
X12136848Y-15847984D01*
X12136848Y-15847984D02*
X12079706Y-15847984D01*
X12079706Y-15847984D02*
X12060658Y-15838460D01*
X12060658Y-15838460D02*
X12051134Y-15828936D01*
X12251134Y-15647984D02*
X12251134Y-15686079D01*
X12327325Y-15647984D02*
X12327325Y-15686079D01*
X12622563Y-15924174D02*
X12613039Y-15914650D01*
X12613039Y-15914650D02*
X12593991Y-15886079D01*
X12593991Y-15886079D02*
X12584468Y-15867031D01*
X12584468Y-15867031D02*
X12574944Y-15838460D01*
X12574944Y-15838460D02*
X12565420Y-15790841D01*
X12565420Y-15790841D02*
X12565420Y-15752746D01*
X12565420Y-15752746D02*
X12574944Y-15705127D01*
X12574944Y-15705127D02*
X12584468Y-15676555D01*
X12584468Y-15676555D02*
X12593991Y-15657508D01*
X12593991Y-15657508D02*
X12613039Y-15628936D01*
X12613039Y-15628936D02*
X12622563Y-15619412D01*
X12784468Y-15714650D02*
X12784468Y-15847984D01*
X12736848Y-15638460D02*
X12689229Y-15781317D01*
X12689229Y-15781317D02*
X12813039Y-15781317D01*
X12974944Y-15714650D02*
X12974944Y-15847984D01*
X12927325Y-15638460D02*
X12879706Y-15781317D01*
X12879706Y-15781317D02*
X13003515Y-15781317D01*
X13232087Y-15847984D02*
X13232087Y-15647984D01*
X13317801Y-15847984D02*
X13317801Y-15743222D01*
X13317801Y-15743222D02*
X13308277Y-15724174D01*
X13308277Y-15724174D02*
X13289230Y-15714650D01*
X13289230Y-15714650D02*
X13260658Y-15714650D01*
X13260658Y-15714650D02*
X13241610Y-15724174D01*
X13241610Y-15724174D02*
X13232087Y-15733698D01*
X13441610Y-15847984D02*
X13422563Y-15838460D01*
X13422563Y-15838460D02*
X13413039Y-15828936D01*
X13413039Y-15828936D02*
X13403515Y-15809888D01*
X13403515Y-15809888D02*
X13403515Y-15752746D01*
X13403515Y-15752746D02*
X13413039Y-15733698D01*
X13413039Y-15733698D02*
X13422563Y-15724174D01*
X13422563Y-15724174D02*
X13441610Y-15714650D01*
X13441610Y-15714650D02*
X13470182Y-15714650D01*
X13470182Y-15714650D02*
X13489230Y-15724174D01*
X13489230Y-15724174D02*
X13498753Y-15733698D01*
X13498753Y-15733698D02*
X13508277Y-15752746D01*
X13508277Y-15752746D02*
X13508277Y-15809888D01*
X13508277Y-15809888D02*
X13498753Y-15828936D01*
X13498753Y-15828936D02*
X13489230Y-15838460D01*
X13489230Y-15838460D02*
X13470182Y-15847984D01*
X13470182Y-15847984D02*
X13441610Y-15847984D01*
X13622563Y-15847984D02*
X13603515Y-15838460D01*
X13603515Y-15838460D02*
X13593991Y-15819412D01*
X13593991Y-15819412D02*
X13593991Y-15647984D01*
X13774944Y-15838460D02*
X13755896Y-15847984D01*
X13755896Y-15847984D02*
X13717801Y-15847984D01*
X13717801Y-15847984D02*
X13698753Y-15838460D01*
X13698753Y-15838460D02*
X13689230Y-15819412D01*
X13689230Y-15819412D02*
X13689230Y-15743222D01*
X13689230Y-15743222D02*
X13698753Y-15724174D01*
X13698753Y-15724174D02*
X13717801Y-15714650D01*
X13717801Y-15714650D02*
X13755896Y-15714650D01*
X13755896Y-15714650D02*
X13774944Y-15724174D01*
X13774944Y-15724174D02*
X13784468Y-15743222D01*
X13784468Y-15743222D02*
X13784468Y-15762269D01*
X13784468Y-15762269D02*
X13689230Y-15781317D01*
X13860658Y-15838460D02*
X13879706Y-15847984D01*
X13879706Y-15847984D02*
X13917801Y-15847984D01*
X13917801Y-15847984D02*
X13936849Y-15838460D01*
X13936849Y-15838460D02*
X13946372Y-15819412D01*
X13946372Y-15819412D02*
X13946372Y-15809888D01*
X13946372Y-15809888D02*
X13936849Y-15790841D01*
X13936849Y-15790841D02*
X13917801Y-15781317D01*
X13917801Y-15781317D02*
X13889230Y-15781317D01*
X13889230Y-15781317D02*
X13870182Y-15771793D01*
X13870182Y-15771793D02*
X13860658Y-15752746D01*
X13860658Y-15752746D02*
X13860658Y-15743222D01*
X13860658Y-15743222D02*
X13870182Y-15724174D01*
X13870182Y-15724174D02*
X13889230Y-15714650D01*
X13889230Y-15714650D02*
X13917801Y-15714650D01*
X13917801Y-15714650D02*
X13936849Y-15724174D01*
X14013039Y-15924174D02*
X14022563Y-15914650D01*
X14022563Y-15914650D02*
X14041611Y-15886079D01*
X14041611Y-15886079D02*
X14051134Y-15867031D01*
X14051134Y-15867031D02*
X14060658Y-15838460D01*
X14060658Y-15838460D02*
X14070182Y-15790841D01*
X14070182Y-15790841D02*
X14070182Y-15752746D01*
X14070182Y-15752746D02*
X14060658Y-15705127D01*
X14060658Y-15705127D02*
X14051134Y-15676555D01*
X14051134Y-15676555D02*
X14041611Y-15657508D01*
X14041611Y-15657508D02*
X14022563Y-15628936D01*
X14022563Y-15628936D02*
X14013039Y-15619412D01*
D14*
X8982500Y-15955500D02*
X8982500Y-16085500D01*
X8917500Y-16020500D02*
X9047500Y-16020500D01*
D11*
X9413039Y-16111984D02*
X9298753Y-16111984D01*
X9355896Y-16111984D02*
X9355896Y-15911984D01*
X9355896Y-15911984D02*
X9336848Y-15940555D01*
X9336848Y-15940555D02*
X9317801Y-15959603D01*
X9317801Y-15959603D02*
X9298753Y-15969127D01*
X9498753Y-16092936D02*
X9508277Y-16102460D01*
X9508277Y-16102460D02*
X9498753Y-16111984D01*
X9498753Y-16111984D02*
X9489229Y-16102460D01*
X9489229Y-16102460D02*
X9498753Y-16092936D01*
X9498753Y-16092936D02*
X9498753Y-16111984D01*
X9574944Y-15911984D02*
X9698753Y-15911984D01*
X9698753Y-15911984D02*
X9632086Y-15988174D01*
X9632086Y-15988174D02*
X9660658Y-15988174D01*
X9660658Y-15988174D02*
X9679705Y-15997698D01*
X9679705Y-15997698D02*
X9689229Y-16007222D01*
X9689229Y-16007222D02*
X9698753Y-16026269D01*
X9698753Y-16026269D02*
X9698753Y-16073888D01*
X9698753Y-16073888D02*
X9689229Y-16092936D01*
X9689229Y-16092936D02*
X9679705Y-16102460D01*
X9679705Y-16102460D02*
X9660658Y-16111984D01*
X9660658Y-16111984D02*
X9603515Y-16111984D01*
X9603515Y-16111984D02*
X9584467Y-16102460D01*
X9584467Y-16102460D02*
X9574944Y-16092936D01*
X9822563Y-15911984D02*
X9841610Y-15911984D01*
X9841610Y-15911984D02*
X9860658Y-15921508D01*
X9860658Y-15921508D02*
X9870182Y-15931031D01*
X9870182Y-15931031D02*
X9879705Y-15950079D01*
X9879705Y-15950079D02*
X9889229Y-15988174D01*
X9889229Y-15988174D02*
X9889229Y-16035793D01*
X9889229Y-16035793D02*
X9879705Y-16073888D01*
X9879705Y-16073888D02*
X9870182Y-16092936D01*
X9870182Y-16092936D02*
X9860658Y-16102460D01*
X9860658Y-16102460D02*
X9841610Y-16111984D01*
X9841610Y-16111984D02*
X9822563Y-16111984D01*
X9822563Y-16111984D02*
X9803515Y-16102460D01*
X9803515Y-16102460D02*
X9793991Y-16092936D01*
X9793991Y-16092936D02*
X9784467Y-16073888D01*
X9784467Y-16073888D02*
X9774944Y-16035793D01*
X9774944Y-16035793D02*
X9774944Y-15988174D01*
X9774944Y-15988174D02*
X9784467Y-15950079D01*
X9784467Y-15950079D02*
X9793991Y-15931031D01*
X9793991Y-15931031D02*
X9803515Y-15921508D01*
X9803515Y-15921508D02*
X9822563Y-15911984D01*
X10013039Y-15911984D02*
X10032086Y-15911984D01*
X10032086Y-15911984D02*
X10051134Y-15921508D01*
X10051134Y-15921508D02*
X10060658Y-15931031D01*
X10060658Y-15931031D02*
X10070182Y-15950079D01*
X10070182Y-15950079D02*
X10079705Y-15988174D01*
X10079705Y-15988174D02*
X10079705Y-16035793D01*
X10079705Y-16035793D02*
X10070182Y-16073888D01*
X10070182Y-16073888D02*
X10060658Y-16092936D01*
X10060658Y-16092936D02*
X10051134Y-16102460D01*
X10051134Y-16102460D02*
X10032086Y-16111984D01*
X10032086Y-16111984D02*
X10013039Y-16111984D01*
X10013039Y-16111984D02*
X9993991Y-16102460D01*
X9993991Y-16102460D02*
X9984467Y-16092936D01*
X9984467Y-16092936D02*
X9974944Y-16073888D01*
X9974944Y-16073888D02*
X9965420Y-16035793D01*
X9965420Y-16035793D02*
X9965420Y-15988174D01*
X9965420Y-15988174D02*
X9974944Y-15950079D01*
X9974944Y-15950079D02*
X9984467Y-15931031D01*
X9984467Y-15931031D02*
X9993991Y-15921508D01*
X9993991Y-15921508D02*
X10013039Y-15911984D01*
X10165420Y-16111984D02*
X10165420Y-15978650D01*
X10165420Y-15997698D02*
X10174944Y-15988174D01*
X10174944Y-15988174D02*
X10193991Y-15978650D01*
X10193991Y-15978650D02*
X10222563Y-15978650D01*
X10222563Y-15978650D02*
X10241610Y-15988174D01*
X10241610Y-15988174D02*
X10251134Y-16007222D01*
X10251134Y-16007222D02*
X10251134Y-16111984D01*
X10251134Y-16007222D02*
X10260658Y-15988174D01*
X10260658Y-15988174D02*
X10279705Y-15978650D01*
X10279705Y-15978650D02*
X10308277Y-15978650D01*
X10308277Y-15978650D02*
X10327325Y-15988174D01*
X10327325Y-15988174D02*
X10336848Y-16007222D01*
X10336848Y-16007222D02*
X10336848Y-16111984D01*
X10432086Y-16111984D02*
X10432086Y-15978650D01*
X10432086Y-15997698D02*
X10441610Y-15988174D01*
X10441610Y-15988174D02*
X10460658Y-15978650D01*
X10460658Y-15978650D02*
X10489229Y-15978650D01*
X10489229Y-15978650D02*
X10508277Y-15988174D01*
X10508277Y-15988174D02*
X10517801Y-16007222D01*
X10517801Y-16007222D02*
X10517801Y-16111984D01*
X10517801Y-16007222D02*
X10527325Y-15988174D01*
X10527325Y-15988174D02*
X10546372Y-15978650D01*
X10546372Y-15978650D02*
X10574944Y-15978650D01*
X10574944Y-15978650D02*
X10593991Y-15988174D01*
X10593991Y-15988174D02*
X10603515Y-16007222D01*
X10603515Y-16007222D02*
X10603515Y-16111984D01*
X10993991Y-15902460D02*
X10822563Y-16159603D01*
X11251134Y-15911984D02*
X11270182Y-15911984D01*
X11270182Y-15911984D02*
X11289229Y-15921508D01*
X11289229Y-15921508D02*
X11298753Y-15931031D01*
X11298753Y-15931031D02*
X11308277Y-15950079D01*
X11308277Y-15950079D02*
X11317801Y-15988174D01*
X11317801Y-15988174D02*
X11317801Y-16035793D01*
X11317801Y-16035793D02*
X11308277Y-16073888D01*
X11308277Y-16073888D02*
X11298753Y-16092936D01*
X11298753Y-16092936D02*
X11289229Y-16102460D01*
X11289229Y-16102460D02*
X11270182Y-16111984D01*
X11270182Y-16111984D02*
X11251134Y-16111984D01*
X11251134Y-16111984D02*
X11232086Y-16102460D01*
X11232086Y-16102460D02*
X11222563Y-16092936D01*
X11222563Y-16092936D02*
X11213039Y-16073888D01*
X11213039Y-16073888D02*
X11203515Y-16035793D01*
X11203515Y-16035793D02*
X11203515Y-15988174D01*
X11203515Y-15988174D02*
X11213039Y-15950079D01*
X11213039Y-15950079D02*
X11222563Y-15931031D01*
X11222563Y-15931031D02*
X11232086Y-15921508D01*
X11232086Y-15921508D02*
X11251134Y-15911984D01*
X11403515Y-16092936D02*
X11413039Y-16102460D01*
X11413039Y-16102460D02*
X11403515Y-16111984D01*
X11403515Y-16111984D02*
X11393991Y-16102460D01*
X11393991Y-16102460D02*
X11403515Y-16092936D01*
X11403515Y-16092936D02*
X11403515Y-16111984D01*
X11536848Y-15911984D02*
X11555896Y-15911984D01*
X11555896Y-15911984D02*
X11574944Y-15921508D01*
X11574944Y-15921508D02*
X11584467Y-15931031D01*
X11584467Y-15931031D02*
X11593991Y-15950079D01*
X11593991Y-15950079D02*
X11603515Y-15988174D01*
X11603515Y-15988174D02*
X11603515Y-16035793D01*
X11603515Y-16035793D02*
X11593991Y-16073888D01*
X11593991Y-16073888D02*
X11584467Y-16092936D01*
X11584467Y-16092936D02*
X11574944Y-16102460D01*
X11574944Y-16102460D02*
X11555896Y-16111984D01*
X11555896Y-16111984D02*
X11536848Y-16111984D01*
X11536848Y-16111984D02*
X11517801Y-16102460D01*
X11517801Y-16102460D02*
X11508277Y-16092936D01*
X11508277Y-16092936D02*
X11498753Y-16073888D01*
X11498753Y-16073888D02*
X11489229Y-16035793D01*
X11489229Y-16035793D02*
X11489229Y-15988174D01*
X11489229Y-15988174D02*
X11498753Y-15950079D01*
X11498753Y-15950079D02*
X11508277Y-15931031D01*
X11508277Y-15931031D02*
X11517801Y-15921508D01*
X11517801Y-15921508D02*
X11536848Y-15911984D01*
X11784467Y-15911984D02*
X11689229Y-15911984D01*
X11689229Y-15911984D02*
X11679706Y-16007222D01*
X11679706Y-16007222D02*
X11689229Y-15997698D01*
X11689229Y-15997698D02*
X11708277Y-15988174D01*
X11708277Y-15988174D02*
X11755896Y-15988174D01*
X11755896Y-15988174D02*
X11774944Y-15997698D01*
X11774944Y-15997698D02*
X11784467Y-16007222D01*
X11784467Y-16007222D02*
X11793991Y-16026269D01*
X11793991Y-16026269D02*
X11793991Y-16073888D01*
X11793991Y-16073888D02*
X11784467Y-16092936D01*
X11784467Y-16092936D02*
X11774944Y-16102460D01*
X11774944Y-16102460D02*
X11755896Y-16111984D01*
X11755896Y-16111984D02*
X11708277Y-16111984D01*
X11708277Y-16111984D02*
X11689229Y-16102460D01*
X11689229Y-16102460D02*
X11679706Y-16092936D01*
X11984467Y-16111984D02*
X11870182Y-16111984D01*
X11927325Y-16111984D02*
X11927325Y-15911984D01*
X11927325Y-15911984D02*
X11908277Y-15940555D01*
X11908277Y-15940555D02*
X11889229Y-15959603D01*
X11889229Y-15959603D02*
X11870182Y-15969127D01*
X12060658Y-15931031D02*
X12070182Y-15921508D01*
X12070182Y-15921508D02*
X12089229Y-15911984D01*
X12089229Y-15911984D02*
X12136848Y-15911984D01*
X12136848Y-15911984D02*
X12155896Y-15921508D01*
X12155896Y-15921508D02*
X12165420Y-15931031D01*
X12165420Y-15931031D02*
X12174944Y-15950079D01*
X12174944Y-15950079D02*
X12174944Y-15969127D01*
X12174944Y-15969127D02*
X12165420Y-15997698D01*
X12165420Y-15997698D02*
X12051134Y-16111984D01*
X12051134Y-16111984D02*
X12174944Y-16111984D01*
X12251134Y-15911984D02*
X12251134Y-15950079D01*
X12327325Y-15911984D02*
X12327325Y-15950079D01*
X12622563Y-16188174D02*
X12613039Y-16178650D01*
X12613039Y-16178650D02*
X12593991Y-16150079D01*
X12593991Y-16150079D02*
X12584468Y-16131031D01*
X12584468Y-16131031D02*
X12574944Y-16102460D01*
X12574944Y-16102460D02*
X12565420Y-16054841D01*
X12565420Y-16054841D02*
X12565420Y-16016746D01*
X12565420Y-16016746D02*
X12574944Y-15969127D01*
X12574944Y-15969127D02*
X12584468Y-15940555D01*
X12584468Y-15940555D02*
X12593991Y-15921508D01*
X12593991Y-15921508D02*
X12613039Y-15892936D01*
X12613039Y-15892936D02*
X12622563Y-15883412D01*
X12784468Y-15911984D02*
X12746372Y-15911984D01*
X12746372Y-15911984D02*
X12727325Y-15921508D01*
X12727325Y-15921508D02*
X12717801Y-15931031D01*
X12717801Y-15931031D02*
X12698753Y-15959603D01*
X12698753Y-15959603D02*
X12689229Y-15997698D01*
X12689229Y-15997698D02*
X12689229Y-16073888D01*
X12689229Y-16073888D02*
X12698753Y-16092936D01*
X12698753Y-16092936D02*
X12708277Y-16102460D01*
X12708277Y-16102460D02*
X12727325Y-16111984D01*
X12727325Y-16111984D02*
X12765420Y-16111984D01*
X12765420Y-16111984D02*
X12784468Y-16102460D01*
X12784468Y-16102460D02*
X12793991Y-16092936D01*
X12793991Y-16092936D02*
X12803515Y-16073888D01*
X12803515Y-16073888D02*
X12803515Y-16026269D01*
X12803515Y-16026269D02*
X12793991Y-16007222D01*
X12793991Y-16007222D02*
X12784468Y-15997698D01*
X12784468Y-15997698D02*
X12765420Y-15988174D01*
X12765420Y-15988174D02*
X12727325Y-15988174D01*
X12727325Y-15988174D02*
X12708277Y-15997698D01*
X12708277Y-15997698D02*
X12698753Y-16007222D01*
X12698753Y-16007222D02*
X12689229Y-16026269D01*
X13041610Y-16111984D02*
X13041610Y-15911984D01*
X13127325Y-16111984D02*
X13127325Y-16007222D01*
X13127325Y-16007222D02*
X13117801Y-15988174D01*
X13117801Y-15988174D02*
X13098753Y-15978650D01*
X13098753Y-15978650D02*
X13070182Y-15978650D01*
X13070182Y-15978650D02*
X13051134Y-15988174D01*
X13051134Y-15988174D02*
X13041610Y-15997698D01*
X13251134Y-16111984D02*
X13232087Y-16102460D01*
X13232087Y-16102460D02*
X13222563Y-16092936D01*
X13222563Y-16092936D02*
X13213039Y-16073888D01*
X13213039Y-16073888D02*
X13213039Y-16016746D01*
X13213039Y-16016746D02*
X13222563Y-15997698D01*
X13222563Y-15997698D02*
X13232087Y-15988174D01*
X13232087Y-15988174D02*
X13251134Y-15978650D01*
X13251134Y-15978650D02*
X13279706Y-15978650D01*
X13279706Y-15978650D02*
X13298753Y-15988174D01*
X13298753Y-15988174D02*
X13308277Y-15997698D01*
X13308277Y-15997698D02*
X13317801Y-16016746D01*
X13317801Y-16016746D02*
X13317801Y-16073888D01*
X13317801Y-16073888D02*
X13308277Y-16092936D01*
X13308277Y-16092936D02*
X13298753Y-16102460D01*
X13298753Y-16102460D02*
X13279706Y-16111984D01*
X13279706Y-16111984D02*
X13251134Y-16111984D01*
X13432087Y-16111984D02*
X13413039Y-16102460D01*
X13413039Y-16102460D02*
X13403515Y-16083412D01*
X13403515Y-16083412D02*
X13403515Y-15911984D01*
X13584468Y-16102460D02*
X13565420Y-16111984D01*
X13565420Y-16111984D02*
X13527325Y-16111984D01*
X13527325Y-16111984D02*
X13508277Y-16102460D01*
X13508277Y-16102460D02*
X13498753Y-16083412D01*
X13498753Y-16083412D02*
X13498753Y-16007222D01*
X13498753Y-16007222D02*
X13508277Y-15988174D01*
X13508277Y-15988174D02*
X13527325Y-15978650D01*
X13527325Y-15978650D02*
X13565420Y-15978650D01*
X13565420Y-15978650D02*
X13584468Y-15988174D01*
X13584468Y-15988174D02*
X13593991Y-16007222D01*
X13593991Y-16007222D02*
X13593991Y-16026269D01*
X13593991Y-16026269D02*
X13498753Y-16045317D01*
X13670182Y-16102460D02*
X13689230Y-16111984D01*
X13689230Y-16111984D02*
X13727325Y-16111984D01*
X13727325Y-16111984D02*
X13746372Y-16102460D01*
X13746372Y-16102460D02*
X13755896Y-16083412D01*
X13755896Y-16083412D02*
X13755896Y-16073888D01*
X13755896Y-16073888D02*
X13746372Y-16054841D01*
X13746372Y-16054841D02*
X13727325Y-16045317D01*
X13727325Y-16045317D02*
X13698753Y-16045317D01*
X13698753Y-16045317D02*
X13679706Y-16035793D01*
X13679706Y-16035793D02*
X13670182Y-16016746D01*
X13670182Y-16016746D02*
X13670182Y-16007222D01*
X13670182Y-16007222D02*
X13679706Y-15988174D01*
X13679706Y-15988174D02*
X13698753Y-15978650D01*
X13698753Y-15978650D02*
X13727325Y-15978650D01*
X13727325Y-15978650D02*
X13746372Y-15988174D01*
X13822563Y-16188174D02*
X13832087Y-16178650D01*
X13832087Y-16178650D02*
X13851134Y-16150079D01*
X13851134Y-16150079D02*
X13860658Y-16131031D01*
X13860658Y-16131031D02*
X13870182Y-16102460D01*
X13870182Y-16102460D02*
X13879706Y-16054841D01*
X13879706Y-16054841D02*
X13879706Y-16016746D01*
X13879706Y-16016746D02*
X13870182Y-15969127D01*
X13870182Y-15969127D02*
X13860658Y-15940555D01*
X13860658Y-15940555D02*
X13851134Y-15921508D01*
X13851134Y-15921508D02*
X13832087Y-15892936D01*
X13832087Y-15892936D02*
X13822563Y-15883412D01*
X9018211Y-16355211D02*
X9018211Y-16213789D01*
X8876789Y-16213789D01*
X8876789Y-16355211D01*
X9018211Y-16355211D01*
X9289229Y-16175984D02*
X9413039Y-16175984D01*
X9413039Y-16175984D02*
X9346372Y-16252174D01*
X9346372Y-16252174D02*
X9374944Y-16252174D01*
X9374944Y-16252174D02*
X9393991Y-16261698D01*
X9393991Y-16261698D02*
X9403515Y-16271222D01*
X9403515Y-16271222D02*
X9413039Y-16290269D01*
X9413039Y-16290269D02*
X9413039Y-16337888D01*
X9413039Y-16337888D02*
X9403515Y-16356936D01*
X9403515Y-16356936D02*
X9393991Y-16366460D01*
X9393991Y-16366460D02*
X9374944Y-16375984D01*
X9374944Y-16375984D02*
X9317801Y-16375984D01*
X9317801Y-16375984D02*
X9298753Y-16366460D01*
X9298753Y-16366460D02*
X9289229Y-16356936D01*
X9498753Y-16356936D02*
X9508277Y-16366460D01*
X9508277Y-16366460D02*
X9498753Y-16375984D01*
X9498753Y-16375984D02*
X9489229Y-16366460D01*
X9489229Y-16366460D02*
X9498753Y-16356936D01*
X9498753Y-16356936D02*
X9498753Y-16375984D01*
X9584467Y-16195031D02*
X9593991Y-16185508D01*
X9593991Y-16185508D02*
X9613039Y-16175984D01*
X9613039Y-16175984D02*
X9660658Y-16175984D01*
X9660658Y-16175984D02*
X9679705Y-16185508D01*
X9679705Y-16185508D02*
X9689229Y-16195031D01*
X9689229Y-16195031D02*
X9698753Y-16214079D01*
X9698753Y-16214079D02*
X9698753Y-16233127D01*
X9698753Y-16233127D02*
X9689229Y-16261698D01*
X9689229Y-16261698D02*
X9574944Y-16375984D01*
X9574944Y-16375984D02*
X9698753Y-16375984D01*
X9822563Y-16175984D02*
X9841610Y-16175984D01*
X9841610Y-16175984D02*
X9860658Y-16185508D01*
X9860658Y-16185508D02*
X9870182Y-16195031D01*
X9870182Y-16195031D02*
X9879705Y-16214079D01*
X9879705Y-16214079D02*
X9889229Y-16252174D01*
X9889229Y-16252174D02*
X9889229Y-16299793D01*
X9889229Y-16299793D02*
X9879705Y-16337888D01*
X9879705Y-16337888D02*
X9870182Y-16356936D01*
X9870182Y-16356936D02*
X9860658Y-16366460D01*
X9860658Y-16366460D02*
X9841610Y-16375984D01*
X9841610Y-16375984D02*
X9822563Y-16375984D01*
X9822563Y-16375984D02*
X9803515Y-16366460D01*
X9803515Y-16366460D02*
X9793991Y-16356936D01*
X9793991Y-16356936D02*
X9784467Y-16337888D01*
X9784467Y-16337888D02*
X9774944Y-16299793D01*
X9774944Y-16299793D02*
X9774944Y-16252174D01*
X9774944Y-16252174D02*
X9784467Y-16214079D01*
X9784467Y-16214079D02*
X9793991Y-16195031D01*
X9793991Y-16195031D02*
X9803515Y-16185508D01*
X9803515Y-16185508D02*
X9822563Y-16175984D01*
X10013039Y-16175984D02*
X10032086Y-16175984D01*
X10032086Y-16175984D02*
X10051134Y-16185508D01*
X10051134Y-16185508D02*
X10060658Y-16195031D01*
X10060658Y-16195031D02*
X10070182Y-16214079D01*
X10070182Y-16214079D02*
X10079705Y-16252174D01*
X10079705Y-16252174D02*
X10079705Y-16299793D01*
X10079705Y-16299793D02*
X10070182Y-16337888D01*
X10070182Y-16337888D02*
X10060658Y-16356936D01*
X10060658Y-16356936D02*
X10051134Y-16366460D01*
X10051134Y-16366460D02*
X10032086Y-16375984D01*
X10032086Y-16375984D02*
X10013039Y-16375984D01*
X10013039Y-16375984D02*
X9993991Y-16366460D01*
X9993991Y-16366460D02*
X9984467Y-16356936D01*
X9984467Y-16356936D02*
X9974944Y-16337888D01*
X9974944Y-16337888D02*
X9965420Y-16299793D01*
X9965420Y-16299793D02*
X9965420Y-16252174D01*
X9965420Y-16252174D02*
X9974944Y-16214079D01*
X9974944Y-16214079D02*
X9984467Y-16195031D01*
X9984467Y-16195031D02*
X9993991Y-16185508D01*
X9993991Y-16185508D02*
X10013039Y-16175984D01*
X10165420Y-16375984D02*
X10165420Y-16242650D01*
X10165420Y-16261698D02*
X10174944Y-16252174D01*
X10174944Y-16252174D02*
X10193991Y-16242650D01*
X10193991Y-16242650D02*
X10222563Y-16242650D01*
X10222563Y-16242650D02*
X10241610Y-16252174D01*
X10241610Y-16252174D02*
X10251134Y-16271222D01*
X10251134Y-16271222D02*
X10251134Y-16375984D01*
X10251134Y-16271222D02*
X10260658Y-16252174D01*
X10260658Y-16252174D02*
X10279705Y-16242650D01*
X10279705Y-16242650D02*
X10308277Y-16242650D01*
X10308277Y-16242650D02*
X10327325Y-16252174D01*
X10327325Y-16252174D02*
X10336848Y-16271222D01*
X10336848Y-16271222D02*
X10336848Y-16375984D01*
X10432086Y-16375984D02*
X10432086Y-16242650D01*
X10432086Y-16261698D02*
X10441610Y-16252174D01*
X10441610Y-16252174D02*
X10460658Y-16242650D01*
X10460658Y-16242650D02*
X10489229Y-16242650D01*
X10489229Y-16242650D02*
X10508277Y-16252174D01*
X10508277Y-16252174D02*
X10517801Y-16271222D01*
X10517801Y-16271222D02*
X10517801Y-16375984D01*
X10517801Y-16271222D02*
X10527325Y-16252174D01*
X10527325Y-16252174D02*
X10546372Y-16242650D01*
X10546372Y-16242650D02*
X10574944Y-16242650D01*
X10574944Y-16242650D02*
X10593991Y-16252174D01*
X10593991Y-16252174D02*
X10603515Y-16271222D01*
X10603515Y-16271222D02*
X10603515Y-16375984D01*
X10993991Y-16166460D02*
X10822563Y-16423603D01*
X11251134Y-16175984D02*
X11270182Y-16175984D01*
X11270182Y-16175984D02*
X11289229Y-16185508D01*
X11289229Y-16185508D02*
X11298753Y-16195031D01*
X11298753Y-16195031D02*
X11308277Y-16214079D01*
X11308277Y-16214079D02*
X11317801Y-16252174D01*
X11317801Y-16252174D02*
X11317801Y-16299793D01*
X11317801Y-16299793D02*
X11308277Y-16337888D01*
X11308277Y-16337888D02*
X11298753Y-16356936D01*
X11298753Y-16356936D02*
X11289229Y-16366460D01*
X11289229Y-16366460D02*
X11270182Y-16375984D01*
X11270182Y-16375984D02*
X11251134Y-16375984D01*
X11251134Y-16375984D02*
X11232086Y-16366460D01*
X11232086Y-16366460D02*
X11222563Y-16356936D01*
X11222563Y-16356936D02*
X11213039Y-16337888D01*
X11213039Y-16337888D02*
X11203515Y-16299793D01*
X11203515Y-16299793D02*
X11203515Y-16252174D01*
X11203515Y-16252174D02*
X11213039Y-16214079D01*
X11213039Y-16214079D02*
X11222563Y-16195031D01*
X11222563Y-16195031D02*
X11232086Y-16185508D01*
X11232086Y-16185508D02*
X11251134Y-16175984D01*
X11403515Y-16356936D02*
X11413039Y-16366460D01*
X11413039Y-16366460D02*
X11403515Y-16375984D01*
X11403515Y-16375984D02*
X11393991Y-16366460D01*
X11393991Y-16366460D02*
X11403515Y-16356936D01*
X11403515Y-16356936D02*
X11403515Y-16375984D01*
X11603515Y-16375984D02*
X11489229Y-16375984D01*
X11546372Y-16375984D02*
X11546372Y-16175984D01*
X11546372Y-16175984D02*
X11527325Y-16204555D01*
X11527325Y-16204555D02*
X11508277Y-16223603D01*
X11508277Y-16223603D02*
X11489229Y-16233127D01*
X11679706Y-16195031D02*
X11689229Y-16185508D01*
X11689229Y-16185508D02*
X11708277Y-16175984D01*
X11708277Y-16175984D02*
X11755896Y-16175984D01*
X11755896Y-16175984D02*
X11774944Y-16185508D01*
X11774944Y-16185508D02*
X11784467Y-16195031D01*
X11784467Y-16195031D02*
X11793991Y-16214079D01*
X11793991Y-16214079D02*
X11793991Y-16233127D01*
X11793991Y-16233127D02*
X11784467Y-16261698D01*
X11784467Y-16261698D02*
X11670182Y-16375984D01*
X11670182Y-16375984D02*
X11793991Y-16375984D01*
X11965420Y-16175984D02*
X11927325Y-16175984D01*
X11927325Y-16175984D02*
X11908277Y-16185508D01*
X11908277Y-16185508D02*
X11898753Y-16195031D01*
X11898753Y-16195031D02*
X11879706Y-16223603D01*
X11879706Y-16223603D02*
X11870182Y-16261698D01*
X11870182Y-16261698D02*
X11870182Y-16337888D01*
X11870182Y-16337888D02*
X11879706Y-16356936D01*
X11879706Y-16356936D02*
X11889229Y-16366460D01*
X11889229Y-16366460D02*
X11908277Y-16375984D01*
X11908277Y-16375984D02*
X11946372Y-16375984D01*
X11946372Y-16375984D02*
X11965420Y-16366460D01*
X11965420Y-16366460D02*
X11974944Y-16356936D01*
X11974944Y-16356936D02*
X11984467Y-16337888D01*
X11984467Y-16337888D02*
X11984467Y-16290269D01*
X11984467Y-16290269D02*
X11974944Y-16271222D01*
X11974944Y-16271222D02*
X11965420Y-16261698D01*
X11965420Y-16261698D02*
X11946372Y-16252174D01*
X11946372Y-16252174D02*
X11908277Y-16252174D01*
X11908277Y-16252174D02*
X11889229Y-16261698D01*
X11889229Y-16261698D02*
X11879706Y-16271222D01*
X11879706Y-16271222D02*
X11870182Y-16290269D01*
X12108277Y-16175984D02*
X12127325Y-16175984D01*
X12127325Y-16175984D02*
X12146372Y-16185508D01*
X12146372Y-16185508D02*
X12155896Y-16195031D01*
X12155896Y-16195031D02*
X12165420Y-16214079D01*
X12165420Y-16214079D02*
X12174944Y-16252174D01*
X12174944Y-16252174D02*
X12174944Y-16299793D01*
X12174944Y-16299793D02*
X12165420Y-16337888D01*
X12165420Y-16337888D02*
X12155896Y-16356936D01*
X12155896Y-16356936D02*
X12146372Y-16366460D01*
X12146372Y-16366460D02*
X12127325Y-16375984D01*
X12127325Y-16375984D02*
X12108277Y-16375984D01*
X12108277Y-16375984D02*
X12089229Y-16366460D01*
X12089229Y-16366460D02*
X12079706Y-16356936D01*
X12079706Y-16356936D02*
X12070182Y-16337888D01*
X12070182Y-16337888D02*
X12060658Y-16299793D01*
X12060658Y-16299793D02*
X12060658Y-16252174D01*
X12060658Y-16252174D02*
X12070182Y-16214079D01*
X12070182Y-16214079D02*
X12079706Y-16195031D01*
X12079706Y-16195031D02*
X12089229Y-16185508D01*
X12089229Y-16185508D02*
X12108277Y-16175984D01*
X12251134Y-16175984D02*
X12251134Y-16214079D01*
X12327325Y-16175984D02*
X12327325Y-16214079D01*
X12622563Y-16452174D02*
X12613039Y-16442650D01*
X12613039Y-16442650D02*
X12593991Y-16414079D01*
X12593991Y-16414079D02*
X12584468Y-16395031D01*
X12584468Y-16395031D02*
X12574944Y-16366460D01*
X12574944Y-16366460D02*
X12565420Y-16318841D01*
X12565420Y-16318841D02*
X12565420Y-16280746D01*
X12565420Y-16280746D02*
X12574944Y-16233127D01*
X12574944Y-16233127D02*
X12584468Y-16204555D01*
X12584468Y-16204555D02*
X12593991Y-16185508D01*
X12593991Y-16185508D02*
X12613039Y-16156936D01*
X12613039Y-16156936D02*
X12622563Y-16147412D01*
X12784468Y-16242650D02*
X12784468Y-16375984D01*
X12736848Y-16166460D02*
X12689229Y-16309317D01*
X12689229Y-16309317D02*
X12813039Y-16309317D01*
X13041610Y-16375984D02*
X13041610Y-16175984D01*
X13127325Y-16375984D02*
X13127325Y-16271222D01*
X13127325Y-16271222D02*
X13117801Y-16252174D01*
X13117801Y-16252174D02*
X13098753Y-16242650D01*
X13098753Y-16242650D02*
X13070182Y-16242650D01*
X13070182Y-16242650D02*
X13051134Y-16252174D01*
X13051134Y-16252174D02*
X13041610Y-16261698D01*
X13251134Y-16375984D02*
X13232087Y-16366460D01*
X13232087Y-16366460D02*
X13222563Y-16356936D01*
X13222563Y-16356936D02*
X13213039Y-16337888D01*
X13213039Y-16337888D02*
X13213039Y-16280746D01*
X13213039Y-16280746D02*
X13222563Y-16261698D01*
X13222563Y-16261698D02*
X13232087Y-16252174D01*
X13232087Y-16252174D02*
X13251134Y-16242650D01*
X13251134Y-16242650D02*
X13279706Y-16242650D01*
X13279706Y-16242650D02*
X13298753Y-16252174D01*
X13298753Y-16252174D02*
X13308277Y-16261698D01*
X13308277Y-16261698D02*
X13317801Y-16280746D01*
X13317801Y-16280746D02*
X13317801Y-16337888D01*
X13317801Y-16337888D02*
X13308277Y-16356936D01*
X13308277Y-16356936D02*
X13298753Y-16366460D01*
X13298753Y-16366460D02*
X13279706Y-16375984D01*
X13279706Y-16375984D02*
X13251134Y-16375984D01*
X13432087Y-16375984D02*
X13413039Y-16366460D01*
X13413039Y-16366460D02*
X13403515Y-16347412D01*
X13403515Y-16347412D02*
X13403515Y-16175984D01*
X13584468Y-16366460D02*
X13565420Y-16375984D01*
X13565420Y-16375984D02*
X13527325Y-16375984D01*
X13527325Y-16375984D02*
X13508277Y-16366460D01*
X13508277Y-16366460D02*
X13498753Y-16347412D01*
X13498753Y-16347412D02*
X13498753Y-16271222D01*
X13498753Y-16271222D02*
X13508277Y-16252174D01*
X13508277Y-16252174D02*
X13527325Y-16242650D01*
X13527325Y-16242650D02*
X13565420Y-16242650D01*
X13565420Y-16242650D02*
X13584468Y-16252174D01*
X13584468Y-16252174D02*
X13593991Y-16271222D01*
X13593991Y-16271222D02*
X13593991Y-16290269D01*
X13593991Y-16290269D02*
X13498753Y-16309317D01*
X13670182Y-16366460D02*
X13689230Y-16375984D01*
X13689230Y-16375984D02*
X13727325Y-16375984D01*
X13727325Y-16375984D02*
X13746372Y-16366460D01*
X13746372Y-16366460D02*
X13755896Y-16347412D01*
X13755896Y-16347412D02*
X13755896Y-16337888D01*
X13755896Y-16337888D02*
X13746372Y-16318841D01*
X13746372Y-16318841D02*
X13727325Y-16309317D01*
X13727325Y-16309317D02*
X13698753Y-16309317D01*
X13698753Y-16309317D02*
X13679706Y-16299793D01*
X13679706Y-16299793D02*
X13670182Y-16280746D01*
X13670182Y-16280746D02*
X13670182Y-16271222D01*
X13670182Y-16271222D02*
X13679706Y-16252174D01*
X13679706Y-16252174D02*
X13698753Y-16242650D01*
X13698753Y-16242650D02*
X13727325Y-16242650D01*
X13727325Y-16242650D02*
X13746372Y-16252174D01*
X13822563Y-16452174D02*
X13832087Y-16442650D01*
X13832087Y-16442650D02*
X13851134Y-16414079D01*
X13851134Y-16414079D02*
X13860658Y-16395031D01*
X13860658Y-16395031D02*
X13870182Y-16366460D01*
X13870182Y-16366460D02*
X13879706Y-16318841D01*
X13879706Y-16318841D02*
X13879706Y-16280746D01*
X13879706Y-16280746D02*
X13870182Y-16233127D01*
X13870182Y-16233127D02*
X13860658Y-16204555D01*
X13860658Y-16204555D02*
X13851134Y-16185508D01*
X13851134Y-16185508D02*
X13832087Y-16156936D01*
X13832087Y-16156936D02*
X13822563Y-16147412D01*
X14184468Y-16452174D02*
X14174944Y-16442650D01*
X14174944Y-16442650D02*
X14155896Y-16414079D01*
X14155896Y-16414079D02*
X14146372Y-16395031D01*
X14146372Y-16395031D02*
X14136849Y-16366460D01*
X14136849Y-16366460D02*
X14127325Y-16318841D01*
X14127325Y-16318841D02*
X14127325Y-16280746D01*
X14127325Y-16280746D02*
X14136849Y-16233127D01*
X14136849Y-16233127D02*
X14146372Y-16204555D01*
X14146372Y-16204555D02*
X14155896Y-16185508D01*
X14155896Y-16185508D02*
X14174944Y-16156936D01*
X14174944Y-16156936D02*
X14184468Y-16147412D01*
X14260658Y-16242650D02*
X14260658Y-16375984D01*
X14260658Y-16261698D02*
X14270182Y-16252174D01*
X14270182Y-16252174D02*
X14289230Y-16242650D01*
X14289230Y-16242650D02*
X14317801Y-16242650D01*
X14317801Y-16242650D02*
X14336849Y-16252174D01*
X14336849Y-16252174D02*
X14346372Y-16271222D01*
X14346372Y-16271222D02*
X14346372Y-16375984D01*
X14470182Y-16375984D02*
X14451134Y-16366460D01*
X14451134Y-16366460D02*
X14441611Y-16356936D01*
X14441611Y-16356936D02*
X14432087Y-16337888D01*
X14432087Y-16337888D02*
X14432087Y-16280746D01*
X14432087Y-16280746D02*
X14441611Y-16261698D01*
X14441611Y-16261698D02*
X14451134Y-16252174D01*
X14451134Y-16252174D02*
X14470182Y-16242650D01*
X14470182Y-16242650D02*
X14498753Y-16242650D01*
X14498753Y-16242650D02*
X14517801Y-16252174D01*
X14517801Y-16252174D02*
X14527325Y-16261698D01*
X14527325Y-16261698D02*
X14536849Y-16280746D01*
X14536849Y-16280746D02*
X14536849Y-16337888D01*
X14536849Y-16337888D02*
X14527325Y-16356936D01*
X14527325Y-16356936D02*
X14517801Y-16366460D01*
X14517801Y-16366460D02*
X14498753Y-16375984D01*
X14498753Y-16375984D02*
X14470182Y-16375984D01*
X14593992Y-16242650D02*
X14670182Y-16242650D01*
X14622563Y-16175984D02*
X14622563Y-16347412D01*
X14622563Y-16347412D02*
X14632087Y-16366460D01*
X14632087Y-16366460D02*
X14651134Y-16375984D01*
X14651134Y-16375984D02*
X14670182Y-16375984D01*
X14889230Y-16242650D02*
X14889230Y-16442650D01*
X14889230Y-16252174D02*
X14908277Y-16242650D01*
X14908277Y-16242650D02*
X14946373Y-16242650D01*
X14946373Y-16242650D02*
X14965420Y-16252174D01*
X14965420Y-16252174D02*
X14974944Y-16261698D01*
X14974944Y-16261698D02*
X14984468Y-16280746D01*
X14984468Y-16280746D02*
X14984468Y-16337888D01*
X14984468Y-16337888D02*
X14974944Y-16356936D01*
X14974944Y-16356936D02*
X14965420Y-16366460D01*
X14965420Y-16366460D02*
X14946373Y-16375984D01*
X14946373Y-16375984D02*
X14908277Y-16375984D01*
X14908277Y-16375984D02*
X14889230Y-16366460D01*
X15098753Y-16375984D02*
X15079706Y-16366460D01*
X15079706Y-16366460D02*
X15070182Y-16347412D01*
X15070182Y-16347412D02*
X15070182Y-16175984D01*
X15260658Y-16375984D02*
X15260658Y-16271222D01*
X15260658Y-16271222D02*
X15251134Y-16252174D01*
X15251134Y-16252174D02*
X15232087Y-16242650D01*
X15232087Y-16242650D02*
X15193992Y-16242650D01*
X15193992Y-16242650D02*
X15174944Y-16252174D01*
X15260658Y-16366460D02*
X15241611Y-16375984D01*
X15241611Y-16375984D02*
X15193992Y-16375984D01*
X15193992Y-16375984D02*
X15174944Y-16366460D01*
X15174944Y-16366460D02*
X15165420Y-16347412D01*
X15165420Y-16347412D02*
X15165420Y-16328365D01*
X15165420Y-16328365D02*
X15174944Y-16309317D01*
X15174944Y-16309317D02*
X15193992Y-16299793D01*
X15193992Y-16299793D02*
X15241611Y-16299793D01*
X15241611Y-16299793D02*
X15260658Y-16290269D01*
X15327325Y-16242650D02*
X15403515Y-16242650D01*
X15355896Y-16175984D02*
X15355896Y-16347412D01*
X15355896Y-16347412D02*
X15365420Y-16366460D01*
X15365420Y-16366460D02*
X15384468Y-16375984D01*
X15384468Y-16375984D02*
X15403515Y-16375984D01*
X15546373Y-16366460D02*
X15527325Y-16375984D01*
X15527325Y-16375984D02*
X15489230Y-16375984D01*
X15489230Y-16375984D02*
X15470182Y-16366460D01*
X15470182Y-16366460D02*
X15460658Y-16347412D01*
X15460658Y-16347412D02*
X15460658Y-16271222D01*
X15460658Y-16271222D02*
X15470182Y-16252174D01*
X15470182Y-16252174D02*
X15489230Y-16242650D01*
X15489230Y-16242650D02*
X15527325Y-16242650D01*
X15527325Y-16242650D02*
X15546373Y-16252174D01*
X15546373Y-16252174D02*
X15555896Y-16271222D01*
X15555896Y-16271222D02*
X15555896Y-16290269D01*
X15555896Y-16290269D02*
X15460658Y-16309317D01*
X15727325Y-16375984D02*
X15727325Y-16175984D01*
X15727325Y-16366460D02*
X15708277Y-16375984D01*
X15708277Y-16375984D02*
X15670182Y-16375984D01*
X15670182Y-16375984D02*
X15651134Y-16366460D01*
X15651134Y-16366460D02*
X15641611Y-16356936D01*
X15641611Y-16356936D02*
X15632087Y-16337888D01*
X15632087Y-16337888D02*
X15632087Y-16280746D01*
X15632087Y-16280746D02*
X15641611Y-16261698D01*
X15641611Y-16261698D02*
X15651134Y-16252174D01*
X15651134Y-16252174D02*
X15670182Y-16242650D01*
X15670182Y-16242650D02*
X15708277Y-16242650D01*
X15708277Y-16242650D02*
X15727325Y-16252174D01*
X15803515Y-16452174D02*
X15813039Y-16442650D01*
X15813039Y-16442650D02*
X15832087Y-16414079D01*
X15832087Y-16414079D02*
X15841611Y-16395031D01*
X15841611Y-16395031D02*
X15851134Y-16366460D01*
X15851134Y-16366460D02*
X15860658Y-16318841D01*
X15860658Y-16318841D02*
X15860658Y-16280746D01*
X15860658Y-16280746D02*
X15851134Y-16233127D01*
X15851134Y-16233127D02*
X15841611Y-16204555D01*
X15841611Y-16204555D02*
X15832087Y-16185508D01*
X15832087Y-16185508D02*
X15813039Y-16156936D01*
X15813039Y-16156936D02*
X15803515Y-16147412D01*
M02*
