M48
; DRILL file KiCad 10.0.4 date 2026-09-20T20:16:06
; FORMAT={-:-/ absolute / metric / decimal}
; #@! TF.CreationDate,2026-09-20T20:16:06-05:00
; #@! TF.GenerationSoftware,Kicad,Pcbnew,10.0.4
; #@! TF.FileFunction,MixedPlating,1,2
FMAT,2
METRIC
; #@! TA.AperFunction,Plated,PTH,ComponentDrill
T1C1.000
; #@! TA.AperFunction,Plated,PTH,ComponentDrill
T2C1.100
; #@! TA.AperFunction,Plated,PTH,ComponentDrill
T3C1.300
; #@! TA.AperFunction,NonPlated,NPTH,ComponentDrill
T4C3.200
%
G90
G05
T1
X98.0Y-92.5
X98.0Y-105.5
X105.0Y-92.5
X105.0Y-105.5
X109.0Y-111.5
X109.0Y-114.04
X109.0Y-116.58
X109.0Y-119.12
X109.0Y-121.66
X109.0Y-124.2
X109.0Y-131.0
X109.0Y-133.54
X109.0Y-136.08
X109.0Y-138.62
X109.0Y-141.16
X109.0Y-143.7
X131.5Y-67.0
X131.5Y-75.0
X134.04Y-67.0
X134.04Y-75.0
X136.58Y-67.0
X136.58Y-75.0
X146.46Y-69.5
X146.5Y-75.0
X149.0Y-69.5
X149.04Y-75.0
X151.54Y-69.5
X151.58Y-75.0
X153.5Y-122.0
X153.5Y-124.54
X153.5Y-127.08
X153.5Y-129.62
T2
X119.6Y-86.5
X119.6Y-89.04
X119.6Y-91.58
X119.6Y-94.12
X119.6Y-96.66
X119.6Y-99.2
X119.6Y-101.74
X119.6Y-104.28
X119.6Y-106.82
X119.6Y-109.36
X119.6Y-111.9
X119.6Y-114.44
X119.6Y-116.98
X119.6Y-119.52
X119.6Y-122.06
X119.6Y-124.6
X119.6Y-127.14
X119.6Y-129.68
X119.6Y-132.22
X119.6Y-134.76
X119.6Y-137.3
X119.6Y-139.84
X145.0Y-86.5
X145.0Y-89.04
X145.0Y-91.58
X145.0Y-94.12
X145.0Y-96.66
X145.0Y-99.2
X145.0Y-101.74
X145.0Y-104.28
X145.0Y-106.82
X145.0Y-109.36
X145.0Y-111.9
X145.0Y-114.44
X145.0Y-116.98
X145.0Y-119.52
X145.0Y-122.06
X145.0Y-124.6
X145.0Y-127.14
X145.0Y-129.68
X145.0Y-132.22
X145.0Y-134.76
X145.0Y-137.3
X145.0Y-139.84
T3
X98.0Y-85.0
X103.0Y-85.0
X104.0Y-70.5
X104.0Y-75.5
X117.5Y-68.5
X117.5Y-73.5
T4
X95.5Y-63.5
X95.5Y-143.5
X155.5Y-63.5
X155.5Y-143.5
M30
